0 FILE jammer-scion-v3-main.ldr
0 
0 Name:  Jammer[SCION]V3
0 Author:  
0 CustomBrick
0 FlexibleBrickControlPointUnitLength -1
0 FlexibleBrickLockedControlPoint 
0 NumOfBricks:  13
1 0 30.000000 -16.000000 -30.000000 1.000000 0.000000 0.000000 0.000000 1.000000 0.000000 0.000000 0.000000 1.000000 3024.dat
0 STEP
1 0 30.000000 -24.000000 -30.000000 1.000000 0.000000 0.000000 0.000000 1.000000 0.000000 0.000000 0.000000 1.000000 85861.dat
0 STEP
1 0 30.000000 -56.000000 -30.000000 1.000000 0.000000 0.000000 0.000000 1.000000 0.000000 0.000000 0.000000 1.000000 11610.dat
0 STEP
1 0 30.000000 -80.000000 -30.000000 0.000000 0.000000 -1.000000 0.000000 1.000000 0.000000 1.000000 0.000000 0.000000 2341.dat
0 STEP
1 0 30.000000 -104.000000 -30.000000 1.000000 0.000000 0.000000 0.000000 1.000000 0.000000 0.000000 0.000000 1.000000 4733.dat
0 STEP
1 0 30.000000 -128.000000 -30.000000 1.000000 0.000000 0.000000 0.000000 1.000000 0.000000 0.000000 0.000000 1.000000 3005.dat
0 STEP
1 0 30.000000 -152.000000 -30.000000 1.000000 0.000000 0.000000 0.000000 1.000000 0.000000 0.000000 0.000000 1.000000 3005.dat
0 STEP
1 0 30.000000 -160.000000 -30.000000 1.000000 0.000000 0.000000 0.000000 1.000000 0.000000 0.000000 0.000000 1.000000 3024.dat
0 STEP
1 0 30.000000 -160.000000 -30.000000 1.000000 0.000000 0.000000 0.000000 1.000000 0.000000 0.000000 0.000000 1.000000 22388.dat
0 STEP
1 0 -3.999990 -94.000000 -30.000000 0.000000 1.000000 0.000000 0.000000 0.000000 1.000000 1.000000 0.000000 0.000000 43710.dat
0 STEP
1 0 30.000000 -94.000000 4.000040 1.000000 0.000000 0.000000 0.000000 0.000000 1.000000 0.000000 -1.000000 0.000000 43710.dat
0 STEP
1 0 30.000000 -94.000010 -63.999990 -1.000000 0.000000 0.000000 0.000000 0.000000 1.000000 0.000000 1.000000 0.000000 43710.dat
0 STEP
1 0 64.000000 -94.000000 -30.000000 0.000000 -1.000000 0.000000 0.000000 0.000000 1.000000 -1.000000 0.000000 0.000000 43710.dat
0 STEP
0 STEP
0 NOFILE

0 FILE 43710.dat
0 Wedge  4 x  2 Double Left

0 Name: 43710.dat

0 Author: Orion Pobursky [OrionP]

0 !LDRAW_ORG Part UPDATE 2019-01

0 !LICENSE Licensed under CC BY 4.0 : see CAreadme.txt



0 BFC CERTIFY CCW



0 !HISTORY 2005-01-10 [guyvivan] Secondary author

0 !HISTORY 2011-07-25 [PTadmin] Official Update 2011-01

0 !HISTORY 2019-05-29 [cwdee] Update description

0 !HISTORY 2019-06-28 [PTadmin] Official Update 2019-01





1 16 0 0 0 0 0 1 0 1 0 -1 0 0 stud.dat

1 16 0 0 0 1 0 0 0 1 0 0 0 1 s__43710s01.dat

0 NOFILE

0 FILE s__43710s01.dat
0 ~Slope Brick  2 x  4 Triple Left Without Stud

0 Name: s\43710s01.dat

0 Author: Orion Pobursky [OrionP]

0 !LDRAW_ORG Subpart UPDATE 2011-01

0 !LICENSE Licensed under CC BY 4.0 : see CAreadme.txt



0 BFC CERTIFY CCW



0 !HISTORY 2005-01-10 [guyvivan] Secondary author

0 !HISTORY 2005-07-30 [guyvivan] Corrected bad polygon

0 !HISTORY 2011-07-25 [PTadmin] Official Update 2011-01





4 16 30 20 10 10 0 10 10 0 -10 30 20 -10

2 24 -6 24 6 -6 24 -66

2 24 26 24 6 -6 24 6

2 24 -10 24 10 -10 24 -70

2 24 30 24 10 -10 24 10

2 24 -6 24 6 -6 4 6

2 24 -6 4 -9 -6 21.882 -66

2 24 9 4 -9 9 20 -60

4 16 9 4 -9 9 20 -60 -6 20 -60 -6 4 -9

2 24 6 20 -60 -6 20 -60

1 16 0 20 -60 6 0 0 0 -1 0 0 0 -6 2-4disc.dat

1 16 0 20 -60 6 0 0 0 -1 0 0 0 -6 2-4edge.dat

1 16 0 20 -60 6 0 0 0 1 1.882 0 0 -6 2-4edge.dat

0 BFC INVERTNEXT

1 16 0 20 -60 0 0 -6 0 1.882 0 6 0 0 1-4cyls2.dat

0 BFC INVERTNEXT

1 16 0 20 -60 0 0 6 0 1.882 0 6 0 0 1-4cyls2.dat

1 16 0 20 -60 6 0 0 0 -1 1.882 0 0 -6 2-4ndis.dat

4 16 9 20 -60 7 21.882 -66 6 21.882 -66 6 20 -60

2 24 7 21.882 -66 9 20 -60

3 16 -6 21.882 -66 -6 24 -66 -6 4 -9

2 24 30 20 -10 10 20 -70

2 24 17.502 24 -47.493 10 24 -70

4 16 17.502 20 -47.493 10 20 -70 10 24 -70 17.502 24 -47.493

2 24 17.502 20 -47.493 17.502 24 -47.493

3 16 10 0 -10 10 20 -70 30 20 -10

2 24 26 20 -9 9 20 -60

3 16 26 20 -9 9 20 -60 9 4 -9

2 24 26 20 6 9 4 6

2 24 26 20 -9 9 4 -9

2 24 -10 24 10 -10 0 10

2 24 -10 0 -10 -10 20 -70

2 24 10 0 -10 10 20 -70

4 16 -10 0 -10 -10 20 -70 10 20 -70 10 0 -10

3 16 -10 24 -70 -10 20 -70 -10 0 -10

2 24 30 20 10 10 0 10

2 24 30 20 -10 10 0 -10

4 16 -10 24 10 -6 24 6 -6 24 -66 -10 24 -70

4 16 30 24 -10 26 24 -9 26 24 6 30 24 10

4 16 30 24 10 26 24 6 -6 24 6 -10 24 10

1 16 0 0 0 0 0 -10 0 1 0 10 0 0 rect.dat

1 16 1.5 4 -1.5 0 0 -7.5 0 -1 0 7.5 0 0 rect.dat

4 16 -10 24 -70 -10 0 -10 -10 0 10 -10 24 10

4 16 -6 24 6 -6 4 6 -6 4 -9 -6 24 -66

1 16 30 22 0 0 -1 0 -2 0 0 0 0 10 rect.dat

1 16 26 22 -1.5 0 1 0 -2 0 0 0 0 7.5 rect.dat

1 16 0 22 -70 0 0 10 -2 0 0 0 1 0 rect.dat

1 16 0.5 22.941 -66 0 0 6.5 1.059 0 0 0 -1 0 rect.dat

4 16 10 24 -70 -10 24 -70 -6 24 -66 7 24 -66

4 16 -10 24 10 -10 0 10 30 20 10 30 24 10

3 16 -10 0 10 10 0 10 30 20 10

4 16 26 20 6 -6 4 6 -6 24 6 26 24 6

3 16 26 20 6 9 4 6 -6 4 6

4 16 9 4 -9 9 4 6 26 20 6 26 20 -9

1 16 10 13.173 -10 1 0 0 0 -2.706 0 0 0 1 stud4a.dat

2 24 18 12.784 -10 17.802 12.284 -9

2 24 17.802 12.284 -9 17.392 11.898 -6.936

2 24 17.392 11.898 -6.936 15.656 10.264 -4.344

2 24 15.656 10.264 -4.344 13.064 7.825 -2.608

2 24 13.064 7.825 -2.608 10 4.941 -2

2 24 10 4.941 -2 9 4 -2.198

2 24 9 4 -2.198 6.936 4 -2.608

2 24 6.936 4 -2.608 4.344 4 -4.344

2 24 4.344 4 -4.344 2.608 4 -6.936

2 24 2.608 4 -6.936 2.198 4 -9

2 24 2.198 4 -9 2 4.314 -10

2 24 2 4.314 -10 2.608 5.275 -13.064

2 24 2.608 5.275 -13.064 4.344 6.088 -15.656

2 24 4.344 6.088 -15.656 6.936 6.633 -17.392

2 24 6.936 6.633 -17.392 9 6.761 -17.802

2 24 9 6.761 -17.802 10 7.765 -18

2 24 10 7.765 -18 13.064 10.458 -17.392

2 24 13.064 10.458 -17.392 15.656 12.353 -15.656

2 24 15.656 12.353 -15.656 17.392 13.173 -13.064

2 24 17.392 13.173 -13.064 18 12.784 -10

2 24 16 10.902 -10 15.802 10.402 -9

2 24 15.802 10.402 -9 15.544 10.159 -7.702

2 24 15.544 10.159 -7.702 14.242 8.934 -5.758

2 24 14.242 8.934 -5.758 12.298 7.104 -4.456

2 24 12.298 7.104 -4.456 10 4.941 -4

2 24 10 4.941 -4 9 4 -4.198

2 24 9 4 -4.198 7.702 4 -4.456

2 24 7.702 4 -4.456 5.758 4 -5.758

2 24 5.758 4 -5.758 4.456 4 -7.702

2 24 4.456 4 -7.702 4.198 4 -9

2 24 4.198 4 -9 4 4.314 -10

2 24 4 4.314 -10 4.456 5.035 -12.298

2 24 4.456 5.035 -12.298 5.758 5.645 -14.242

2 24 5.758 5.645 -14.242 7.702 6.053 -15.544

2 24 7.702 6.053 -15.544 9 6.134 -15.802

2 24 9 6.134 -15.802 10 7.137 -16

2 24 10 7.137 -16 12.298 9.157 -15.544

2 24 12.298 9.157 -15.544 14.242 10.578 -14.242

2 24 14.242 10.578 -14.242 15.544 11.194 -12.298

2 24 15.544 11.194 -12.298 16 10.902 -10

1 16 10 19.448 -30 1 0 0 0 -1.138 0 0 0 1 stud4a.dat

2 24 18 19.059 -30 17.392 17.525 -26.936

2 24 17.392 17.525 -26.936 15.656 15.078 -24.344

2 24 15.656 15.078 -24.344 13.064 12.094 -22.608

2 24 13.064 12.094 -22.608 10 9.02 -22

2 24 10 9.02 -22 9 8.141 -22.198

2 24 9 8.141 -22.198 6.936 8.269 -22.608

2 24 6.936 8.269 -22.608 4.344 8.814 -24.344

2 24 4.344 8.814 -24.344 2.608 9.627 -26.936

2 24 2.608 9.627 -26.936 2 10.588 -30

2 24 2 10.588 -30 2.608 11.549 -33.064

2 24 2.608 11.549 -33.064 4.344 12.363 -35.656

2 24 4.344 12.363 -35.656 6.936 12.907 -37.392

2 24 6.936 12.907 -37.392 9 13.036 -37.802

2 24 9 13.036 -37.802 10 14.039 -38

2 24 10 14.039 -38 13.064 16.732 -37.392

2 24 13.064 16.732 -37.392 15.656 18.627 -35.656

2 24 15.656 18.627 -35.656 17.392 19.448 -33.064

2 24 17.392 19.448 -33.064 18 19.059 -30

2 24 16 17.176 -30 15.544 16.026 -27.702

2 24 15.544 16.026 -27.702 14.242 14.191 -25.758

2 24 14.242 14.191 -25.758 12.298 11.953 -24.456

2 24 12.298 11.953 -24.456 10 9.647 -24

2 24 10 9.647 -24 9 8.768 -24.198

2 24 9 8.768 -24.198 7.702 8.849 -24.456

2 24 7.702 8.849 -24.456 5.758 9.257 -25.758

2 24 5.758 9.257 -25.758 4.456 9.867 -27.702

2 24 4.456 9.867 -27.702 4 10.588 -30

2 24 4 10.588 -30 4.456 11.309 -32.298

2 24 4.456 11.309 -32.298 5.758 11.919 -34.242

2 24 5.758 11.919 -34.242 7.702 12.328 -35.544

2 24 7.702 12.328 -35.544 9 12.408 -35.802

2 24 9 12.408 -35.802 10 13.412 -36

2 24 10 13.412 -36 12.298 15.432 -35.544

2 24 12.298 15.432 -35.544 14.242 16.853 -34.242

2 24 14.242 16.853 -34.242 15.544 17.468 -32.298

2 24 15.544 17.468 -32.298 16 17.176 -30

1 16 10 24 -50 1.84776 0 -0.765367 0 -1 0 0.765367 0 1.84776 3-4ring3.dat

1 16 10 24 -50 2.2961 0 -5.54328 0 1 0 5.54328 0 2.2961 2-4edge.dat

0 BFC INVERTNEXT

1 16 10 24 -50 4.24264 0 -4.24264 0 -4 0 4.24264 0 4.24264 5-8cyli.dat

1 16 10 24 -50 7.39104 0 -3.06147 0 1 0 3.06147 0 7.39104 5-8edge.dat

1 16 10 24 -50 7.39104 0 -3.06147 0 -4 0 3.06147 0 7.39104 5-8cyli.dat

1 16 10 24 -50 -3.06147 0 7.39104 0 -4 0 -7.39104 0 -3.06147 1-16cyli.dat

2 24 17.502 20 -47.493 17.392 20 -46.936

2 24 17.392 20 -46.936 15.656 20 -44.344

2 24 15.656 20 -44.344 14.481 20 -43.557

2 24 14.481 20 -43.557 13.064 18.369 -42.608

3 16 13.064 18.369 -42.608 14.481 20 -43.557 13.064 20 -42.608

2 24 13.064 18.369 -42.608 10 15.294 -42

4 16 10 15.294 -42 13.064 18.369 -42.608 13.064 20 -42.608 10 20 -42

2 24 10 15.294 -42 9 14.415 -42.198

4 16 9 14.415 -42.198 10 15.294 -42 10 20 -42 9 20 -42.198

2 24 9 14.415 -42.198 6.936 14.544 -42.608

4 16 6.936 14.544 -42.608 9 14.415 -42.198 9 20 -42.198 6.936 20 -42.608

2 24 6.936 14.544 -42.608 4.344 15.088 -44.344

4 16 4.344 15.088 -44.344 6.936 14.544 -42.608 6.936 20 -42.608 4.344 20 -44.344

2 24 4.344 15.088 -44.344 2.608 15.901 -46.936

4 16 2.608 15.901 -46.936 4.344 15.088 -44.344 4.344 20 -44.344 2.608 20 -46.936

2 24 2.608 15.901 -46.936 2 16.863 -50

4 16 2 16.863 -50 2.608 15.901 -46.936 2.608 20 -46.936 2 20 -50

2 24 2 16.863 -50 2.608 17.824 -53.064

4 16 2.608 17.824 -53.064 2 16.863 -50 2 20 -50 2.608 20 -53.064

2 24 2.608 17.824 -53.064 4.344 18.637 -55.656

4 16 4.344 18.637 -55.656 2.608 17.824 -53.064 2.608 20 -53.064 4.344 20 -55.656

2 24 4.344 18.637 -55.656 6.936 19.182 -57.392

4 16 6.936 19.182 -57.392 4.344 18.637 -55.656 4.344 20 -55.656 6.936 20 -57.392

2 24 6.936 19.182 -57.392 9 19.31 -57.802

4 16 9 19.31 -57.802 6.936 19.182 -57.392 6.936 20 -57.392 9 20 -57.802

2 24 9 19.31 -57.802 9.687 20 -57.938

3 16 9.687 20 -57.938 9 19.31 -57.802 9 20 -57.802

2 24 13.838 20 -45.487 12.298 18.227 -44.456

3 16 13.838 20 -45.487 12.298 18.227 -44.456 12.298 20 -44.456

2 24 12.298 18.227 -44.456 10 15.922 -44

4 16 12.298 18.227 -44.456 10 15.922 -44 10 20 -44 12.298 20 -44.456

2 24 10 15.922 -44 9 15.043 -44.198

4 16 10 15.922 -44 9 15.043 -44.198 9 20 -44.198 10 20 -44

2 24 9 15.043 -44.198 7.702 15.123 -44.456

4 16 9 15.043 -44.198 7.702 15.123 -44.456 7.702 20 -44.456 9 20 -44.198

2 24 7.702 15.123 -44.456 5.758 15.532 -45.758

4 16 7.702 15.123 -44.456 5.758 15.532 -45.758 5.758 20 -45.758 7.702 20 -44.456

2 24 5.758 15.532 -45.758 4.456 16.142 -47.702

4 16 5.758 15.532 -45.758 4.456 16.142 -47.702 4.456 20 -47.702 5.758 20 -45.758

2 24 4.456 16.142 -47.702 4 16.863 -50

4 16 4.456 16.142 -47.702 4 16.863 -50 4 20 -50 4.456 20 -47.702

2 24 4 16.863 -50 4.456 17.584 -52.298

4 16 4 16.863 -50 4.456 17.584 -52.298 4.456 20 -52.298 4 20 -50

2 24 4.456 17.584 -52.298 5.758 18.194 -54.242

4 16 4.456 17.584 -52.298 5.758 18.194 -54.242 5.758 20 -54.242 4.456 20 -52.298

2 24 5.758 18.194 -54.242 7.702 18.602 -55.544

4 16 5.758 18.194 -54.242 7.702 18.602 -55.544 7.702 20 -55.544 5.758 20 -54.242

2 24 7.702 18.602 -55.544 9 18.683 -55.802

4 16 7.702 18.602 -55.544 9 18.683 -55.802 9 20 -55.802 7.702 20 -55.544

2 24 9 18.683 -55.802 10 19.686 -56

4 16 9 18.683 -55.802 10 19.686 -56 10 20 -56 9 20 -55.802

2 24 10 19.686 -56 10.357 20 -55.929

4 16 10 19.686 -56 10.357 20 -55.929 10.357 24 -55.929 10 24 -56

2 24 17.502 24 -47.493 17.392 24 -46.936

4 16 17.502 24 -47.493 17.392 24 -46.936 17.392 20 -46.936 17.502 20 -47.493

2 24 6.936 24 -57.392 9.687 24 -57.938

2 24 9.687 24 -57.938 9.687 20 -57.938

2 24 9.687 24 -57.938 7 24 -66

4 16 9.687 24 -57.938 7 24 -66 9 20 -60 9.687 20 -57.938

3 16 7 24 -66 7 21.882 -66 9 20 -60

2 24 13.838 24 -45.487 12.298 24 -44.456

2 24 13.838 24 -45.487 13.838 20 -45.487

2 24 7.702 24 -55.544 10 24 -56

2 24 10 24 -56 10.357 24 -55.929

2 24 13.838 24 -45.487 10.357 24 -55.929

4 16 13.838 24 -45.487 17.392 24 -46.936 17.502 24 -47.493 7 24 -66

3 16 17.502 24 -47.493 10 24 -70 7 24 -66

4 16 13.838 24 -45.487 10.357 24 -55.929 10.357 20 -55.929 13.838 20 -45.487

2 24 10.357 20 -55.929 10.357 24 -55.929

4 16 17.802 12.284 -9 18 12.784 -10 18 13.173 -10 17.802 13.173 -9

4 16 17.392 11.898 -6.936 17.802 12.284 -9 17.802 13.173 -9 17.392 13.173 -6.936

4 16 15.656 10.264 -4.344 17.392 11.898 -6.936 17.392 13.173 -6.936 15.656 13.173 -4.344

4 16 13.064 7.825 -2.608 15.656 10.264 -4.344 15.656 13.173 -4.344 13.064 13.173 -2.608

4 16 10 4.941 -2 13.064 7.825 -2.608 13.064 13.173 -2.608 10 13.173 -2

4 16 9 4 -2.198 10 4.941 -2 10 13.173 -2 9 13.173 -2.198

4 16 6.936 4 -2.608 9 4 -2.198 9 13.173 -2.198 6.936 13.173 -2.608

4 16 4.344 4 -4.344 6.936 4 -2.608 6.936 13.173 -2.608 4.344 13.173 -4.344

4 16 2.608 4 -6.936 4.344 4 -4.344 4.344 13.173 -4.344 2.608 13.173 -6.936

4 16 2.198 4 -9 2.608 4 -6.936 2.608 13.173 -6.936 2.198 13.173 -9

4 16 2 4.314 -10 2.198 4 -9 2.198 13.173 -9 2 13.173 -10

4 16 2.608 5.275 -13.064 2 4.314 -10 2 13.173 -10 2.608 13.173 -13.064

4 16 4.344 6.088 -15.656 2.608 5.275 -13.064 2.608 13.173 -13.064 4.344 13.173 -15.656

4 16 6.936 6.633 -17.392 4.344 6.088 -15.656 4.344 13.173 -15.656 6.936 13.173 -17.392

4 16 9 6.761 -17.802 6.936 6.633 -17.392 6.936 13.173 -17.392 9 13.173 -17.802

4 16 10 7.765 -18 9 6.761 -17.802 9 13.173 -17.802 10 13.173 -18

4 16 13.064 10.458 -17.392 10 7.765 -18 10 13.173 -18 13.064 13.173 -17.392

4 16 15.656 12.353 -15.656 13.064 10.458 -17.392 13.064 13.173 -17.392 15.656 13.173 -15.656

3 16 17.392 13.173 -13.064 15.656 12.353 -15.656 15.656 13.173 -15.656

3 16 18 12.784 -10 17.392 13.173 -13.064 18 13.173 -10

4 16 16 10.902 -10 15.802 10.402 -9 15.802 13.173 -9 16 13.173 -10

4 16 15.802 10.402 -9 15.544 10.159 -7.702 15.544 13.173 -7.702 15.802 13.173 -9

4 16 15.544 10.159 -7.702 14.242 8.934 -5.758 14.242 13.173 -5.758 15.544 13.173 -7.702

4 16 14.242 8.934 -5.758 12.298 7.104 -4.456 12.298 13.173 -4.456 14.242 13.173 -5.758

4 16 12.298 7.104 -4.456 10 4.941 -4 10 13.173 -4 12.298 13.173 -4.456

4 16 10 4.941 -4 9 4 -4.198 9 13.173 -4.198 10 13.173 -4

4 16 9 4 -4.198 7.702 4 -4.456 7.702 13.173 -4.456 9 13.173 -4.198

4 16 7.702 4 -4.456 5.758 4 -5.758 5.758 13.173 -5.758 7.702 13.173 -4.456

4 16 5.758 4 -5.758 4.456 4 -7.702 4.456 13.173 -7.702 5.758 13.173 -5.758

4 16 4.456 4 -7.702 4.198 4 -9 4.198 13.173 -9 4.456 13.173 -7.702

4 16 4.198 4 -9 4 4.314 -10 4 13.173 -10 4.198 13.173 -9

4 16 4 4.314 -10 4.456 5.035 -12.298 4.456 13.173 -12.298 4 13.173 -10

4 16 4.456 5.035 -12.298 5.758 5.645 -14.242 5.758 13.173 -14.242 4.456 13.173 -12.298

4 16 5.758 5.645 -14.242 7.702 6.053 -15.544 7.702 13.173 -15.544 5.758 13.173 -14.242

4 16 7.702 6.053 -15.544 9 6.134 -15.802 9 13.173 -15.802 7.702 13.173 -15.544

4 16 9 6.134 -15.802 10 7.137 -16 10 13.173 -16 9 13.173 -15.802

4 16 10 7.137 -16 12.298 9.157 -15.544 12.298 13.173 -15.544 10 13.173 -16

4 16 12.298 9.157 -15.544 14.242 10.578 -14.242 14.242 13.173 -14.242 12.298 13.173 -15.544

4 16 14.242 10.578 -14.242 15.544 11.194 -12.298 15.544 13.173 -12.298 14.242 13.173 -14.242

4 16 15.544 11.194 -12.298 16 10.902 -10 16 13.173 -10 15.544 13.173 -12.298

4 16 17.392 17.525 -26.936 18 19.059 -30 18 19.448 -30 17.392 19.448 -26.936

4 16 15.656 15.078 -24.344 17.392 17.525 -26.936 17.392 19.448 -26.936 15.656 19.448 -24.344

4 16 13.064 12.094 -22.608 15.656 15.078 -24.344 15.656 19.448 -24.344 13.064 19.448 -22.608

4 16 10 9.02 -22 13.064 12.094 -22.608 13.064 19.448 -22.608 10 19.448 -22

4 16 9 8.141 -22.198 10 9.02 -22 10 19.448 -22 9 19.448 -22.198

4 16 6.936 8.269 -22.608 9 8.141 -22.198 9 19.448 -22.198 6.936 19.448 -22.608

4 16 4.344 8.814 -24.344 6.936 8.269 -22.608 6.936 19.448 -22.608 4.344 19.448 -24.344

4 16 2.608 9.627 -26.936 4.344 8.814 -24.344 4.344 19.448 -24.344 2.608 19.448 -26.936

4 16 2 10.588 -30 2.608 9.627 -26.936 2.608 19.448 -26.936 2 19.448 -30

4 16 2.608 11.549 -33.064 2 10.588 -30 2 19.448 -30 2.608 19.448 -33.064

4 16 4.344 12.363 -35.656 2.608 11.549 -33.064 2.608 19.448 -33.064 4.344 19.448 -35.656

4 16 6.936 12.907 -37.392 4.344 12.363 -35.656 4.344 19.448 -35.656 6.936 19.448 -37.392

4 16 9 13.036 -37.802 6.936 12.907 -37.392 6.936 19.448 -37.392 9 19.448 -37.802

4 16 10 14.039 -38 9 13.036 -37.802 9 19.448 -37.802 10 19.448 -38

4 16 13.064 16.732 -37.392 10 14.039 -38 10 19.448 -38 13.064 19.448 -37.392

4 16 15.656 18.627 -35.656 13.064 16.732 -37.392 13.064 19.448 -37.392 15.656 19.448 -35.656

3 16 17.392 19.448 -33.064 15.656 18.627 -35.656 15.656 19.448 -35.656

3 16 18 19.059 -30 17.392 19.448 -33.064 18 19.448 -30

4 16 16 17.176 -30 15.544 16.026 -27.702 15.544 19.448 -27.702 16 19.448 -30

4 16 15.544 16.026 -27.702 14.242 14.191 -25.758 14.242 19.448 -25.758 15.544 19.448 -27.702

4 16 14.242 14.191 -25.758 12.298 11.953 -24.456 12.298 19.448 -24.456 14.242 19.448 -25.758

4 16 12.298 11.953 -24.456 10 9.647 -24 10 19.448 -24 12.298 19.448 -24.456

4 16 10 9.647 -24 9 8.768 -24.198 9 19.448 -24.198 10 19.448 -24

4 16 9 8.768 -24.198 7.702 8.849 -24.456 7.702 19.448 -24.456 9 19.448 -24.198

4 16 7.702 8.849 -24.456 5.758 9.257 -25.758 5.758 19.448 -25.758 7.702 19.448 -24.456

4 16 5.758 9.257 -25.758 4.456 9.867 -27.702 4.456 19.448 -27.702 5.758 19.448 -25.758

4 16 4.456 9.867 -27.702 4 10.588 -30 4 19.448 -30 4.456 19.448 -27.702

4 16 4 10.588 -30 4.456 11.309 -32.298 4.456 19.448 -32.298 4 19.448 -30

4 16 4.456 11.309 -32.298 5.758 11.919 -34.242 5.758 19.448 -34.242 4.456 19.448 -32.298

4 16 5.758 11.919 -34.242 7.702 12.328 -35.544 7.702 19.448 -35.544 5.758 19.448 -34.242

4 16 7.702 12.328 -35.544 9 12.408 -35.802 9 19.448 -35.802 7.702 19.448 -35.544

4 16 9 12.408 -35.802 10 13.412 -36 10 19.448 -36 9 19.448 -35.802

4 16 10 13.412 -36 12.298 15.432 -35.544 12.298 19.448 -35.544 10 19.448 -36

4 16 12.298 15.432 -35.544 14.242 16.853 -34.242 14.242 19.448 -34.242 12.298 19.448 -35.544

4 16 14.242 16.853 -34.242 15.544 17.468 -32.298 15.544 19.448 -32.298 14.242 19.448 -34.242

4 16 15.544 17.468 -32.298 16 17.176 -30 16 19.448 -30 15.544 19.448 -32.298

5 24 17.802 13.173 -9 17.802 12.284 -9 18 13.173 -10 17.392 13.173 -6.936

5 24 17.392 13.173 -6.936 17.392 11.898 -6.936 17.802 13.173 -9 15.656 13.173 -4.344

5 24 15.656 13.173 -4.344 15.656 10.264 -4.344 17.392 13.173 -6.936 13.064 13.173 -2.608

5 24 13.064 13.173 -2.608 13.064 7.825 -2.608 15.656 13.173 -4.344 10 13.173 -2

5 24 10 13.173 -2 10 4.941 -2 13.064 13.173 -2.608 9 13.173 -2.198

5 24 6.936 13.173 -2.608 6.936 4 -2.608 9 13.173 -2.198 4.344 13.173 -4.344

5 24 4.344 13.173 -4.344 4.344 4 -4.344 6.936 13.173 -2.608 2.608 13.173 -6.936

5 24 2.608 13.173 -6.936 2.608 4 -6.936 4.344 13.173 -4.344 2.198 13.173 -9

5 24 2 13.173 -10 2 4.314 -10 2.198 13.173 -9 2.608 13.173 -13.064

5 24 2.608 13.173 -13.064 2.608 5.275 -13.064 2 13.173 -10 4.344 13.173 -15.656

5 24 4.344 13.173 -15.656 4.344 6.088 -15.656 2.608 13.173 -13.064 6.936 13.173 -17.392

5 24 6.936 13.173 -17.392 6.936 6.633 -17.392 4.344 13.173 -15.656 9 13.173 -17.802

5 24 10 13.173 -18 10 7.765 -18 9 13.173 -17.802 13.064 13.173 -17.392

5 24 13.064 13.173 -17.392 13.064 10.458 -17.392 10 13.173 -18 15.656 13.173 -15.656

5 24 15.656 13.173 -15.656 15.656 12.353 -15.656 13.064 13.173 -17.392 17.392 13.173 -13.064

5 24 18 13.173 -10 18 12.784 -10 17.392 13.173 -13.064 17.802 13.173 -9

5 24 15.544 13.173 -7.702 15.544 10.159 -7.702 15.802 13.173 -9 14.242 13.173 -5.758

5 24 14.242 13.173 -5.758 14.242 8.934 -5.758 15.544 13.173 -7.702 12.298 13.173 -4.456

5 24 12.298 13.173 -4.456 12.298 7.104 -4.456 14.242 13.173 -5.758 10 13.173 -4

5 24 10 13.173 -4 10 4.941 -4 12.298 13.173 -4.456 9 13.173 -4.198

5 24 7.702 13.173 -4.456 7.702 4 -4.456 9 13.173 -4.198 5.758 13.173 -5.758

5 24 5.758 13.173 -5.758 5.758 4 -5.758 7.702 13.173 -4.456 4.456 13.173 -7.702

5 24 4.456 13.173 -7.702 4.456 4 -7.702 5.758 13.173 -5.758 4.198 13.173 -9

5 24 4 13.173 -10 4 4.314 -10 4.198 13.173 -9 4.456 13.173 -12.298

5 24 4.456 13.173 -12.298 4.456 5.035 -12.298 4 13.173 -10 5.758 13.173 -14.242

5 24 5.758 13.173 -14.242 5.758 5.645 -14.242 4.456 13.173 -12.298 7.702 13.173 -15.544

5 24 7.702 13.173 -15.544 7.702 6.053 -15.544 5.758 13.173 -14.242 9 13.173 -15.802

5 24 10 13.173 -16 10 7.137 -16 9 13.173 -15.802 12.298 13.173 -15.544

5 24 12.298 13.173 -15.544 12.298 9.157 -15.544 10 13.173 -16 14.242 13.173 -14.242

5 24 14.242 13.173 -14.242 14.242 10.578 -14.242 12.298 13.173 -15.544 15.544 13.173 -12.298

5 24 15.544 13.173 -12.298 15.544 11.194 -12.298 14.242 13.173 -14.242 16 13.173 -10

5 24 16 13.173 -10 16 10.902 -10 15.544 13.173 -12.298 15.802 13.173 -9

5 24 17.392 19.448 -26.936 17.392 17.525 -26.936 18 19.448 -30 15.656 19.448 -24.344

5 24 15.656 19.448 -24.344 15.656 15.078 -24.344 17.392 19.448 -26.936 13.064 19.448 -22.608

5 24 13.064 19.448 -22.608 13.064 12.094 -22.608 15.656 19.448 -24.344 10 19.448 -22

5 24 10 19.448 -22 10 9.02 -22 13.064 19.448 -22.608 9 19.448 -22.198

5 24 6.936 19.448 -22.608 6.936 8.269 -22.608 9 19.448 -22.198 4.344 19.448 -24.344

5 24 4.344 19.448 -24.344 4.344 8.814 -24.344 6.936 19.448 -22.608 2.608 19.448 -26.936

5 24 2.608 19.448 -26.936 2.608 9.627 -26.936 4.344 19.448 -24.344 2 19.448 -30

5 24 2 19.448 -30 2 10.588 -30 2.608 19.448 -26.936 2.608 19.448 -33.064

5 24 2.608 19.448 -33.064 2.608 11.549 -33.064 2 19.448 -30 4.344 19.448 -35.656

5 24 4.344 19.448 -35.656 4.344 12.363 -35.656 2.608 19.448 -33.064 6.936 19.448 -37.392

5 24 6.936 19.448 -37.392 6.936 12.907 -37.392 4.344 19.448 -35.656 9 19.448 -37.802

5 24 10 19.448 -38 10 14.039 -38 9 19.448 -37.802 13.064 19.448 -37.392

5 24 13.064 19.448 -37.392 13.064 16.732 -37.392 10 19.448 -38 15.656 19.448 -35.656

5 24 15.656 19.448 -35.656 15.656 18.627 -35.656 13.064 19.448 -37.392 17.392 19.448 -33.064

5 24 18 19.448 -30 18 19.059 -30 17.392 19.448 -33.064 17.392 19.448 -26.936

5 24 15.544 19.448 -27.702 15.544 16.026 -27.702 16 19.448 -30 14.242 19.448 -25.758

5 24 14.242 19.448 -25.758 14.242 14.191 -25.758 15.544 19.448 -27.702 12.298 19.448 -24.456

5 24 12.298 19.448 -24.456 12.298 11.953 -24.456 14.242 19.448 -25.758 10 19.448 -24

5 24 10 19.448 -24 10 9.647 -24 12.298 19.448 -24.456 9 19.448 -24.198

5 24 7.702 19.448 -24.456 7.702 8.849 -24.456 9 19.448 -24.198 5.758 19.448 -25.758

5 24 5.758 19.448 -25.758 5.758 9.257 -25.758 7.702 19.448 -24.456 4.456 19.448 -27.702

5 24 4.456 19.448 -27.702 4.456 9.867 -27.702 5.758 19.448 -25.758 4 19.448 -30

5 24 4 19.448 -30 4 10.588 -30 4.456 19.448 -27.702 4.456 19.448 -32.298

5 24 4.456 19.448 -32.298 4.456 11.309 -32.298 4 19.448 -30 5.758 19.448 -34.242

5 24 5.758 19.448 -34.242 5.758 11.919 -34.242 4.456 19.448 -32.298 7.702 19.448 -35.544

5 24 7.702 19.448 -35.544 7.702 12.328 -35.544 5.758 19.448 -34.242 9 19.448 -35.802

5 24 10 19.448 -36 10 13.412 -36 9 19.448 -35.802 12.298 19.448 -35.544

5 24 12.298 19.448 -35.544 12.298 15.432 -35.544 10 19.448 -36 14.242 19.448 -34.242

5 24 14.242 19.448 -34.242 14.242 16.853 -34.242 12.298 19.448 -35.544 15.544 19.448 -32.298

5 24 15.544 19.448 -32.298 15.544 17.468 -32.298 14.242 19.448 -34.242 16 19.448 -30

5 24 16 19.448 -30 16 17.176 -30 15.544 19.448 -32.298 15.544 19.448 -27.702

5 24 12.298 20 -44.456 12.298 18.227 -44.456 13.838 20 -45.487 10 20 -44

5 24 13.064 20 -42.608 13.064 18.369 -42.608 14.481 20 -43.557 10 20 -42

5 24 10 20 -42 10 15.294 -42 13.064 20 -42.608 9 20 -42.198

5 24 6.936 20 -42.608 6.936 14.544 -42.608 9 20 -42.198 4.344 20 -44.344

5 24 4.344 20 -44.344 4.344 15.088 -44.344 6.936 20 -42.608 2.608 20 -46.936

5 24 2.608 20 -46.936 2.608 15.901 -46.936 4.344 20 -44.344 2 20 -50

5 24 2 20 -50 2 16.863 -50 2.608 20 -46.936 2.608 20 -53.064

5 24 2.608 20 -53.064 2.608 17.824 -53.064 2 20 -50 4.344 20 -55.656

5 24 4.344 20 -55.656 4.344 18.637 -55.656 2.608 20 -53.064 6.936 20 -57.392

5 24 6.936 20 -57.392 6.936 19.182 -57.392 4.344 20 -55.656 9 20 -57.802

5 24 10 20 -44 10 15.922 -44 12.298 20 -44.456 9 20 -44.198

5 24 7.702 20 -44.456 7.702 15.123 -44.456 9 20 -44.198 5.758 20 -45.758

5 24 5.758 20 -45.758 5.758 15.532 -45.758 7.702 20 -44.456 4.456 20 -47.702

5 24 4.456 20 -47.702 4.456 16.142 -47.702 5.758 20 -45.758 4 20 -50

5 24 4 20 -50 4 16.863 -50 4.456 20 -47.702 4.456 20 -52.298

5 24 4.456 20 -52.298 4.456 17.584 -52.298 4 20 -50 5.758 20 -54.242

5 24 5.758 20 -54.242 5.758 18.194 -54.242 4.456 20 -52.298 7.702 20 -55.544

5 24 7.702 20 -55.544 7.702 18.602 -55.544 5.758 20 -54.242 9 20 -55.802

5 24 10 20 -56 10 19.686 -56 9 20 -55.802 10.357 20 -55.929

2 24 18.03 24 -32.91 21.896 24 -34.311

4 16 18.03 24 -32.91 21.896 24 -34.311 21.896 20 -34.311 18.03 20 -32.91

4 16 17.502 20 -47.493 14.481 20 -43.557 18.03 20 -32.91 21.896 20 -34.311

2 24 18.03 20 -32.91 21.896 20 -34.311

2 24 21.896 20 -34.311 21.896 24 -34.311

2 24 18.03 20 -32.91 18.03 24 -32.91

2 24 20.138 24 -26.586 24.004 24 -27.987

4 16 24.004 24 -27.987 20.138 24 -26.586 20.138 20 -26.586 24.004 20 -27.987

2 24 20.138 20 -26.586 24.004 20 -27.987

2 24 24.004 20 -27.987 24.004 24 -27.987

2 24 20.138 20 -26.586 20.138 24 -26.586

2 24 23.948 24 -15.155 27.815 24 -16.556

4 16 23.948 24 -15.155 27.815 24 -16.556 27.815 20 -16.556 23.948 20 -15.155

2 24 30 24 -10 27.815 24 -16.556

4 16 30 20 -10 27.815 20 -16.556 27.815 24 -16.556 30 24 -10

2 24 23.948 24 -15.155 26 24 -9

4 16 30 24 -10 27.815 24 -16.556 23.948 24 -15.155 26 24 -9

4 16 23.948 20 -15.155 26 20 -9 26 24 -9 23.948 24 -15.155

4 16 24.004 20 -27.987 20.138 20 -26.586 23.948 20 -15.155 27.815 20 -16.556

2 24 23.948 20 -15.155 27.815 20 -16.556

2 24 27.815 20 -16.556 27.815 24 -16.556

2 24 23.948 20 -15.155 23.948 24 -15.155

2 24 18.03 24 -32.91 20.138 24 -26.586

4 16 24.004 24 -27.987 21.896 24 -34.311 18.03 24 -32.91 20.138 24 -26.586

4 16 18.03 20 -32.91 20.138 20 -26.586 20.138 24 -26.586 18.03 24 -32.91

2 24 24.004 24 -27.987 21.896 24 -34.311

4 16 24.004 20 -27.987 21.896 20 -34.311 21.896 24 -34.311 24.004 24 -27.987

2 24 17.392 19.448 -33.064 18.03 20 -32.91

4 16 17.392 23 -33.064 18.03 23 -32.91 18.03 20 -32.91 17.392 19.448 -33.064

2 24 17.392 19.448 -33.064 17.392 23 -33.064

2 24 17.392 23 -33.064 18.03 23 -32.91

2 24 19 23 -30 18.03 23 -32.91

2 24 19 20 -30 18 19.059 -30

4 16 19 23 -30 18 23 -30 18 19.059 -30 19 20 -30

2 24 18 23 -30 18 19.059 -30

2 24 19 23 -30 19 20 -30

2 24 19 23 -30 18 23 -30

2 24 17.392 23 -33.064 18 23 -30

4 16 18.03 23 -32.91 17.392 23 -33.064 18 23 -30 19 23 -30

2 24 -6 20 -28.5 2.298 20 -28.5

2 24 -6 10.118 -28.5 2.298 10.118 -28.5

4 16 -6 10.118 -28.5 2.298 10.118 -28.5 2.298 20 -28.5 -6 20 -28.5

2 24 -6 10.118 -28.5 -6 20 -28.5

2 24 2.298 10.118 -28.5 2.298 20 -28.5

2 24 -6 11.059 -31.5 2.298 11.059 -31.5

4 16 -6 20 -31.5 2.298 20 -31.5 2.298 11.059 -31.5 -6 11.059 -31.5

2 24 -6 11.059 -31.5 -6 20 -31.5

2 24 2.298 11.059 -31.5 2.298 20 -31.5

2 24 -6 20 -31.5 2.298 20 -31.5

4 16 2.298 20 -31.5 -6 20 -31.5 -6 20 -28.5 2.298 20 -28.5

2 24 2 20 -30 2.298 20 -31.5

2 24 2 20 -30 2.298 20 -28.5

2 24 -6 20 -31.5 -6 20 -28.5

0

0 NOFILE

0 FILE 1-16cyli.dat
0 Cylinder 0.0625

0 Name: 1-16cyli.dat

0 Author: Marc Klein [marckl]

0 !LDRAW_ORG Primitive UPDATE 2005-01

0 !LICENSE Licensed under CC BY 4.0 : see CAreadme.txt



0 BFC CERTIFY CCW



0 !HISTORY 2004-03-02 [PTadmin] Official Update 2004-01

0 !HISTORY 2004-12-11 [nielsk] Recreated using Primitive Generator, Edge lines fixed, BFC changed to CCW

0 !HISTORY 2005-12-28 [PTadmin] Official Update 2005-01

0 !HISTORY 2007-06-22 [PTadmin] Header formatted for Contributor Agreement

0 !HISTORY 2008-07-01 [PTadmin] Official Update 2008-01





4 16 .9239 1 .3827 .9239 0 .3827 1 0 0 1 1 0

5 24 1 1 0 1 0 0 1 1 -.4142 .9239 1 .3827

5 24 .9239 1 .3827 .9239 0 .3827 1 1 0 .7654 1 .7654

0

0 NOFILE

0 FILE 5-8edge.dat
0 Circle 0.625

0 Name: 5-8edge.dat

0 Author: Mark Kennedy [mkennedy]

0 !LDRAW_ORG Primitive UPDATE 2017-01

0 !LICENSE Licensed under CC BY 4.0 : see CAreadme.txt



0 BFC CERTIFY CCW



0 !HISTORY 2004-04-22 [PTadmin] Official Update 2004-02

0 !HISTORY 2005-12-28 [PTadmin] Official Update 2005-01

0 !HISTORY 2007-06-24 [PTadmin] Header formatted for Contributor Agreement

0 !HISTORY 2008-07-01 [PTadmin] Official Update 2008-01

0 !HISTORY 2017-01-15 [Steffen] BFCed

0 !HISTORY 2017-12-30 [PTadmin] Official Update 2017-01





2 24 1 0 0 0.9239 0 0.3827

2 24 0.9239 0 0.3827 0.7071 0 0.7071

2 24 0.7071 0 0.7071 0.3827 0 0.9239

2 24 0.3827 0 0.9239 0 0 1

2 24 0 0 1 -0.3827 0 0.9239

2 24 -0.3827 0 0.9239 -0.7071 0 0.7071

2 24 -0.7071 0 0.7071 -0.9239 0 0.3827

2 24 -0.9239 0 0.3827 -1 0 0

2 24 -1 0 0 -0.9239 0 -0.3827

2 24 -0.9239 0 -0.3827 -0.7071 0 -0.7071

0 NOFILE

0 FILE 5-8cyli.dat
0 Cylinder 0.625

0 Name: 5-8cyli.dat

0 Author: Mark Kennedy [mkennedy]

0 !LDRAW_ORG Primitive UPDATE 2005-01

0 !LICENSE Licensed under CC BY 4.0 : see CAreadme.txt



0 BFC CERTIFY CCW



0 !HISTORY 2004-04-22 [PTadmin] Official Update 2004-02

0 !HISTORY 2004-12-11 [nielsk] Recreated using Primitive Generator, Edge lines fixed, BFC changed to CCW

0 !HISTORY 2005-12-28 [PTadmin] Official Update 2005-01

0 !HISTORY 2007-06-24 [PTadmin] Header formatted for Contributor Agreement

0 !HISTORY 2008-07-01 [PTadmin] Official Update 2008-01





4 16 .9239 1 .3827 .9239 0 .3827 1 0 0 1 1 0

4 16 .7071 1 .7071 .7071 0 .7071 .9239 0 .3827 .9239 1 .3827

4 16 .3827 1 .9239 .3827 0 .9239 .7071 0 .7071 .7071 1 .7071

4 16 0 1 1 0 0 1 .3827 0 .9239 .3827 1 .9239

4 16 -.3827 1 .9239 -.3827 0 .9239 0 0 1 0 1 1

4 16 -.7071 1 .7071 -.7071 0 .7071 -.3827 0 .9239 -.3827 1 .9239

4 16 -.9239 1 .3827 -.9239 0 .3827 -.7071 0 .7071 -.7071 1 .7071

4 16 -1 1 0 -1 0 0 -.9239 0 .3827 -.9239 1 .3827

4 16 -.9239 1 -.3827 -.9239 0 -.3827 -1 0 0 -1 1 0

4 16 -.7071 1 -.7071 -.7071 0 -.7071 -.9239 0 -.3827 -.9239 1 -.3827

0

5 24 1 1 0 1 0 0 1 1 -.4142 .9239 1 .3827

5 24 .9239 1 .3827 .9239 0 .3827 1 1 0 .7071 1 .7071

5 24 .7071 1 .7071 .7071 0 .7071 .9239 1 .3827 .3827 1 .9239

5 24 .3827 1 .9239 .3827 0 .9239 .7071 1 .7071 0 1 1

5 24 0 1 1 0 0 1 .3827 1 .9239 -.3827 1 .9239

5 24 -.3827 1 .9239 -.3827 0 .9239 0 1 1 -.7071 1 .7071

5 24 -.7071 1 .7071 -.7071 0 .7071 -.3827 1 .9239 -.9239 1 .3827

5 24 -.9239 1 .3827 -.9239 0 .3827 -.7071 1 .7071 -1 1 0

5 24 -1 1 0 -1 0 0 -.9239 1 .3827 -.9239 1 -.3827

5 24 -.9239 1 -.3827 -.9239 0 -.3827 -1 1 0 -.7071 1 -.7071

5 24 -.7071 1 -.7071 -.7071 0 -.7071 -.9239 1 -.3827 -.4142 1 -1

0

0 NOFILE

0 FILE 3-4ring3.dat
0 Ring  3 x 0.75

0 Name: 3-4ring3.dat

0 Author: Willy Tschager [Holly-Wood]

0 !LDRAW_ORG Primitive UPDATE 2024-01

0 !LICENSE Licensed under CC BY 4.0 : see CAreadme.txt



0 BFC CERTIFY CCW



0 !HISTORY 2003-06-11 [pneaster] Corrected Values

0 !HISTORY 2004-11-06 [PTadmin] Official Update 2004-04

0 !HISTORY 2007-06-24 [PTadmin] Header formatted for Contributor Agreement

0 !HISTORY 2008-07-01 [PTadmin] Official Update 2008-01

0 !HISTORY 2012-02-16 [Philo] Changed to CCW

0 !HISTORY 2012-03-30 [PTadmin] Official Update 2012-01

0 !HISTORY 2024-01-14 [Holly-Wood] Complete regeneration, original by cavehop

0 !HISTORY 2024-01-29 [OrionP] Official Update 2024-01



4 16 4 0 0 3.6956 0 1.5308 2.7717 0 1.1481 3 0 0

4 16 3.6956 0 1.5308 2.8284 0 2.8284 2.1213 0 2.1213 2.7717 0 1.1481

4 16 2.8284 0 2.8284 1.5308 0 3.6956 1.1481 0 2.7717 2.1213 0 2.1213

4 16 1.5308 0 3.6956 0 0 4 0 0 3 1.1481 0 2.7717

4 16 0 0 4 -1.5308 0 3.6956 -1.1481 0 2.7717 0 0 3

4 16 -1.5308 0 3.6956 -2.8284 0 2.8284 -2.1213 0 2.1213 -1.1481 0 2.7717

4 16 -2.8284 0 2.8284 -3.6956 0 1.5308 -2.7717 0 1.1481 -2.1213 0 2.1213

4 16 -3.6956 0 1.5308 -4 0 0 -3 0 0 -2.7717 0 1.1481

4 16 -4 0 0 -3.6956 0 -1.5308 -2.7717 0 -1.1481 -3 0 0

4 16 -3.6956 0 -1.5308 -2.8284 0 -2.8284 -2.1213 0 -2.1213 -2.7717 0 -1.1481

4 16 -2.8284 0 -2.8284 -1.5308 0 -3.6956 -1.1481 0 -2.7717 -2.1213 0 -2.1213

4 16 -1.5308 0 -3.6956 0 0 -4 0 0 -3 -1.1481 0 -2.7717

0 // Build by LDPartEditor (PrimGen 2.X)

0 NOFILE

0 FILE stud4a.dat
0 Stud Tube Open without Base Edges

0 Name: stud4a.dat

0 Author: James Jessiman

0 !LDRAW_ORG Primitive UPDATE 2009-02

0 !LICENSE Licensed under CC BY 4.0 : see CAreadme.txt



0 BFC CERTIFY CCW



0 !HISTORY 1999-07-05 [PTadmin] Official Update 1999-05

0 !HISTORY 2002-04-04 [sbliss] Modified for BFC compliance

0 !HISTORY 2002-04-25 [PTadmin] Official Update 2002-02

0 !HISTORY 2007-06-24 [PTadmin] Header formatted for Contributor Agreement

0 !HISTORY 2008-07-01 [PTadmin] Official Update 2008-01

0 !HISTORY 2009-06-21 [cwdee] Update ring references to 4-4ring

0 !HISTORY 2009-09-03 [PTadmin] Official Update 2009-02





1 16 0 -4 0 6 0 0 0 1 0 0 0 6 4-4edge.dat

1 16 0 -4 0 8 0 0 0 1 0 0 0 8 4-4edge.dat

0 BFC INVERTNEXT

1 16 0 -4 0 6 0 0 0 4 0 0 0 6 4-4cyli.dat

1 16 0 -4 0 8 0 0 0 4 0 0 0 8 4-4cyli.dat

1 16 0 -4 0 2 0 0 0 1 0 0 0 2 4-4ring3.dat

0

0 NOFILE

0 FILE 4-4ring3.dat
0 Ring  3 x 1.0

0 Name: 4-4ring3.dat

0 Author: James Jessiman

0 !LDRAW_ORG Primitive UPDATE 2009-01

0 !LICENSE Licensed under CC BY 4.0 : see CAreadme.txt



0 BFC CERTIFY CCW



0 !HISTORY 1998-12-15 [PTadmin] Official Update 1998-10

0 !HISTORY 2002-04-05 [hafhead] Added BFC statement

0 !HISTORY 2002-04-25 [PTadmin] Official Update 2002-02

0 !HISTORY 2007-06-24 [PTadmin] Header formatted for Contributor Agreement

0 !HISTORY 2008-07-01 [PTadmin] Official Update 2008-01

0 !HISTORY 2008-08-26 [cwdee] Switch polygon winding and rename

0 !HISTORY 2009-05-02 [PTadmin] Official Update 2009-01





4 16 -1.5308 0 3.6956 -1.1481 0 2.7717 0 0 3 0 0 4

4 16 -2.8284 0 2.8284 -2.1213 0 2.1213 -1.1481 0 2.7717 -1.5308 0 3.6956

4 16 -3.6956 0 1.5308 -2.7717 0 1.1481 -2.1213 0 2.1213 -2.8284 0 2.8284

4 16 -4 0 0 -3 0 0 -2.7717 0 1.1481 -3.6956 0 1.5308

4 16 -3.6956 0 -1.5308 -2.7717 0 -1.1481 -3 0 0 -4 0 0

4 16 -2.8284 0 -2.8284 -2.1213 0 -2.1213 -2.7717 0 -1.1481 -3.6956 0 -1.5308

4 16 -1.5308 0 -3.6956 -1.1481 0 -2.7717 -2.1213 0 -2.1213 -2.8284 0 -2.8284

4 16 0 0 -4 0 0 -3 -1.1481 0 -2.7717 -1.5308 0 -3.6956

4 16 1.5308 0 -3.6956 1.1481 0 -2.7717 0 0 -3 0 0 -4

4 16 2.8284 0 -2.8284 2.1213 0 -2.1213 1.1481 0 -2.7717 1.5308 0 -3.6956

4 16 3.6956 0 -1.5308 2.7717 0 -1.1481 2.1213 0 -2.1213 2.8284 0 -2.8284

4 16 4 0 0 3 0 0 2.7717 0 -1.1481 3.6956 0 -1.5308

4 16 3.6956 0 1.5308 2.7717 0 1.1481 3 0 0 4 0 0

4 16 2.8284 0 2.8284 2.1213 0 2.1213 2.7717 0 1.1481 3.6956 0 1.5308

4 16 1.5308 0 3.6956 1.1481 0 2.7717 2.1213 0 2.1213 2.8284 0 2.8284

4 16 0 0 4 0 0 3 1.1481 0 2.7717 1.5308 0 3.6956

0

0 NOFILE

0 FILE 4-4cyli.dat
0 Cylinder 1.0

0 Name: 4-4cyli.dat

0 Author: James Jessiman

0 !LDRAW_ORG Primitive UPDATE 2005-01

0 !LICENSE Licensed under CC BY 4.0 : see CAreadme.txt



0 BFC CERTIFY CCW



0 !HISTORY 1998-12-15 [PTadmin] Official Update 1998-10

0 !HISTORY 2002-03-23 [sbliss] Added BFC statement; merged headers from files in distributions LDraw 0.27 and Complete.

0 !HISTORY 2002-04-25 [PTadmin] Official Update 2002-02

0 !HISTORY 2004-12-14 [guyvivan] BFC CCW

0 !HISTORY 2005-12-28 [PTadmin] Official Update 2005-01

0 !HISTORY 2007-06-24 [PTadmin] Header formatted for Contributor Agreement

0 !HISTORY 2008-07-01 [PTadmin] Official Update 2008-01





4 16 1 1 0 0.9239 1 0.3827 0.9239 0 0.3827 1 0 0

5 24 1 0 0 1 1 0 0.9239 0 0.3827 0.9239 0 -0.3827

4 16 0.9239 1 0.3827 0.7071 1 0.7071 0.7071 0 0.7071 0.9239 0 0.3827

5 24 0.9239 0 0.3827 0.9239 1 0.3827 0.7071 0 0.7071 1 0 0

4 16 0.7071 1 0.7071 0.3827 1 0.9239 0.3827 0 0.9239 0.7071 0 0.7071

5 24 0.7071 0 0.7071 0.7071 1 0.7071 0.3827 0 0.9239 0.9239 0 0.3827

4 16 0.3827 1 0.9239 0 1 1 0 0 1 0.3827 0 0.9239

5 24 0.3827 0 0.9239 0.3827 1 0.9239 0 0 1 0.7071 0 0.7071

4 16 0 1 1 -0.3827 1 0.9239 -0.3827 0 0.9239 0 0 1

5 24 0 0 1 0 1 1 -0.3827 0 0.9239 0.3827 0 0.9239

4 16 -0.3827 1 0.9239 -0.7071 1 0.7071 -0.7071 0 0.7071 -0.3827 0 0.9239

5 24 -0.3827 0 0.9239 -0.3827 1 0.9239 -0.7071 0 0.7071 0 0 1

4 16 -0.7071 1 0.7071 -0.9239 1 0.3827 -0.9239 0 0.3827 -0.7071 0 0.7071

5 24 -0.7071 0 0.7071 -0.7071 1 0.7071 -0.9239 0 0.3827 -0.3827 0 0.9239

4 16 -0.9239 1 0.3827 -1 1 0 -1 0 0 -0.9239 0 0.3827

5 24 -0.9239 0 0.3827 -0.9239 1 0.3827 -1 0 0 -0.7071 0 0.7071

4 16 -1 1 0 -0.9239 1 -0.3827 -0.9239 0 -0.3827 -1 0 0

5 24 -1 0 0 -1 1 0 -0.9239 0 -0.3827 -0.9239 0 0.3827

4 16 -0.9239 1 -0.3827 -0.7071 1 -0.7071 -0.7071 0 -0.7071 -0.9239 0 -0.3827

5 24 -0.9239 0 -0.3827 -0.9239 1 -0.3827 -0.7071 0 -0.7071 -1 0 0

4 16 -0.7071 1 -0.7071 -0.3827 1 -0.9239 -0.3827 0 -0.9239 -0.7071 0 -0.7071

5 24 -0.7071 0 -0.7071 -0.7071 1 -0.7071 -0.3827 0 -0.9239 -0.9239 0 -0.3827

4 16 -0.3827 1 -0.9239 0 1 -1 0 0 -1 -0.3827 0 -0.9239

5 24 -0.3827 0 -0.9239 -0.3827 1 -0.9239 0 0 -1 -0.7071 0 -0.7071

4 16 0 1 -1 0.3827 1 -0.9239 0.3827 0 -0.9239 0 0 -1

5 24 0 0 -1 0 1 -1 0.3827 0 -0.9239 -0.3827 0 -0.9239

4 16 0.3827 1 -0.9239 0.7071 1 -0.7071 0.7071 0 -0.7071 0.3827 0 -0.9239

5 24 0.3827 0 -0.9239 0.3827 1 -0.9239 0.7071 0 -0.7071 0 0 -1

4 16 0.7071 1 -0.7071 0.9239 1 -0.3827 0.9239 0 -0.3827 0.7071 0 -0.7071

5 24 0.7071 0 -0.7071 0.7071 1 -0.7071 0.9239 0 -0.3827 0.3827 0 -0.9239

4 16 0.9239 1 -0.3827 1 1 0 1 0 0 0.9239 0 -0.3827

5 24 0.9239 0 -0.3827 0.9239 1 -0.3827 1 0 0 0.7071 0 -0.7071

0

0 NOFILE

0 FILE 4-4edge.dat
0 Circle 1.0

0 Name: 4-4edge.dat

0 Author: James Jessiman

0 !LDRAW_ORG Primitive UPDATE 2017-01

0 !LICENSE Licensed under CC BY 4.0 : see CAreadme.txt



0 BFC CERTIFY CCW



0 !HISTORY 1998-12-15 [PTadmin] Official Update 1998-10

0 !HISTORY 2005-12-28 [PTadmin] Official Update 2005-01

0 !HISTORY 2007-06-24 [PTadmin] Header formatted for Contributor Agreement

0 !HISTORY 2008-07-01 [PTadmin] Official Update 2008-01

0 !HISTORY 2017-01-15 [Steffen] BFCed

0 !HISTORY 2017-12-30 [PTadmin] Official Update 2017-01





2 24 1 0 0 0.9239 0 0.3827

2 24 0.9239 0 0.3827 0.7071 0 0.7071

2 24 0.7071 0 0.7071 0.3827 0 0.9239

2 24 0.3827 0 0.9239 0 0 1

2 24 0 0 1 -0.3827 0 0.9239

2 24 -0.3827 0 0.9239 -0.7071 0 0.7071

2 24 -0.7071 0 0.7071 -0.9239 0 0.3827

2 24 -0.9239 0 0.3827 -1 0 -0

2 24 -1 0 -0 -0.9239 0 -0.3827

2 24 -0.9239 0 -0.3827 -0.7071 0 -0.7071

2 24 -0.7071 0 -0.7071 -0.3827 0 -0.9239

2 24 -0.3827 0 -0.9239 0 0 -1

2 24 0 0 -1 0.3827 0 -0.9239

2 24 0.3827 0 -0.9239 0.7071 0 -0.7071

2 24 0.7071 0 -0.7071 0.9239 0 -0.3827

2 24 0.9239 0 -0.3827 1 0 0

0 NOFILE

0 FILE rect.dat
0 Rectangle

0 Name: rect.dat

0 Author: James Jessiman

0 !LDRAW_ORG Primitive UPDATE 2010-01

0 !LICENSE Licensed under CC BY 4.0 : see CAreadme.txt



0 BFC CERTIFY CCW



0 !HISTORY 2002-04-05 [hafhead] Added BFC statement

0 !HISTORY 2002-04-25 [PTadmin] Official Update 2002-02

0 !HISTORY 2007-06-24 [PTadmin] Header formatted for Contributor Agreement

0 !HISTORY 2008-07-01 [PTadmin] Official Update 2008-01

0 !HISTORY 2010-01-17 [mikeheide] changed winding to CCW

0 !HISTORY 2010-04-05 [PTadmin] Official Update 2010-01





2 24 1 0 1 -1 0 1

2 24 -1 0 1 -1 0 -1

2 24 -1 0 -1 1 0 -1

2 24 1 0 -1 1 0 1

4 16 -1 0 1 -1 0 -1 1 0 -1 1 0 1

0

0 NOFILE

0 FILE 2-4ndis.dat
0 Disc Negative 0.5

0 Name: 2-4ndis.dat

0 Author: James Jessiman

0 !LDRAW_ORG Primitive UPDATE 2012-01

0 !LICENSE Licensed under CC BY 4.0 : see CAreadme.txt



0 BFC CERTIFY CCW



0 !HISTORY 2002-03-23 [sbliss] Added BFC statement; compacted code

0 !HISTORY 2002-04-25 [PTadmin] Official Update 2002-02

0 !HISTORY 2007-06-24 [PTadmin] Header formatted for Contributor Agreement

0 !HISTORY 2008-07-01 [PTadmin] Official Update 2008-01

0 !HISTORY 2012-02-16 [Philo] Changed to CCW

0 !HISTORY 2012-03-30 [PTadmin] Official Update 2012-01





3 16 0.9239 0 0.3827 1 0 0 1 0 1

3 16 0.7071 0 0.7071 0.9239 0 0.3827 1 0 1

3 16 0.3827 0 0.9239 0.7071 0 0.7071 1 0 1

3 16 0 0 1 0.3827 0 0.9239 1 0 1

3 16 -0.3827 0 0.9239 0 0 1 -1 0 1

3 16 -0.7071 0 0.7071 -0.3827 0 0.9239 -1 0 1

3 16 -0.9239 0 0.3827 -0.7071 0 0.7071 -1 0 1

3 16 -1 0 0 -0.9239 0 0.3827 -1 0 1

0 NOFILE

0 FILE 1-4cyls2.dat
0 Cylinder Sloped 0.25 Convex

0 Name: 1-4cyls2.dat

0 Author: Chris Dee [cwdee]

0 !LDRAW_ORG Primitive UPDATE 2012-01

0 !LICENSE Licensed under CC BY 4.0 : see CAreadme.txt



0 BFC CERTIFY CCW



0 !HISTORY 1999-02-01 [PTadmin] Official Update 1999-01

0 !HISTORY 2002-07-03 [sbliss] Added BFC statement, reformatted title to fit 0.27 convention

0 !HISTORY 2002-08-18 [PTadmin] Official Update 2002-04

0 !HISTORY 2007-06-22 [PTadmin] Header formatted for Contributor Agreement

0 !HISTORY 2008-07-01 [PTadmin] Official Update 2008-01

0 !HISTORY 2012-02-16 [Philo] Changed to CCW

0 !HISTORY 2012-03-30 [PTadmin] Official Update 2012-01





3 16 -0.3827 0.3827 0.9239 -0.3827 0 0.9239 0 0 1

4 16 -0.3827 0.3827 0.9239 -0.7071 0.7071 0.7071 -0.7071 0 0.7071 -0.3827 0 0.9239

4 16 -0.7071 0.7071 0.7071 -0.9239 0.9239 0.3827 -0.9239 0 0.3827 -0.7071 0 0.7071

4 16 -0.9239 0.9239 0.3827 -1 1 0 -1 0 0 -0.9239 0 0.3827



5 24 -0.3827 0 0.9239 -0.3827 0.3827 0.9239 -0.7071 0 0.7071 0 0 1

5 24 -0.7071 0 0.7071 -0.7071 0.7071 0.7071 -0.9239 0 0.3827 -0.3827 0 0.9239

5 24 -0.9239 0 0.3827 -0.9239 0.9239 0.3827 -1 0 0 -0.7071 0 0.7071

5 24 -1 0 0 -1 1 0 -1 0 -1 -0.9239 0 0.3827

0 NOFILE

0 FILE 2-4edge.dat
0 Circle 0.5

0 Name: 2-4edge.dat

0 Author: James Jessiman

0 !LDRAW_ORG Primitive UPDATE 2017-01

0 !LICENSE Licensed under CC BY 4.0 : see CAreadme.txt



0 BFC CERTIFY CCW



0 !HISTORY 2007-06-24 [PTadmin] Header formatted for Contributor Agreement

0 !HISTORY 2008-07-01 [PTadmin] Official Update 2008-01

0 !HISTORY 2017-01-15 [Steffen] BFCed

0 !HISTORY 2017-12-30 [PTadmin] Official Update 2017-01





2 24 1 0 0 0.9239 0 0.3827

2 24 0.9239 0 0.3827 0.7071 0 0.7071

2 24 0.7071 0 0.7071 0.3827 0 0.9239

2 24 0.3827 0 0.9239 0 0 1

2 24 0 0 1 -0.3827 0 0.9239

2 24 -0.3827 0 0.9239 -0.7071 0 0.7071

2 24 -0.7071 0 0.7071 -0.9239 0 0.3827

2 24 -0.9239 0 0.3827 -1 0 0

0 NOFILE

0 FILE 2-4disc.dat
0 Disc 0.5

0 Name: 2-4disc.dat

0 Author: James Jessiman

0 !LDRAW_ORG Primitive UPDATE 2002-02

0 !LICENSE Licensed under CC BY 4.0 : see CAreadme.txt



0 BFC CERTIFY CCW



0 !HISTORY 1998-12-15 [PTadmin] Official Update 1998-10

0 !HISTORY 2002-03-23 [sbliss] Added BFC statement

0 !HISTORY 2002-04-25 [PTadmin] Official Update 2002-02

0 !HISTORY 2007-06-24 [PTadmin] Header formatted for Contributor Agreement

0 !HISTORY 2008-07-01 [PTadmin] Official Update 2008-01





3 16 0 0 0 1 0 0 0.9239 0 0.3827

3 16 0 0 0 0.9239 0 0.3827 0.7071 0 0.7071

3 16 0 0 0 0.7071 0 0.7071 0.3827 0 0.9239

3 16 0 0 0 0.3827 0 0.9239 0 0 1

3 16 0 0 0 0 0 1 -0.3827 0 0.9239

3 16 0 0 0 -0.3827 0 0.9239 -0.7071 0 0.7071

3 16 0 0 0 -0.7071 0 0.7071 -0.9239 0 0.3827

3 16 0 0 0 -0.9239 0 0.3827 -1 0 -0

0

0 NOFILE

0 FILE stud.dat
0 Stud

0 Name: stud.dat

0 Author: James Jessiman

0 !LDRAW_ORG Primitive UPDATE 2012-01

0 !LICENSE Licensed under CC BY 4.0 : see CAreadme.txt



0 BFC CERTIFY CCW



0 !HISTORY 2002-04-04 [sbliss] Modified for BFC compliance

0 !HISTORY 2002-04-25 [PTadmin] Official Update 2002-02

0 !HISTORY 2007-06-24 [PTadmin] Header formatted for Contributor Agreement

0 !HISTORY 2008-07-01 [PTadmin] Official Update 2008-01

0 !HISTORY 2012-02-16 [Philo] Changed to CCW

0 !HISTORY 2012-03-30 [PTadmin] Official Update 2012-01





1 16 0 0 0 6 0 0 0 1 0 0 0 6 4-4edge.dat

1 16 0 -4 0 6 0 0 0 1 0 0 0 6 4-4edge.dat

1 16 0 0 0 6 0 0 0 -4 0 0 0 6 4-4cyli.dat

1 16 0 -4 0 6 0 0 0 1 0 0 0 6 4-4disc.dat

0 NOFILE

0 FILE 4-4disc.dat
0 Disc 1.0

0 Name: 4-4disc.dat

0 Author: James Jessiman

0 !LDRAW_ORG Primitive UPDATE 2002-02

0 !LICENSE Licensed under CC BY 4.0 : see CAreadme.txt



0 BFC CERTIFY CCW



0 !HISTORY 1998-12-15 [PTadmin] Official Update 1998-10

0 !HISTORY 2002-03-23 [sbliss] Added BFC statement

0 !HISTORY 2002-04-25 [PTadmin] Official Update 2002-02

0 !HISTORY 2007-06-24 [PTadmin] Header formatted for Contributor Agreement

0 !HISTORY 2008-07-01 [PTadmin] Official Update 2008-01





3 16 0 0 0 1 0 0 0.9239 0 0.3827

3 16 0 0 0 0.9239 0 0.3827 0.7071 0 0.7071

3 16 0 0 0 0.7071 0 0.7071 0.3827 0 0.9239

3 16 0 0 0 0.3827 0 0.9239 0 0 1

3 16 0 0 0 0 0 1 -0.3827 0 0.9239

3 16 0 0 0 -0.3827 0 0.9239 -0.7071 0 0.7071

3 16 0 0 0 -0.7071 0 0.7071 -0.9239 0 0.3827

3 16 0 0 0 -0.9239 0 0.3827 -1 0 -0

3 16 0 0 0 -1 0 -0 -0.9239 0 -0.3827

3 16 0 0 0 -0.9239 0 -0.3827 -0.7071 0 -0.7071

3 16 0 0 0 -0.7071 0 -0.7071 -0.3827 0 -0.9239

3 16 0 0 0 -0.3827 0 -0.9239 0 0 -1

3 16 0 0 0 0 0 -1 0.3827 0 -0.9239

3 16 0 0 0 0.3827 0 -0.9239 0.7071 0 -0.7071

3 16 0 0 0 0.7071 0 -0.7071 0.9239 0 -0.3827

3 16 0 0 0 0.9239 0 -0.3827 1 0 0

0

0 NOFILE

0 FILE 22388.dat
0 Slope Brick 50  1 x  1 x  0.667 Quadruple

0 Name: 22388.dat

0 Author: Magnus Forsberg [MagFors]

0 !LDRAW_ORG Part UPDATE 2016-01

0 !LICENSE Licensed under CC BY 4.0 : see CAreadme.txt



0 BFC CERTIFY CCW



0 !HISTORY 2016-12-31 [PTadmin] Official Update 2016-01





4 16 9 0 9 6 0 6 -6 0 6 -9 0 9

4 16 -9 0 9 -6 0 6 -6 0 -6 -9 0 -9

4 16 -9 0 -9 -6 0 -6 6 0 -6 9 0 -9

4 16 9 0 -9 6 0 -6 6 0 6 9 0 9

1 16 0 -1 0 9 0 0 0 1 0 0 0 9 box4.dat

4 16 10 -1 10 9 -1 9 -9 -1 9 -10 -1 10

4 16 -10 -1 10 -9 -1 9 -9 -1 -9 -10 -1 -10

4 16 -10 -1 -10 -9 -1 -9 9 -1 -9 10 -1 -10

4 16 10 -1 -10 9 -1 -9 9 -1 9 10 -1 10

0 BFC INVERTNEXT

1 16 0 0 0 6 0 0 0 -6 0 0 0 6 box4.dat

1 16 0 -9.5 0 -3 0 0 0 -1 0 0 0 3 rect.dat

2 24 6 -6 6 3 -9.5 3

2 24 -6 -6 6 -3 -9.5 3

2 24 -6 -6 -6 -3 -9.5 -3

2 24 6 -6 -6 3 -9.5 -3

4 16 6 -6 6 3 -9.5 3 -3 -9.5 3 -6 -6 6

4 16 -6 -6 6 -3 -9.5 3 -3 -9.5 -3 -6 -6 -6

4 16 -6 -6 -6 -3 -9.5 -3 3 -9.5 -3 6 -6 -6

4 16 6 -6 -6 3 -9.5 -3 3 -9.5 3 6 -6 6

1 16 0 -1 0 -10 0 0 0 -3 0 0 0 10 box4o4a.dat

1 16 0 -16 0 10 0 10 12 1 12 -10 0 10 triangle.dat

1 16 0 -16 0 -10 0 -10 12 1 12 10 0 -10 triangle.dat

2 24 -10 -4 -10 10 -4 -10

2 24 10 -4 10 -10 -4 10

3 16 0 -16 0 -10 -4 -10 10 -4 -10

3 16 0 -16 0 10 -4 10 -10 -4 10

0 NOFILE

0 FILE triangle.dat
0 Triangle

0 Name: triangle.dat

0 Author: Steffen [Steffen]

0 !LDRAW_ORG Primitive UPDATE 2013-01

0 !LICENSE Licensed under CC BY 4.0 : see CAreadme.txt



0 BFC CERTIFY CCW



0 !HISTORY 2013-07-21 [PTadmin] Official Update 2013-01





3 16 0 0 0 1 0 0 0 0 1

2 24 0 0 0 1 0 0

2 24 1 0 0 0 0 1

2 24 0 0 1 0 0 0

0 NOFILE

0 FILE box4o4a.dat
0 Box with 4 Faces (2 Parallel Pairs) without Bottom Edges

0 Name: box4o4a.dat

0 Author: Donald Sutter [technog]

0 !LDRAW_ORG Primitive UPDATE 2012-01

0 !LICENSE Licensed under CC BY 4.0 : see CAreadme.txt



0 BFC CERTIFY CCW



0 !HISTORY 2003-08-01 [PTadmin] Official Update 2003-02

0 !HISTORY 2007-06-24 [PTadmin] Header formatted for Contributor Agreement

0 !HISTORY 2008-07-01 [PTadmin] Official Update 2008-01

0 !HISTORY 2012-02-16 [Philo] Changed to CCW

0 !HISTORY 2012-03-30 [PTadmin] Official Update 2012-01





2 24 1 0 1 -1 0 1

2 24 -1 0 1 -1 0 -1

2 24 -1 0 -1 1 0 -1

2 24 1 0 -1 1 0 1

2 24 1 0 1 1 1 1

2 24 -1 0 1 -1 1 1

2 24 1 0 -1 1 1 -1

2 24 -1 0 -1 -1 1 -1

4 16 -1 1 1 -1 0 1 1 0 1 1 1 1

4 16 -1 1 -1 -1 0 -1 -1 0 1 -1 1 1

4 16 1 1 -1 1 0 -1 -1 0 -1 -1 1 -1

4 16 1 1 1 1 0 1 1 0 -1 1 1 -1

0 NOFILE

0 FILE box4.dat
0 Box with 4 Faces (2 Parallel Pairs) and All Edges

0 Name: box4.dat

0 Author: James Jessiman

0 !LDRAW_ORG Primitive UPDATE 2012-01

0 !LICENSE Licensed under CC BY 4.0 : see CAreadme.txt



0 BFC CERTIFY CCW



0 !HISTORY 2002-04-03 [sbliss] Modified for BFC compliance

0 !HISTORY 2002-04-25 [PTadmin] Official Update 2002-02

0 !HISTORY 2007-06-24 [PTadmin] Header formatted for Contributor Agreement

0 !HISTORY 2008-07-01 [PTadmin] Official Update 2008-01

0 !HISTORY 2012-02-16 [Philo] Changed to CCW

0 !HISTORY 2012-03-30 [PTadmin] Official Update 2012-01





2 24 1 1 1 -1 1 1

2 24 -1 1 1 -1 1 -1

2 24 -1 1 -1 1 1 -1

2 24 1 1 -1 1 1 1

2 24 1 0 1 -1 0 1

2 24 -1 0 1 -1 0 -1

2 24 -1 0 -1 1 0 -1

2 24 1 0 -1 1 0 1

2 24 1 0 1 1 1 1

2 24 -1 0 1 -1 1 1

2 24 1 0 -1 1 1 -1

2 24 -1 0 -1 -1 1 -1

4 16 -1 1 1 -1 0 1 1 0 1 1 1 1

4 16 -1 1 -1 -1 0 -1 -1 0 1 -1 1 1

4 16 1 1 -1 1 0 -1 -1 0 -1 -1 1 -1

4 16 1 1 1 1 0 1 1 0 -1 1 1 -1

0 NOFILE

0 FILE 3005.dat
0 Brick  1 x  1

0 Name: 3005.dat

0 Author: James Jessiman

0 !LDRAW_ORG Part UPDATE 2022-05

0 !LICENSE Licensed under CC BY 4.0 : see CAreadme.txt



0 BFC CERTIFY CCW



0 !HISTORY 2001-10-26 [PTadmin] Official Update 2001-01

0 !HISTORY 2002-05-07 {unknown} BFC Certification

0 !HISTORY 2002-06-11 [PTadmin] Official Update 2002-03

0 !HISTORY 2007-05-07 [PTadmin] Header formatted for Contributor Agreement

0 !HISTORY 2008-07-01 [PTadmin] Official Update 2008-01

0 !HISTORY 2022-08-04 [MagFors] Using subfile

0 !HISTORY 2022-09-15 [PTadmin] Official Update 2022-05





1 16 0 0 0 1 0 0 0 1 0 0 0 1 s__3005s01.dat

4 16 -10 24 -10 10 24 -10 10 0 -10 -10 0 -10

0 NOFILE

0 FILE s__3005s01.dat
0 ~Brick  1 x  1 without Front Face

0 Name: s\3005s01.dat

0 Author: Willy Tschager [Holly-Wood]

0 !LDRAW_ORG Subpart UPDATE 2024-04

0 !LICENSE Licensed under CC BY 4.0 : see CAreadme.txt



0 BFC CERTIFY CCW



0 !HISTORY 2003-09-07 [jriley] BFCed & Subfiled

0 !HISTORY 2004-03-02 [PTadmin] Official Update 2004-01

0 !HISTORY 2007-08-29 [PTadmin] Header formatted for Contributor Agreement

0 !HISTORY 2008-07-01 [PTadmin] Official Update 2008-01

0 !HISTORY 2024-03-15 [Holly-Wood] Complete re-write, original by jriley

0 !HISTORY 2024-05-28 [OrionP] Official Update 2024-04



1 16 0 0 0 0 0 1 0 1 0 -1 0 0 stud.dat

1 16 0 24 0 -10 0 0 0 -24 0 0 0 10 box4t.dat

0 BFC INVERTNEXT

1 16 0 24 0 -6 0 0 0 -20 0 0 0 6 box5.dat



4 16 -6 24 -6 6 24 -6 10 24 -10 -10 24 -10

4 16 10 24 -10 6 24 -6 6 24 6 10 24 10

4 16 6 24 6 -6 24 6 -10 24 10 10 24 10

4 16 -10 24 10 -6 24 6 -6 24 -6 -10 24 -10

0 NOFILE

0 FILE box5.dat
0 Box with 5 Faces and All Edges

0 Name: box5.dat

0 Author: James Jessiman

0 !LDRAW_ORG Primitive UPDATE 2012-01

0 !LICENSE Licensed under CC BY 4.0 : see CAreadme.txt



0 BFC CERTIFY CCW



0 !HISTORY 2002-04-03 [sbliss] Modified for BFC compliance

0 !HISTORY 2002-04-25 [PTadmin] Official Update 2002-02

0 !HISTORY 2007-06-24 [PTadmin] Header formatted for Contributor Agreement

0 !HISTORY 2008-07-01 [PTadmin] Official Update 2008-01

0 !HISTORY 2012-02-16 [Philo] Changed to CCW

0 !HISTORY 2012-03-30 [PTadmin] Official Update 2012-01





2 24 1 1 1 -1 1 1

2 24 -1 1 1 -1 1 -1

2 24 -1 1 -1 1 1 -1

2 24 1 1 -1 1 1 1

2 24 1 0 1 -1 0 1

2 24 -1 0 1 -1 0 -1

2 24 -1 0 -1 1 0 -1

2 24 1 0 -1 1 0 1

2 24 1 0 1 1 1 1

2 24 -1 0 1 -1 1 1

2 24 1 0 -1 1 1 -1

2 24 -1 0 -1 -1 1 -1

4 16 -1 1 1 1 1 1 1 1 -1 -1 1 -1

4 16 -1 1 1 -1 0 1 1 0 1 1 1 1

4 16 -1 1 -1 -1 0 -1 -1 0 1 -1 1 1

4 16 1 1 -1 1 0 -1 -1 0 -1 -1 1 -1

4 16 1 1 1 1 0 1 1 0 -1 1 1 -1

0 NOFILE

0 FILE box4t.dat
0 Box with 4 Adjacent Faces and All Edges

0 Name: box4t.dat

0 Author: Tore Eriksson [Tore_Eriksson]

0 !LDRAW_ORG Primitive UPDATE 2003-02

0 !LICENSE Licensed under CC BY 4.0 : see CAreadme.txt



0 BFC CERTIFY CCW



0 !HISTORY 1997-09-29 [PTadmin] Official Update 1997-15

0 !HISTORY 2002-08-31 [izanette] Modified with WINDZ for BFC compliance

0 !HISTORY 2003-08-01 [PTadmin] Official Update 2003-02

0 !HISTORY 2007-06-24 [PTadmin] Header formatted for Contributor Agreement

0 !HISTORY 2008-07-01 [PTadmin] Official Update 2008-01





2 24 1 1 1 -1 1 1

2 24 -1 1 1 -1 1 -1

2 24 -1 1 -1 1 1 -1

2 24 1 1 -1 1 1 1

2 24 1 0 1 -1 0 1

2 24 -1 0 1 -1 0 -1

2 24 -1 0 -1 1 0 -1

2 24 1 0 -1 1 0 1

2 24 1 0 1 1 1 1

2 24 -1 0 1 -1 1 1

2 24 1 0 -1 1 1 -1

2 24 -1 0 -1 -1 1 -1

4 16 1 1 1 1 1 -1 -1 1 -1 -1 1 1

4 16 1 1 1 -1 1 1 -1 0 1 1 0 1

4 16 -1 1 1 -1 1 -1 -1 0 -1 -1 0 1

0 // 4 16 -1 1 -1 -1 0 -1 1 0 -1 1 1 -1

4 16 1 1 -1 1 1 1 1 0 1 1 0 -1

0

0 NOFILE

0 FILE 4733.dat
0 Brick  1 x  1 with Studs on Four Sides

0 Name: 4733.dat

0 Author: James Jessiman

0 !LDRAW_ORG Part UPDATE 2024-01

0 !LICENSE Licensed under CC BY 4.0 : see CAreadme.txt



0 BFC CERTIFY CCW



0 !KEYWORDS Travis Brick



0 !HISTORY 1998-06-20 [PTadmin] Official Update 1998-06

0 !HISTORY 2003-06-08 [jriley] BFC compliant

0 !HISTORY 2003-12-19 [PTadmin] Official Update 2003-03

0 !HISTORY 2004-07-24 [cwdee] Add "Four" to part title

0 !HISTORY 2004-11-06 [PTadmin] Official Update 2004-04

0 !HISTORY 2007-07-08 [PTadmin] Header formatted for Contributor Agreement

0 !HISTORY 2008-07-01 [PTadmin] Official Update 2008-01

0 !HISTORY 2023-04-08 [MagFors] Unmirrored stud primitives

0 !HISTORY 2024-01-29 [OrionP] Official Update 2024-01



1 16 0 12 0 10 0 0 0 12 0 0 0 10 box0.dat

1 16 0 14 0 6 0 0 0 10 0 0 0 6 box0.dat



1 16 0 4 0 4 0 0 0 -1 0 0 0 4 4-4edge.dat

1 16 6 10 0 0 -1 0 4 0 0 0 0 4 4-4edge.dat

1 16 0 10 -6 4 0 0 0 0 4 0 -1 0 4-4edge.dat

1 16 -6 10 0 0 1 0 4 0 0 0 0 4 4-4edge.dat

1 16 0 10 6 4 0 0 0 0 4 0 1 0 4-4edge.dat



1 16 0 0 0 6 0 0 0 1 0 0 0 6 4-4edge.dat

1 16 10 10 0 0 1 0 6 0 0 0 0 6 4-4edge.dat

1 16 0 10 -10 6 0 0 0 0 6 0 1 0 4-4edge.dat

1 16 -10 10 0 0 1 0 6 0 0 0 0 6 4-4edge.dat

1 16 0 10 10 6 0 0 0 0 6 0 1 0 4-4edge.dat



1 16 0 4 0 4 0 0 0 -1 0 0 0 4 4-4ndis.dat

1 16 6 10 0 0 1 0 4 0 0 0 0 4 4-4ndis.dat

1 16 0 10 -6 -4 0 0 0 0 4 0 -1 0 4-4ndis.dat

1 16 -6 10 0 0 -1 0 4 0 0 0 0 -4 4-4ndis.dat

1 16 0 10 6 4 0 0 0 0 4 0 1 0 4-4ndis.dat



1 16 0 0 0 6 0 0 0 1 0 0 0 6 4-4ndis.dat

1 16 10 10 0 0 -1 0 6 0 0 0 0 -6 4-4ndis.dat

1 16 0 10 -10 6 0 0 0 0 6 0 1 0 4-4ndis.dat

1 16 -10 10 0 0 1 0 6 0 0 0 0 6 4-4ndis.dat

1 16 0 10 10 -6 0 0 0 0 6 0 -1 0 4-4ndis.dat



0 BFC INVERTNEXT

1 16 0 0 0 4 0 0 0 4 0 0 0 4 4-4cyli.dat

0 BFC INVERTNEXT

1 16 10 10 0 0 -4 0 4 0 0 0 0 4 4-4cyli.dat

0 BFC INVERTNEXT

1 16 0 10 -10 4 0 0 0 0 4 0 4 0 4-4cyli.dat

0 BFC INVERTNEXT

1 16 -10 10 0 0 4 0 4 0 0 0 0 4 4-4cyli.dat

0 BFC INVERTNEXT

1 16 0 10 10 4 0 0 0 0 4 0 -4 0 4-4cyli.dat



4 16 10 24 10 6 24 6 -6 24 6 -10 24 10

4 16 -10 24 10 -6 24 6 -6 24 -6 -10 24 -10

4 16 -10 24 -10 -6 24 -6 6 24 -6 10 24 -10

4 16 10 24 -10 6 24 -6 6 24 6 10 24 10

4 16 6 4 6 4 4 4 -4 4 4 -6 4 6

4 16 -6 4 6 -4 4 4 -4 4 -4 -6 4 -6

4 16 -6 4 -6 -4 4 -4 4 4 -4 6 4 -6

4 16 6 4 -6 4 4 -4 4 4 4 6 4 6

4 16 -10 0 10 -6 0 6 6 0 6 10 0 10

4 16 -10 0 -10 -6 0 -6 -6 0 6 -10 0 10

4 16 10 0 -10 6 0 -6 -6 0 -6 -10 0 -10

4 16 10 0 10 6 0 6 6 0 -6 10 0 -10

4 16 -10 24 10 -6 16 10 6 16 10 10 24 10

4 16 -10 24 10 -10 0 10 -6 4 10 -6 16 10

4 16 10 0 10 6 4 10 -6 4 10 -10 0 10

4 16 10 0 10 10 24 10 6 16 10 6 4 10

4 16 6 24 6 4 14 6 -4 14 6 -6 24 6

4 16 -6 24 6 -4 14 6 -4 6 6 -6 4 6

4 16 -6 4 6 -4 6 6 4 6 6 6 4 6

4 16 6 4 6 4 6 6 4 14 6 6 24 6

4 16 -6 24 -6 -4 14 -6 4 14 -6 6 24 -6

4 16 6 24 -6 4 14 -6 4 6 -6 6 4 -6

4 16 6 4 -6 4 6 -6 -4 6 -6 -6 4 -6

4 16 -6 4 -6 -4 6 -6 -4 14 -6 -6 24 -6

4 16 10 24 -10 6 16 -10 -6 16 -10 -10 24 -10

4 16 -10 24 -10 -6 16 -10 -6 4 -10 -10 0 -10

4 16 -10 0 -10 -6 4 -10 6 4 -10 10 0 -10

4 16 10 0 -10 6 4 -10 6 16 -10 10 24 -10

4 16 10 24 10 10 16 6 10 16 -6 10 24 -10

4 16 10 24 -10 10 16 -6 10 4 -6 10 0 -10

4 16 10 0 -10 10 4 -6 10 4 6 10 0 10

4 16 10 0 10 10 4 6 10 16 6 10 24 10

4 16 6 24 -6 6 14 -4 6 14 4 6 24 6

4 16 6 24 6 6 14 4 6 6 4 6 4 6

4 16 6 4 6 6 6 4 6 6 -4 6 4 -6

4 16 6 4 -6 6 6 -4 6 14 -4 6 24 -6

4 16 -6 24 6 -6 14 4 -6 14 -4 -6 24 -6

4 16 -6 24 -6 -6 14 -4 -6 6 -4 -6 4 -6

4 16 -6 4 -6 -6 6 -4 -6 6 4 -6 4 6

4 16 -6 4 6 -6 6 4 -6 14 4 -6 24 6

4 16 -10 24 -10 -10 16 -6 -10 16 6 -10 24 10

4 16 -10 24 -10 -10 0 -10 -10 4 -6 -10 16 -6

4 16 -10 0 10 -10 4 6 -10 4 -6 -10 0 -10

4 16 -10 0 10 -10 24 10 -10 16 6 -10 4 6



1 16 0 0 0 1 0 0 0 1 0 0 0 1 stud2a.dat

1 16 10 10 0 0 -1 0 1 0 0 0 0 1 stud2a.dat

1 16 0 10 -10 0 0 1 1 0 0 0 1 0 stud2a.dat

1 16 -10 10 0 0 1 0 1 0 0 0 0 -1 stud2a.dat

1 16 0 10 10 0 0 -1 1 0 0 0 -1 0 stud2a.dat

0 NOFILE

0 FILE stud2a.dat
0 Stud Open without Base Edges

0 Name: stud2a.dat

0 Author: James Jessiman

0 !LDRAW_ORG Primitive UPDATE 2009-02

0 !LICENSE Licensed under CC BY 4.0 : see CAreadme.txt



0 BFC CERTIFY CCW



0 !HISTORY 1999-07-05 [PTadmin] Official Update 1999-05

0 !HISTORY 2002-04-04 [sbliss] Modified for BFC compliance

0 !HISTORY 2002-04-25 [PTadmin] Official Update 2002-02

0 !HISTORY 2007-06-24 [PTadmin] Header formatted for Contributor Agreement

0 !HISTORY 2008-07-01 [PTadmin] Official Update 2008-01

0 !HISTORY 2009-06-21 [cwdee] Update ring references to 4-4ring

0 !HISTORY 2009-09-03 [PTadmin] Official Update 2009-02





1 16 0 -4 0 4 0 0 0 1 0 0 0 4 4-4edge.dat

1 16 0 -4 0 6 0 0 0 1 0 0 0 6 4-4edge.dat

0 BFC INVERTNEXT

1 16 0 -4 0 4 0 0 0 4 0 0 0 4 4-4cyli.dat

1 16 0 -4 0 6 0 0 0 4 0 0 0 6 4-4cyli.dat

1 16 0 -4 0 2 0 0 0 1 0 0 0 2 4-4ring2.dat

0

0 NOFILE

0 FILE 4-4ring2.dat
0 Ring  2 x 1.0

0 Name: 4-4ring2.dat

0 Author: James Jessiman

0 !LDRAW_ORG Primitive UPDATE 2009-01

0 !LICENSE Licensed under CC BY 4.0 : see CAreadme.txt



0 BFC CERTIFY CCW



0 !HISTORY 1998-12-15 [PTadmin] Official Update 1998-10

0 !HISTORY 2002-04-05 [hafhead] Added BFC statement

0 !HISTORY 2002-04-25 [PTadmin] Official Update 2002-02

0 !HISTORY 2007-06-24 [PTadmin] Header formatted for Contributor Agreement

0 !HISTORY 2008-07-01 [PTadmin] Official Update 2008-01

0 !HISTORY 2008-08-26 [cwdee] Switch polygon winding and rename

0 !HISTORY 2009-05-02 [PTadmin] Official Update 2009-01





4 16 -1.1481 0 2.7717 -0.7654 0 1.8478 0 0 2 0 0 3

4 16 -2.1213 0 2.1213 -1.4142 0 1.4142 -0.7654 0 1.8478 -1.1481 0 2.7717

4 16 -2.7717 0 1.1481 -1.8478 0 0.7654 -1.4142 0 1.4142 -2.1213 0 2.1213

4 16 -3 0 0 -2 0 0 -1.8478 0 0.7654 -2.7717 0 1.1481

4 16 -2.7717 0 -1.1481 -1.8478 0 -0.7654 -2 0 0 -3 0 0

4 16 -2.1213 0 -2.1213 -1.4142 0 -1.4142 -1.8478 0 -0.7654 -2.7717 0 -1.1481

4 16 -1.1481 0 -2.7717 -0.7654 0 -1.8478 -1.4142 0 -1.4142 -2.1213 0 -2.1213

4 16 0 0 -3 0 0 -2 -0.7654 0 -1.8478 -1.1481 0 -2.7717

4 16 1.1481 0 -2.7717 0.7654 0 -1.8478 0 0 -2 0 0 -3

4 16 2.1213 0 -2.1213 1.4142 0 -1.4142 0.7654 0 -1.8478 1.1481 0 -2.7717

4 16 2.7717 0 -1.1481 1.8478 0 -0.7654 1.4142 0 -1.4142 2.1213 0 -2.1213

4 16 3 0 0 2 0 0 1.8478 0 -0.7654 2.7717 0 -1.1481

4 16 2.7717 0 1.1481 1.8478 0 0.7654 2 0 0 3 0 0

4 16 2.1213 0 2.1213 1.4142 0 1.4142 1.8478 0 0.7654 2.7717 0 1.1481

4 16 1.1481 0 2.7717 0.7654 0 1.8478 1.4142 0 1.4142 2.1213 0 2.1213

4 16 0 0 3 0 0 2 0.7654 0 1.8478 1.1481 0 2.7717

0

0 NOFILE

0 FILE 4-4ndis.dat
0 Disc Negative 1.0

0 Name: 4-4ndis.dat

0 Author: James Jessiman

0 !LDRAW_ORG Primitive UPDATE 2012-01

0 !LICENSE Licensed under CC BY 4.0 : see CAreadme.txt



0 BFC CERTIFY CCW



0 !HISTORY 2002-03-23 [sbliss] Added BFC statement; compacted code

0 !HISTORY 2002-04-25 [PTadmin] Official Update 2002-02

0 !HISTORY 2007-06-24 [PTadmin] Header formatted for Contributor Agreement

0 !HISTORY 2008-07-01 [PTadmin] Official Update 2008-01

0 !HISTORY 2012-02-16 [Philo] Changed to CCW

0 !HISTORY 2012-03-30 [PTadmin] Official Update 2012-01





3 16 0.9239 0 0.3827 1 0 0 1 0 1

3 16 0.7071 0 0.7071 0.9239 0 0.3827 1 0 1

3 16 0.3827 0 0.9239 0.7071 0 0.7071 1 0 1

3 16 0 0 1 0.3827 0 0.9239 1 0 1

3 16 -0.3827 0 0.9239 0 0 1 -1 0 1

3 16 -0.7071 0 0.7071 -0.3827 0 0.9239 -1 0 1

3 16 -0.9239 0 0.3827 -0.7071 0 0.7071 -1 0 1

3 16 -1 0 0 -0.9239 0 0.3827 -1 0 1

3 16 -0.9239 0 -0.3827 -1 0 0 -1 0 -1

3 16 -0.7071 0 -0.7071 -0.9239 0 -0.3827 -1 0 -1

3 16 -0.3827 0 -0.9239 -0.7071 0 -0.7071 -1 0 -1

3 16 0 0 -1 -0.3827 0 -0.9239 -1 0 -1

3 16 0.3827 0 -0.9239 0 0 -1 1 0 -1

3 16 0.7071 0 -0.7071 0.3827 0 -0.9239 1 0 -1

3 16 0.9239 0 -0.3827 0.7071 0 -0.7071 1 0 -1

3 16 1 0 0 0.9239 0 -0.3827 1 0 -1

0 NOFILE

0 FILE box0.dat
0 Box with 0 Faces and All Edges

0 Name: box0.dat

0 Author: Santeri Piippo [arezey]

0 !LDRAW_ORG Primitive UPDATE 2010-02

0 !LICENSE Licensed under CC BY 4.0 : see CAreadme.txt



0 BFC CERTIFY CCW



0 !HISTORY 2010-07-05 [PTadmin] Official Update 2010-02





2 24 -1 1 -1 1 1 -1

2 24 -1 -1 -1 1 -1 -1

2 24 1 1 1 1 1 -1

2 24 1 -1 1 1 -1 -1

2 24 -1 1 1 -1 1 -1

2 24 -1 -1 1 -1 -1 -1

2 24 1 1 1 -1 1 1

2 24 1 -1 1 -1 -1 1

2 24 1 -1 1 1 1 1

2 24 -1 -1 1 -1 1 1

2 24 -1 -1 -1 -1 1 -1

2 24 1 -1 -1 1 1 -1

0 //

0 NOFILE

0 FILE 2341.dat
0 Slope Brick 45  3 x  1 Inverted Double without Inner Stopper Rings

0 Name: 2341.dat

0 Author: James Jessiman

0 !LDRAW_ORG Part UPDATE 2022-04

0 !LICENSE Licensed under CC BY 4.0 : see CAreadme.txt



0 BFC CERTIFY CCW



0 !HISTORY 2002-09-13 [izanette] Modified with WINDZ for BFC compliance

0 !HISTORY 2003-12-19 [PTadmin] Official Update 2003-03

0 !HISTORY 2004-03-02 [PTadmin] Official Update 2004-01

0 !HISTORY 2007-05-12 [PTadmin] Header formatted for Contributor Agreement

0 !HISTORY 2008-07-01 [PTadmin] Official Update 2008-01

0 !HISTORY 2008-10-11 [mkennedy] Made use of stud2s and more box and rect primitives

0 !HISTORY 2009-12-29 [PTadmin] Official Update 2009-03

0 !HISTORY 2016-01-15 [cwdee] Qualify description

0 !HISTORY 2016-12-31 [PTadmin] Official Update 2016-01

0 !HISTORY 2019-08-19 [GeraldLasser] Subfiled for Patterns

0 !HISTORY 2022-07-18 [PTadmin] Official Update 2022-04





1 16 0 0 0 1 0 0 0 1 0 0 0 1 s__2341s01.dat



4 16 10 0 30 10 0 -30 10 4 -30 10 4 30

4 16 10 4 -30 10 24 -10 10 24 10 10 4 30

0 NOFILE

0 FILE s__2341s01.dat
0 ~Slope Brick 45  3 x  1 Inverted Double without Inner Stopper Rings without Patternable Area

0 Name: s\2341s01.dat

0 Author: Gerald Lasser [GeraldLasser]

0 !LDRAW_ORG Subpart UPDATE 2022-04

0 !LICENSE Licensed under CC BY 4.0 : see CAreadme.txt



0 BFC CERTIFY CCW



0 !HISTORY 2022-07-18 [PTadmin] Official Update 2022-04





0 BFC INVERTNEXT

1 16 0 24 0 6 0 0 0 -20 0 0 0 6 box5.dat

1 16 10 2 0 0 -20 0 2 0 0 0 0 30 box3u5p.dat

1 16 0 14 20 10 0 0 0 -1 -10 0 0 10 rect.dat

1 16 0 14 -20 10 0 0 0 -1 10 0 0 10 rect.dat

4 16 6 24 6 -6 24 6 -10 24 10 10 24 10

4 16 -6 24 6 -6 24 -6 -10 24 -10 -10 24 10

4 16 -6 24 -6 6 24 -6 10 24 -10 -10 24 -10

4 16 6 24 -6 6 24 6 10 24 10 10 24 -10



2 24 10 24 -10 10 24 10

2 24 -10 24 -10 -10 24 10

2 24 -8 0 -10 -8 0 -26

2 24 8 0 -26 8 0 -10

2 24 -8 0 10 -8 0 26

2 24 8 0 26 8 0 10



4 16 -10 4 -30 -10 4 30 -10 24 10 -10 24 -10



4 16 8 4 -26 8 0 -26 8 0 -10 8 20 -10

4 16 -8 0 -10 -8 0 -26 -8 4 -26 -8 20 -10

4 16 8 0 10 8 0 26 8 4 26 8 20 10

4 16 -8 4 26 -8 0 26 -8 0 10 -8 20 10

0

4 16 -10 0 30 -8 0 26 8 0 26 10 0 30

3 16 -10 0 -30 -8 0 -26 -8 0 -10

3 16 -8 0 10 -8 0 26 -10 0 30

4 16 -8 0 -10 -8 0 10 -10 0 30 -10 0 -30

4 16 10 0 -30 8 0 -26 -8 0 -26 -10 0 -30

3 16 10 0 30 8 0 26 8 0 10

3 16 8 0 -26 10 0 -30 8 0 -10

4 16 10 0 30 8 0 10 8 0 -10 10 0 -30

4 16 -8 0 10 -8 0 -10 8 0 -10 8 0 10

0

1 16 0 4 20 1 0 0 0 2 0 0 0 1 stud2a.dat

1 16 0 4 20 0 0 1 0 6 0 1 0 0 stud2s.dat

1 16 0 0 0 1 0 0 0 1 0 0 0 1 stud.dat

1 16 0 4 -20 1 0 0 0 2 0 0 0 1 stud2a.dat

1 16 0 4 -20 0 0 1 0 6 0 -1 0 0 stud2s.dat

0 BFC INVERTNEXT

1 16 0 10 -18 8 0 0 0 2 -8 0 0 -8 box2-5.dat

1 16 0 10 -10 8 0 0 0 0 -10 0 1 0 rect3.dat

0 BFC INVERTNEXT

1 16 0 10 18 8 0 0 0 2 -8 0 0 8 box2-5.dat

1 16 0 10 10 8 0 0 0 0 -10 0 -1 0 rect3.dat

2 24 10 0 -30 10 0 30

0 NOFILE

0 FILE rect3.dat
0 Rectangle with 3 Edges

0 Name: rect3.dat

0 Author: Mark Kennedy [mkennedy]

0 !LDRAW_ORG Primitive UPDATE 2010-01

0 !LICENSE Licensed under CC BY 4.0 : see CAreadme.txt



0 BFC CERTIFY CCW



0 !HISTORY 2003-08-01 [PTadmin] Official Update 2003-02

0 !HISTORY 2007-06-24 [PTadmin] Header formatted for Contributor Agreement

0 !HISTORY 2008-07-01 [PTadmin] Official Update 2008-01

0 !HISTORY 2010-01-17 [mikeheide] Change winding to CCW

0 !HISTORY 2010-04-05 [PTadmin] Official Update 2010-01





2 24 1 0 1 -1 0 1

2 24 1 0 1 1 0 -1

2 24 -1 0 1 -1 0 -1

4 16 -1 0 1 -1 0 -1 1 0 -1 1 0 1

0 //

0 NOFILE

0 FILE box2-5.dat
0 Box with 2 Faces without 5 Edges

0 Name: box2-5.dat

0 Author: Steffen [Steffen]

0 !LDRAW_ORG Primitive UPDATE 2003-03

0 !LICENSE Licensed under CC BY 4.0 : see CAreadme.txt



0 BFC CERTIFY CCW



0 !HISTORY 2003-12-19 [PTadmin] Official Update 2003-03

0 !HISTORY 2007-06-24 [PTadmin] Header formatted for Contributor Agreement

0 !HISTORY 2008-07-01 [PTadmin] Official Update 2008-01





2 24 1 1 1 -1 1 1

2 24 1 1 -1 -1 1 -1

2 24 1 -1 1 -1 -1 1

2 24 -1 -1 1 -1 1 1

2 24 1 -1 1 1 1 1

2 24 -1 1 -1 -1 1 1

2 24 1 1 -1 1 1 1

4 16 1 1 1 1 1 -1 -1 1 -1 -1 1 1

4 16 1 1 1 -1 1 1 -1 -1 1 1 -1 1

0

0 NOFILE

0 FILE stud2s.dat
0 Stud Tube Open Sliced

0 Name: stud2s.dat

0 Author: Willy Tschager [Holly-Wood]

0 !LDRAW_ORG Primitive UPDATE 2024-01

0 !LICENSE Licensed under CC BY 4.0 : see CAreadme.txt



0 BFC CERTIFY CCW



0 !HISTORY 2006-02-20 [guyvivan] Adjust precision

0 !HISTORY 2009-12-29 [PTadmin] Official Update 2009-03

0 !HISTORY 2024-01-20 [Holly-Wood] Complete re-write, original by DeannaEarley

0 !HISTORY 2024-01-29 [OrionP] Official Update 2024-01



0 // Edges

1 16 0 1 0 4 0 0 -0.667 1 0 0 0 4 4-4edge.dat

1 16 0 1 0 6 0 0 -1 1 0 0 0 6 4-4edge.dat



0 // Faces

0 BFC INVERTNEXT

1 16 0 0 0 4 0 0 0 0.333 0 0 0 4 4-4cyli.dat

0 BFC INVERTNEXT

1 16 0 0.333 0 4 0 0 0 0.667 0 0 0 4 4-4cyls.dat

1 16 0 0 0 6 0 0 0 1 0 0 0 6 4-4cyls.dat

0 NOFILE

0 FILE 4-4cyls.dat
0 Cylinder Sloped 1.0

0 Name: 4-4cyls.dat

0 Author: Donald Sutter [technog]

0 !LDRAW_ORG Primitive UPDATE 2012-01

0 !LICENSE Licensed under CC BY 4.0 : see CAreadme.txt



0 BFC CERTIFY CCW



0 !HISTORY 2003-08-01 [PTadmin] Official Update 2003-02

0 !HISTORY 2007-06-24 [PTadmin] Header formatted for Contributor Agreement

0 !HISTORY 2008-07-01 [PTadmin] Official Update 2008-01

0 !HISTORY 2012-02-16 [Philo] Changed to CCW

0 !HISTORY 2012-03-30 [PTadmin] Official Update 2012-01





3 16 0.9239 0.0761 0.3827 0.9239 0 0.3827 1 0 0

5 24 0.9239 0 0.3827 0.9239 0.0761 0.3827 0.7071 0 0.7071 1 0 0

4 16 0.9239 0.0761 0.3827 0.7071 0.2929 0.7071 0.7071 0 0.7071 0.9239 0 0.3827

5 24 0.7071 0 0.7071 0.7071 0.2929 0.7071 0.3827 0 0.9239 0.9239 0 0.3827

4 16 0.7071 0.2929 0.7071 0.3827 0.6173 0.9239 0.3827 0 0.9239 0.7071 0 0.7071

5 24 0.3827 0 0.9239 0.3827 0.6173 0.9239 0 0 1 0.7071 0 0.7071

4 16 0.3827 0.6173 0.9239 0 1 1 0 0 1 0.3827 0 0.9239

5 24 0 0 1 0 1 1 -0.3827 0 0.9239 0.3827 0 0.9239

4 16 0 1 1 -0.3827 1.3827 0.9239 -0.3827 0 0.9239 0 0 1

5 24 -0.3827 0 0.9239 -0.3827 1.3827 0.9239 -0.7071 0 0.7071 0 0 1

4 16 -0.3827 1.3827 0.9239 -0.7071 1.7071 0.7071 -0.7071 0 0.7071 -0.3827 0 0.9239

5 24 -0.7071 0 0.7071 -0.7071 1.7071 0.7071 -0.9239 0 0.3827 -0.3827 0 0.9239

4 16 -0.7071 1.7071 0.7071 -0.9239 1.9239 0.3827 -0.9239 0 0.3827 -0.7071 0 0.7071

5 24 -0.9239 0 0.3827 -0.9239 1.9239 0.3827 -1 0 0 -0.7071 0 0.7071

4 16 -0.9239 1.9239 0.3827 -1 2 0 -1 0 0 -0.9239 0 0.3827

5 24 -1 0 0 -1 2 0 -0.9239 0 -0.3827 -0.9239 0 0.3827

4 16 -1 2 0 -0.9239 1.9239 -0.3827 -0.9239 0 -0.3827 -1 0 0

5 24 -0.9239 0 -0.3827 -0.9239 1.9239 -0.3827 -1 0 0 -0.7071 0 -0.7071

4 16 -0.9239 1.9239 -0.3827 -0.7071 1.7071 -0.7071 -0.7071 0 -0.7071 -0.9239 0 -0.3827

5 24 -0.7071 0 -0.7071 -0.7071 1.7071 -0.7071 -0.9239 0 -0.3827 -0.3827 0 -0.9239

4 16 -0.7071 1.7071 -0.7071 -0.3827 1.3827 -0.9239 -0.3827 0 -0.9239 -0.7071 0 -0.7071

5 24 -0.3827 0 -0.9239 -0.3827 1.3827 -0.9239 -0.7071 0 -0.7071 0 0 -1

4 16 -0.3827 1.3827 -0.9239 0 1 -1 0 0 -1 -0.3827 0 -0.9239

5 24 0 0 -1 0 1 -1 -0.3827 0 -0.9239 0.3827 0 -0.9239

4 16 0 1 -1 0.3827 0.6173 -0.9239 0.3827 0 -0.9239 0 0 -1

5 24 0.3827 0 -0.9239 0.3827 0.6173 -0.9239 0 0 -1 0.7071 0 -0.7071

4 16 0.3827 0.6173 -0.9239 0.7071 0.2929 -0.7071 0.7071 0 -0.7071 0.3827 0 -0.9239

5 24 0.7071 0 -0.7071 0.7071 0.2929 -0.7071 0.3827 0 -0.9239 0.9239 0 -0.3827

4 16 0.7071 0.2929 -0.7071 0.9239 0.0761 -0.3827 0.9239 0 -0.3827 0.7071 0 -0.7071

5 24 0.9239 0 -0.3827 0.9239 0.0761 -0.3827 0.7071 0 -0.7071 1 0 0

3 16 0.9239 0 -0.3827 0.9239 0.0761 -0.3827 1 0 0

0 NOFILE

0 FILE box3u5p.dat
0 Box with  3 Faces without  5 Edges

0 Name: box3u5p.dat

0 Author: Willy Tschager [Holly-Wood]

0 !LDRAW_ORG Primitive UPDATE 2024-01

0 !LICENSE Licensed under CC BY 4.0 : see CAreadme.txt



0 BFC CERTIFY CCW



0 !HISTORY 2009-09-03 [PTadmin] Official Update 2009-02

0 !HISTORY 2024-01-02 [Holly-Wood] Complete re-write, original by WilliamH

0 !HISTORY 2024-01-29 [OrionP] Official Update 2024-01



2 24 1 1 -1 -1 1 -1

2 24 1 0 -1 -1 0 -1

4 16 -1 0 -1 -1 1 -1 1 1 -1 1 0 -1



2 24 -1 1 1 1 1 1

2 24 -1 0 1 1 0 1

4 16 1 0 1 1 1 1 -1 1 1 -1 0 1



2 24 -1 1 1 -1 1 -1

4 16 1 1 1 1 1 -1 -1 1 -1 -1 1 1



2 24 -1 0 1 -1 1 1

2 24 -1 0 -1 -1 1 -1

0 NOFILE

0 FILE 11610.dat
0 Cone  1 x  1 Inverted with Shaft

0 Name: 11610.dat

0 Author: Owen Burgoyne [C3POwen]

0 !LDRAW_ORG Part UPDATE 2013-01

0 !LICENSE Licensed under CC BY 4.0 : see CAreadme.txt



0 !HELP Centre of shaft at +Y 26

0 !HELP Central hole narrows at +Y 14.5



0 BFC CERTIFY CCW



0 !KEYWORDS Friends, ice cream cone



0 !HISTORY 2013-07-21 [PTadmin] Official Update 2013-01





1 16 0 32.5 0 4 0 0 0 -13 0 0 0 -4 4-4cylc.dat

1 16 0 19.5 0 1 0 0 0 -1 0 0 0 -1 4-4ring4.dat

1 16 0 19.5 0 5 0 0 0 1 0 0 0 5 4-4edge.dat

1 16 0 19.5 0 1 0 0 0 1 0 0 0 1 4-4disc.dat

1 16 0 19.5 0 1 0 0 0 1 0 0 0 1 4-4edge.dat

0 BFC INVERTNEXT

1 16 0 18.5 0 0.5 0 0 0 1 0 0 0 0.5 4-4con2.dat

0 BFC INVERTNEXT

1 16 0 15.5 0 1.5 0 0 0 3 0 0 0 1.5 4-4con1.dat

0 BFC INVERTNEXT

1 16 0 14.5 0 0.5 0 0 0 1 0 0 0 0.5 4-4con6.dat

1 16 0 14.5 0 3.5 0 0 0 1 0 0 0 3.5 4-4edge.dat

0 BFC INVERTNEXT

1 16 0 0 0 3.5 0 0 0 14.5 0 0 0 3.5 4-4cyli.dat

1 16 0 0 0 3.5 0 0 0 1 0 0 0 3.5 4-4edge.dat

1 16 0 0 0 5 0 0 0 19.5 0 0 0 5 4-4con1.dat

1 16 0 0 0 10 0 0 0 1 0 0 0 10 4-4edge.dat

1 16 0 0 0 0.5 0 0 0 1 0 0 0 0.5 4-4ring7.dat

1 16 0 0 0 2 0 0 0 1 0 0 0 2 4-4ring3.dat

1 16 0 0 0 2 0 0 0 1 0 0 0 2 4-4ring4.dat

1 16 0 0 0 1 0 0 0 1 0 0 0 1 stud2a.dat

1 16 0 0 0 4 0 0 0 1 0 0 0 4 4-4edge.dat

1 16 0 0 0 6 0 0 0 1 0 0 0 6 4-4edge.dat

0 NOFILE

0 FILE 4-4ring7.dat
0 Ring  7 x 1.0

0 Name: 4-4ring7.dat

0 Author: James Jessiman

0 !LDRAW_ORG Primitive UPDATE 2009-01

0 !LICENSE Licensed under CC BY 4.0 : see CAreadme.txt



0 BFC CERTIFY CCW



0 !HISTORY 1998-12-15 [PTadmin] Official Update 1998-10

0 !HISTORY 2002-04-05 [hafhead] Added BFC statement

0 !HISTORY 2002-04-25 [PTadmin] Official Update 2002-02

0 !HISTORY 2007-06-24 [PTadmin] Header formatted for Contributor Agreement

0 !HISTORY 2008-07-01 [PTadmin] Official Update 2008-01

0 !HISTORY 2008-08-26 [cwdee] Switch polygon winding and rename

0 !HISTORY 2009-05-02 [PTadmin] Official Update 2009-01





4 16 -3.0616 0 7.3912 -2.6789 0 6.4673 0 0 7 0 0 8

4 16 -5.6568 0 5.6568 -4.9497 0 4.9497 -2.6789 0 6.4673 -3.0616 0 7.3912

4 16 -7.3912 0 3.0616 -6.4673 0 2.6789 -4.9497 0 4.9497 -5.6568 0 5.6568

4 16 -8 0 0 -7 0 0 -6.4673 0 2.6789 -7.3912 0 3.0616

4 16 -7.3912 0 -3.0616 -6.4673 0 -2.6789 -7 0 0 -8 0 0

4 16 -5.6568 0 -5.6568 -4.9497 0 -4.9497 -6.4673 0 -2.6789 -7.3912 0 -3.0616

4 16 -3.0616 0 -7.3912 -2.6789 0 -6.4673 -4.9497 0 -4.9497 -5.6568 0 -5.6568

4 16 0 0 -8 0 0 -7 -2.6789 0 -6.4673 -3.0616 0 -7.3912

4 16 3.0616 0 -7.3912 2.6789 0 -6.4673 0 0 -7 0 0 -8

4 16 5.6568 0 -5.6568 4.9497 0 -4.9497 2.6789 0 -6.4673 3.0616 0 -7.3912

4 16 7.3912 0 -3.0616 6.4673 0 -2.6789 4.9497 0 -4.9497 5.6568 0 -5.6568

4 16 8 0 0 7 0 0 6.4673 0 -2.6789 7.3912 0 -3.0616

4 16 7.3912 0 3.0616 6.4673 0 2.6789 7 0 0 8 0 0

4 16 5.6568 0 5.6568 4.9497 0 4.9497 6.4673 0 2.6789 7.3912 0 3.0616

4 16 3.0616 0 7.3912 2.6789 0 6.4673 4.9497 0 4.9497 5.6568 0 5.6568

4 16 0 0 8 0 0 7 2.6789 0 6.4673 3.0616 0 7.3912

0

0 NOFILE

0 FILE 4-4con6.dat
0 Cone  6 x 1.0

0 Name: 4-4con6.dat

0 Author: Niels Karsdorp [nielsk]

0 !LDRAW_ORG Primitive UPDATE 2004-04

0 !LICENSE Licensed under CC BY 4.0 : see CAreadme.txt



0 BFC CERTIFY CCW



0 !HISTORY 2004-11-06 [PTadmin] Official Update 2004-04

0 !HISTORY 2007-06-24 [PTadmin] Header formatted for Contributor Agreement

0 !HISTORY 2008-07-01 [PTadmin] Official Update 2008-01





5 24 6 1 0 7 0 0 5.5434 1 2.2962 5.5434 1 -2.2962

5 24 5.5434 1 2.2962 6.4673 0 2.6789 4.2426 1 4.2426 6 1 0

5 24 4.2426 1 4.2426 4.9497 0 4.9497 2.2962 1 5.5434 5.5434 1 2.2962

5 24 2.2962 1 5.5434 2.6789 0 6.4673 0 1 6 4.2426 1 4.2426

5 24 0 1 6 0 0 7 -2.2962 1 5.5434 2.2962 1 5.5434

5 24 -2.2962 1 5.5434 -2.6789 0 6.4673 -4.2426 1 4.2426 0 1 6

5 24 -4.2426 1 4.2426 -4.9497 0 4.9497 -5.5434 1 2.2962 -2.2962 1 5.5434

5 24 -5.5434 1 2.2962 -6.4673 0 2.6789 -6 1 0 -4.2426 1 4.2426

5 24 -6 1 0 -7 0 0 -5.5434 1 -2.2962 -5.5434 1 2.2962

5 24 -5.5434 1 -2.2962 -6.4673 0 -2.6789 -4.2426 1 -4.2426 -6 1 0

5 24 -4.2426 1 -4.2426 -4.9497 0 -4.9497 -2.2962 1 -5.5434 -5.5434 1 -2.2962

5 24 -2.2962 1 -5.5434 -2.6789 0 -6.4673 0 1 -6 -4.2426 1 -4.2426

5 24 0 1 -6 0 0 -7 2.2962 1 -5.5434 -2.2962 1 -5.5434

5 24 2.2962 1 -5.5434 2.6789 0 -6.4673 4.2426 1 -4.2426 0 1 -6

5 24 4.2426 1 -4.2426 4.9497 0 -4.9497 5.5434 1 -2.2962 2.2962 1 -5.5434

5 24 5.5434 1 -2.2962 6.4673 0 -2.6789 6 1 0 4.2426 1 -4.2426



4 16 6 1 0 5.5434 1 2.2962 6.4673 0 2.6789 7 0 0

4 16 5.5434 1 2.2962 4.2426 1 4.2426 4.9497 0 4.9497 6.4673 0 2.6789

4 16 4.2426 1 4.2426 2.2962 1 5.5434 2.6789 0 6.4673 4.9497 0 4.9497

4 16 2.2962 1 5.5434 0 1 6 0 0 7 2.6789 0 6.4673

4 16 0 1 6 -2.2962 1 5.5434 -2.6789 0 6.4673 0 0 7

4 16 -2.2962 1 5.5434 -4.2426 1 4.2426 -4.9497 0 4.9497 -2.6789 0 6.4673

4 16 -4.2426 1 4.2426 -5.5434 1 2.2962 -6.4673 0 2.6789 -4.9497 0 4.9497

4 16 -5.5434 1 2.2962 -6 1 0 -7 0 0 -6.4673 0 2.6789

4 16 -6 1 0 -5.5434 1 -2.2962 -6.4673 0 -2.6789 -7 0 0

4 16 -5.5434 1 -2.2962 -4.2426 1 -4.2426 -4.9497 0 -4.9497 -6.4673 0 -2.6789

4 16 -4.2426 1 -4.2426 -2.2962 1 -5.5434 -2.6789 0 -6.4673 -4.9497 0 -4.9497

4 16 -2.2962 1 -5.5434 0 1 -6 0 0 -7 -2.6789 0 -6.4673

4 16 0 1 -6 2.2962 1 -5.5434 2.6789 0 -6.4673 0 0 -7

4 16 2.2962 1 -5.5434 4.2426 1 -4.2426 4.9497 0 -4.9497 2.6789 0 -6.4673

4 16 4.2426 1 -4.2426 5.5434 1 -2.2962 6.4673 0 -2.6789 4.9497 0 -4.9497

4 16 5.5434 1 -2.2962 6 1 0 7 0 0 6.4673 0 -2.6789



0



0 NOFILE

0 FILE 4-4con1.dat
0 Cone  1 x 1.0

0 Name: 4-4con1.dat

0 Author: Steve Bliss [sbliss]

0 !LDRAW_ORG Primitive UPDATE 2012-01

0 !LICENSE Licensed under CC BY 4.0 : see CAreadme.txt



0 BFC CERTIFY CCW



0 !HISTORY 1999-08-19 [sbliss] Renamed 4-4con12.dat to 4-4con1.dat, Moved all conditional lines before quads

0 !HISTORY 2000-05-07 [PTadmin] Official Update 2000-01

0 !HISTORY 2002-12-11 [cwdee] Standardised title and made BFC compliant

0 !HISTORY 2003-08-01 [PTadmin] Official Update 2003-02

0 !HISTORY 2007-06-24 [PTadmin] Header formatted for Contributor Agreement

0 !HISTORY 2008-07-01 [PTadmin] Official Update 2008-01

0 !HISTORY 2012-02-16 [Philo] Changed to CCW, reordered

0 !HISTORY 2012-03-30 [PTadmin] Official Update 2012-01





5 24 1 1 0 2 0 0 0.9239 1 -0.3827 0.9239 1 0.3827

5 24 0.9239 1 0.3827 1.8478 0 0.7654 1 1 0 0.7071 1 0.7071

5 24 0.7071 1 0.7071 1.4142 0 1.4142 0.9239 1 0.3827 0.3827 1 0.9239

5 24 0.3827 1 0.9239 0.7654 0 1.8478 0.7071 1 0.7071 0 1 1

5 24 0 1 1 0 0 2 0.3827 1 0.9239 -0.3827 1 0.9239

5 24 -0.3827 1 0.9239 -0.7654 0 1.8478 0 1 1 -0.7071 1 0.7071

5 24 -0.7071 1 0.7071 -1.4142 0 1.4142 -0.3827 1 0.9239 -0.9239 1 0.3827

5 24 -0.9239 1 0.3827 -1.8478 0 0.7654 -0.7071 1 0.7071 -1 1 0

5 24 -1 1 0 -2 0 0 -0.9239 1 0.3827 -0.9239 1 -0.3827

5 24 -0.9239 1 -0.3827 -1.8478 0 -0.7654 -1 1 0 -0.7071 1 -0.7071

5 24 -0.7071 1 -0.7071 -1.4142 0 -1.4142 -0.9239 1 -0.3827 -0.3827 1 -0.9239

5 24 -0.3827 1 -0.9239 -0.7654 0 -1.8478 -0.7071 1 -0.7071 0 1 -1

5 24 0 1 -1 0 0 -2 -0.3827 1 -0.9239 0.3827 1 -0.9239

5 24 0.3827 1 -0.9239 0.7654 0 -1.8478 0 1 -1 0.7071 1 -0.7071

5 24 0.7071 1 -0.7071 1.4142 0 -1.4142 0.3827 1 -0.9239 0.9239 1 -0.3827

5 24 0.9239 1 -0.3827 1.8478 0 -0.7654 0.7071 1 -0.7071 1 1 0



4 16 2 0 0 1 1 0 0.9239 1 0.3827 1.8478 0 0.7654

4 16 1.8478 0 0.7654 0.9239 1 0.3827 0.7071 1 0.7071 1.4142 0 1.4142

4 16 1.4142 0 1.4142 0.7071 1 0.7071 0.3827 1 0.9239 0.7654 0 1.8478

4 16 0.7654 0 1.8478 0.3827 1 0.9239 0 1 1 0 0 2

4 16 0 0 2 0 1 1 -0.3827 1 0.9239 -0.7654 0 1.8478

4 16 -0.7654 0 1.8478 -0.3827 1 0.9239 -0.7071 1 0.7071 -1.4142 0 1.4142

4 16 -1.4142 0 1.4142 -0.7071 1 0.7071 -0.9239 1 0.3827 -1.8478 0 0.7654

4 16 -1.8478 0 0.7654 -0.9239 1 0.3827 -1 1 0 -2 0 0

4 16 -2 0 0 -1 1 0 -0.9239 1 -0.3827 -1.8478 0 -0.7654

4 16 -1.8478 0 -0.7654 -0.9239 1 -0.3827 -0.7071 1 -0.7071 -1.4142 0 -1.4142

4 16 -1.4142 0 -1.4142 -0.7071 1 -0.7071 -0.3827 1 -0.9239 -0.7654 0 -1.8478

4 16 -0.7654 0 -1.8478 -0.3827 1 -0.9239 0 1 -1 0 0 -2

4 16 0 0 -2 0 1 -1 0.3827 1 -0.9239 0.7654 0 -1.8478

4 16 0.7654 0 -1.8478 0.3827 1 -0.9239 0.7071 1 -0.7071 1.4142 0 -1.4142

4 16 1.4142 0 -1.4142 0.7071 1 -0.7071 0.9239 1 -0.3827 1.8478 0 -0.7654

4 16 1.8478 0 -0.7654 0.9239 1 -0.3827 1 1 0 2 0 0

0 NOFILE

0 FILE 4-4con2.dat
0 Cone  2 x 1.0

0 Name: 4-4con2.dat

0 Author: Willy Tschager [Holly-Wood]

0 !LDRAW_ORG Primitive UPDATE 2024-01

0 !LICENSE Licensed under CC BY 4.0 : see CAreadme.txt



0 BFC CERTIFY CCW



0 !HISTORY 2004-03-02 [PTadmin] Official Update 2004-01

0 !HISTORY 2007-06-24 [PTadmin] Header formatted for Contributor Agreement

0 !HISTORY 2008-07-01 [PTadmin] Official Update 2008-01

0 !HISTORY 2012-02-16 [Philo] Changed to CCW

0 !HISTORY 2012-03-30 [PTadmin] Official Update 2012-01

0 !HISTORY 2024-01-04 [Holly-Wood] Complete regeneration, original by jriley

0 !HISTORY 2024-01-29 [OrionP] Official Update 2024-01



4 16 2 1 0 1.8478 1 0.7654 2.7717 0 1.1481 3 0 0

4 16 1.8478 1 0.7654 1.4142 1 1.4142 2.1213 0 2.1213 2.7717 0 1.1481

4 16 1.4142 1 1.4142 0.7654 1 1.8478 1.1481 0 2.7717 2.1213 0 2.1213

4 16 0.7654 1 1.8478 0 1 2 0 0 3 1.1481 0 2.7717

4 16 0 1 2 -0.7654 1 1.8478 -1.1481 0 2.7717 0 0 3

4 16 -0.7654 1 1.8478 -1.4142 1 1.4142 -2.1213 0 2.1213 -1.1481 0 2.7717

4 16 -1.4142 1 1.4142 -1.8478 1 0.7654 -2.7717 0 1.1481 -2.1213 0 2.1213

4 16 -1.8478 1 0.7654 -2 1 0 -3 0 0 -2.7717 0 1.1481

4 16 -2 1 0 -1.8478 1 -0.7654 -2.7717 0 -1.1481 -3 0 0

4 16 -1.8478 1 -0.7654 -1.4142 1 -1.4142 -2.1213 0 -2.1213 -2.7717 0 -1.1481

4 16 -1.4142 1 -1.4142 -0.7654 1 -1.8478 -1.1481 0 -2.7717 -2.1213 0 -2.1213

4 16 -0.7654 1 -1.8478 0 1 -2 0 0 -3 -1.1481 0 -2.7717

4 16 0 1 -2 0.7654 1 -1.8478 1.1481 0 -2.7717 0 0 -3

4 16 0.7654 1 -1.8478 1.4142 1 -1.4142 2.1213 0 -2.1213 1.1481 0 -2.7717

4 16 1.4142 1 -1.4142 1.8478 1 -0.7654 2.7717 0 -1.1481 2.1213 0 -2.1213

4 16 1.8478 1 -0.7654 2 1 0 3 0 0 2.7717 0 -1.1481

0 // conditional lines

5 24 2 1 0 3 0 0 1.8478 1 -0.7654 1.8478 1 0.7654

5 24 1.8478 1 0.7654 2.7717 0 1.1481 2 1 0 1.4142 1 1.4142

5 24 1.4142 1 1.4142 2.1213 0 2.1213 1.8478 1 0.7654 0.7654 1 1.8478

5 24 0.7654 1 1.8478 1.1481 0 2.7717 1.4142 1 1.4142 0 1 2

5 24 0 1 2 0 0 3 0.7654 1 1.8478 -0.7654 1 1.8478

5 24 -0.7654 1 1.8478 -1.1481 0 2.7717 0 1 2 -1.4142 1 1.4142

5 24 -1.4142 1 1.4142 -2.1213 0 2.1213 -0.7654 1 1.8478 -1.8478 1 0.7654

5 24 -1.8478 1 0.7654 -2.7717 0 1.1481 -1.4142 1 1.4142 -2 1 0

5 24 -2 1 0 -3 0 0 -1.8478 1 0.7654 -1.8478 1 -0.7654

5 24 -1.8478 1 -0.7654 -2.7717 0 -1.1481 -2 1 0 -1.4142 1 -1.4142

5 24 -1.4142 1 -1.4142 -2.1213 0 -2.1213 -1.8478 1 -0.7654 -0.7654 1 -1.8478

5 24 -0.7654 1 -1.8478 -1.1481 0 -2.7717 -1.4142 1 -1.4142 0 1 -2

5 24 0 1 -2 0 0 -3 -0.7654 1 -1.8478 0.7654 1 -1.8478

5 24 0.7654 1 -1.8478 1.1481 0 -2.7717 0 1 -2 1.4142 1 -1.4142

5 24 1.4142 1 -1.4142 2.1213 0 -2.1213 0.7654 1 -1.8478 1.8478 1 -0.7654

5 24 1.8478 1 -0.7654 2.7717 0 -1.1481 1.4142 1 -1.4142 2 1 0

0 // Build by LDPartEditor (PrimGen 2.X)

0 NOFILE

0 FILE 4-4ring4.dat
0 Ring  4 x 1.0

0 Name: 4-4ring4.dat

0 Author: James Jessiman

0 !LDRAW_ORG Primitive UPDATE 2009-01

0 !LICENSE Licensed under CC BY 4.0 : see CAreadme.txt



0 BFC CERTIFY CCW



0 !HISTORY 1998-12-15 [PTadmin] Official Update 1998-10

0 !HISTORY 2002-04-08 [BrickCaster] Modified for BFC compliance

0 !HISTORY 2002-04-25 [PTadmin] Official Update 2002-02

0 !HISTORY 2007-06-24 [PTadmin] Header formatted for Contributor Agreement

0 !HISTORY 2008-07-01 [PTadmin] Official Update 2008-01

0 !HISTORY 2008-08-26 [cwdee] Switch polygon winding and rename

0 !HISTORY 2009-05-02 [PTadmin] Official Update 2009-01





4 16 -1.9135 0 4.6195 -1.5308 0 3.6956 0 0 4 0 0 5

4 16 -3.5355 0 3.5355 -2.8284 0 2.8284 -1.5308 0 3.6956 -1.9135 0 4.6195

4 16 -4.6195 0 1.9135 -3.6956 0 1.5308 -2.8284 0 2.8284 -3.5355 0 3.5355

4 16 -5 0 0 -4 0 0 -3.6956 0 1.5308 -4.6195 0 1.9135

4 16 -4.6195 0 -1.9135 -3.6956 0 -1.5308 -4 0 0 -5 0 0

4 16 -3.5355 0 -3.5355 -2.8284 0 -2.8284 -3.6956 0 -1.5308 -4.6195 0 -1.9135

4 16 -1.9135 0 -4.6195 -1.5308 0 -3.6956 -2.8284 0 -2.8284 -3.5355 0 -3.5355

4 16 0 0 -5 0 0 -4 -1.5308 0 -3.6956 -1.9135 0 -4.6195

4 16 1.9135 0 -4.6195 1.5308 0 -3.6956 0 0 -4 0 0 -5

4 16 3.5355 0 -3.5355 2.8284 0 -2.8284 1.5308 0 -3.6956 1.9135 0 -4.6195

4 16 4.6195 0 -1.9135 3.6956 0 -1.5308 2.8284 0 -2.8284 3.5355 0 -3.5355

4 16 5 0 0 4 0 0 3.6956 0 -1.5308 4.6195 0 -1.9135

4 16 4.6195 0 1.9135 3.6956 0 1.5308 4 0 0 5 0 0

4 16 3.5355 0 3.5355 2.8284 0 2.8284 3.6956 0 1.5308 4.6195 0 1.9135

4 16 1.9135 0 4.6195 1.5308 0 3.6956 2.8284 0 2.8284 3.5355 0 3.5355

4 16 0 0 5 0 0 4 1.5308 0 3.6956 1.9135 0 4.6195

0

0 NOFILE

0 FILE 4-4cylc.dat
0 Cylinder Closed 1.0

0 Name: 4-4cylc.dat

0 Author: Alex Taylor [anathema]

0 !LDRAW_ORG Primitive UPDATE 2009-02

0 !LICENSE Licensed under CC BY 4.0 : see CAreadme.txt



0 BFC CERTIFY CCW



0 !HISTORY 2008-12-29 [cwdee] Removed one disc

0 !HISTORY 2009-09-03 [PTadmin] Official Update 2009-02





1 16 0 0 0 1 0 0 0 1 0 0 0 1 4-4edge.dat

1 16 0 1 0 1 0 0 0 1 0 0 0 1 4-4edge.dat

1 16 0 0 0 1 0 0 0 1 0 0 0 1 4-4disc.dat

1 16 0 0 0 1 0 0 0 1 0 0 0 1 4-4cyli.dat

0

0 NOFILE

0 FILE 85861.dat
0 Plate  1 x  1 Round with Open Stud

0 Name: 85861.dat

0 Author: Magnus Forsberg [MagFors]

0 !LDRAW_ORG Part UPDATE 2025-09

0 !LICENSE Licensed under CC BY 4.0 : see CAreadme.txt



0 BFC CERTIFY CCW



0 !HISTORY 2010-04-05 [PTadmin] Official Update 2010-01

0 !HISTORY 2025-09-27 [OrionP] Changed winding to CCW

0 !HISTORY 2025-09-29 [OrionP] Official Update 2025-09



1 16 0 3 0 -1 0 0 0 -1.25 0 0 0 1 stud4.dat

1 16 0 3 0 4 0 0 0 1 0 0 0 4 4-4edge.dat

1 16 0 3 0 -2 0 0 0 -1 0 0 0 2 4-4ring2.dat

1 16 0 3 0 10 0 0 0 1 0 0 0 10 4-4edge.dat

1 16 0 3 0 -2 0 0 0 -1 0 0 0 2 4-4ring4.dat

1 16 0 0 0 10 0 0 0 1 0 0 0 10 4-4edge.dat

1 16 0 0 0 10 0 0 0 3 0 0 0 10 4-4cyli.dat

1 16 0 0 0 6 0 0 0 1 0 0 0 6 4-4edge.dat

1 16 0 0 0 2 0 0 0 1 0 0 0 2 4-4ring4.dat

1 16 0 0 0 2 0 0 0 1 0 0 0 2 4-4ring3.dat

0 BFC INVERTNEXT

1 16 0 0 0 4 0 0 0 3 0 0 0 4 4-4cyli.dat

1 16 0 0 0 1 0 0 0 1 0 0 0 1 stud2a.dat
0 NOFILE

0 FILE stud4.dat
0 Stud Tube Open

0 Name: stud4.dat

0 Author: James Jessiman

0 !LDRAW_ORG Primitive UPDATE 2009-02

0 !LICENSE Licensed under CC BY 4.0 : see CAreadme.txt



0 BFC CERTIFY CCW



0 !HISTORY 1999-07-05 [PTadmin] Official Update 1999-05

0 !HISTORY 2002-04-04 [sbliss] Modified for BFC compliance

0 !HISTORY 2002-04-25 [PTadmin] Official Update 2002-02

0 !HISTORY 2007-06-24 [PTadmin] Header formatted for Contributor Agreement

0 !HISTORY 2008-07-01 [PTadmin] Official Update 2008-01

0 !HISTORY 2009-06-21 [cwdee] Update ring references to 4-4ring

0 !HISTORY 2009-09-03 [PTadmin] Official Update 2009-02





1 16 0 -4 0 6 0 0 0 1 0 0 0 6 4-4edge.dat

1 16 0 -4 0 8 0 0 0 1 0 0 0 8 4-4edge.dat

1 16 0 0 0 6 0 0 0 1 0 0 0 6 4-4edge.dat

1 16 0 0 0 8 0 0 0 1 0 0 0 8 4-4edge.dat

0 BFC INVERTNEXT

1 16 0 -4 0 6 0 0 0 4 0 0 0 6 4-4cyli.dat

1 16 0 -4 0 8 0 0 0 4 0 0 0 8 4-4cyli.dat

1 16 0 -4 0 2 0 0 0 1 0 0 0 2 4-4ring3.dat

0

0 NOFILE

0 FILE 3024.dat
0 Plate  1 x  1

0 Name: 3024.dat

0 Author: James Jessiman

0 !LDRAW_ORG Part UPDATE 2022-05

0 !LICENSE Licensed under CC BY 4.0 : see CAreadme.txt



0 BFC CERTIFY CCW



0 !HISTORY 2001-10-26 [PTadmin] Official Update 2001-01

0 !HISTORY 2002-05-07 {unknown} BFC Certification

0 !HISTORY 2002-06-11 [PTadmin] Official Update 2002-03

0 !HISTORY 2007-06-07 [PTadmin] Header formatted for Contributor Agreement

0 !HISTORY 2008-07-01 [PTadmin] Official Update 2008-01

0 !HISTORY 2022-08-04 [MagFors] Using subfile

0 !HISTORY 2022-09-15 [PTadmin] Official Update 2022-05





1 16 0 0 0 1 0 0 0 1 0 0 0 1 s__3024s01.dat

4 16 -10 8 -10 10 8 -10 10 0 -10 -10 0 -10

0 NOFILE

0 FILE s__3024s01.dat
0 ~Plate  1 x  1 without Front Face

0 Name: s\3024s01.dat

0 Author: Tore Eriksson [Tore_Eriksson]

0 !LDRAW_ORG Subpart UPDATE 2012-03

0 !LICENSE Licensed under CC BY 4.0 : see CAreadme.txt



0 BFC CERTIFY CCW



0 !HISTORY 2012-12-28 [PTadmin] Official Update 2012-03





0 BFC INVERTNEXT

1 16 0 8 0 0 0 6 0 -4 0 -6 0 0 box5.dat

4 16 10 8 -10 6 8 -6 6 8 6 10 8 10

4 16 10 8 10 6 8 6 -6 8 6 -10 8 10

4 16 -10 8 10 -6 8 6 -6 8 -6 -10 8 -10

4 16 -10 8 -10 -6 8 -6 6 8 -6 10 8 -10

1 16 0 8 0 10 0 0 0 -8 0 0 0 10 box4t.dat

1 16 0 0 0 0 0 1 0 1 0 -1 0 0 stud.dat

0 NOFILE
