0 FILE Warrior[SCION]V1
0 Untitled Model
0 Name: Warrior[SCION]V1
0 Author: 
0 CustomBrick
0 FlexibleBrickControlPointUnitLength -1
0 FlexibleBrickLockedControlPoint 
0 NumOfBricks 28
1 0 -10.000000 -24.000000 -10.000000 0.707107 0.000000 0.707107 0.000000 1.000000 0.000000 -0.707107 0.000000 0.707107 4733.dat
1 0 -22.727920 -14.000000 -22.727930 0.707107 0.707107 0.000000 0.000000 0.000000 -1.000000 -0.707107 0.707107 0.000000 2555.dat
1 0 2.727920 -14.000000 -22.727920 0.707107 -0.707107 0.000000 0.000000 0.000000 -1.000000 0.707107 0.707107 0.000000 2555.dat
1 0 2.727920 -14.000000 2.727920 -0.707107 -0.707107 0.000000 0.000000 0.000000 -1.000000 0.707107 -0.707107 0.000000 2555.dat
1 0 -22.727870 -14.000010 2.727930 -0.707105 0.707106 0.000000 0.000000 0.000000 -1.000000 -0.707106 -0.707106 0.000000 2555.dat
1 0 5.467220 -14.000000 -47.014030 0.000000 -0.984808 -0.173648 -1.000000 0.000000 0.000000 0.000000 0.173648 -0.984808 26047.dat
1 0 -25.467210 -14.000000 -47.014020 0.000000 0.984808 0.173648 1.000000 0.000000 0.000000 0.000000 0.173648 -0.984808 26047.dat
1 0 -25.467250 -14.000010 27.014030 0.000000 0.984808 0.173648 -1.000001 0.000000 0.000000 0.000000 -0.173648 0.984808 26047.dat
1 0 5.467220 -13.999990 27.014020 0.000000 -0.984808 -0.173648 1.000000 0.000000 0.000000 0.000000 -0.173648 0.984808 26047.dat
1 0 -27.203720 -13.999940 17.165940 0.000000 0.984808 -0.173648 1.000000 0.000000 0.000000 0.000000 -0.173648 -0.984808 11477.dat
1 0 7.203700 -14.000050 17.165940 0.000000 -0.984808 0.173649 -1.000000 0.000000 0.000000 0.000000 -0.173649 -0.984808 11477.dat
1 0 26.433580 -13.999930 -20.248170 0.000000 -0.984808 0.173648 1.000000 0.000000 0.000000 0.000000 0.173648 0.984808 7302.dat
1 0 -46.433580 -14.000050 -20.248160 0.000000 0.984808 -0.173648 -1.000000 0.000000 0.000000 0.000000 0.173648 0.984808 7302.dat
1 0 -10.000000 -32.000000 -10.000000 0.707107 0.000000 0.707107 0.000000 1.000000 0.000000 -0.707107 0.000000 0.707107 4190.dat
1 0 109.764700 -24.000000 -9.901800 0.707107 0.000000 0.707107 0.000000 1.000000 0.000000 -0.707107 0.000000 0.707107 4733.dat
1 0 97.036190 -14.000000 -22.630350 0.707106 0.707106 0.000000 0.000000 0.000000 -1.000000 -0.707107 0.707107 0.000000 2555.dat
1 0 122.491600 -14.000000 -22.630620 0.707106 -0.707107 0.000000 0.000000 0.000000 -1.000000 0.707107 0.707107 0.000000 2555.dat
1 0 122.491700 -14.000000 2.825180 -0.707107 -0.707106 0.000000 0.000000 0.000000 -1.000000 0.707107 -0.707107 0.000000 2555.dat
1 0 97.035830 -14.000010 2.825210 -0.707104 0.707106 0.000000 0.000000 0.000000 -1.000000 -0.707106 -0.707106 0.000000 2555.dat
1 0 135.454400 -14.000000 -44.982740 0.000000 -0.939692 0.342021 -1.000000 0.000000 0.000000 0.000000 -0.342021 -0.939693 26047.dat
1 0 84.073620 -14.000000 -44.982860 0.000000 0.939692 -0.342019 1.000000 0.000000 0.000000 0.000000 -0.342020 -0.939693 26047.dat
1 0 84.073210 -14.000010 25.177600 0.000000 0.939692 -0.342021 -1.000001 0.000000 0.000000 0.000000 0.342021 0.939693 26047.dat
1 0 135.453800 -13.999990 25.177480 0.000000 -0.939692 0.342019 1.000000 0.000000 0.000000 0.000000 0.342020 0.939693 26047.dat
1 0 87.493520 -13.999940 15.780750 0.000000 0.939691 0.342021 1.000000 0.000000 0.000000 0.000000 0.342021 -0.939692 11477.dat
1 0 132.033700 -14.000050 15.780560 0.000000 -0.939692 -0.342019 -1.000000 0.000000 0.000000 0.000000 0.342019 -0.939693 11477.dat
1 0 140.228400 -13.999930 -11.320130 0.000000 -0.939692 -0.342021 1.000000 0.000000 0.000000 0.000000 -0.342021 0.939693 7302.dat
1 0 79.299190 -14.000060 -11.319790 0.000000 0.939692 0.342019 -1.000000 0.000000 0.000000 0.000000 -0.342020 0.939693 7302.dat
1 0 109.763800 -32.000000 -9.902740 0.707107 0.000000 0.707106 0.000000 1.000000 0.000000 -0.707107 0.000000 0.707107 4190.dat
0 NOFILE

0 FILE 4190.dat
0 Plate  2 x  2 with Slope Inverted Corner

0 Name: 4190.dat

0 Author: Magnus Forsberg [MagFors]

0 !LDRAW_ORG Part UPDATE 2024-06

0 !LICENSE Licensed under CC BY 4.0 : see CAreadme.txt



0 BFC CERTIFY CCW



0 !HISTORY 2023-12-31 [OrionP] Official Update 2023-07

0 !HISTORY 2024-07-16 [Jaco] Update description

0 !HISTORY 2024-07-29 [OrionP] Official Update 2024-06



1 16 0 0 0 0 0 1 0 1 0 -1 0 0 stud.dat

0 BFC INVERTNEXT

1 16 0 8 0 0 0 6 0 -4 0 -6 0 0 box5.dat

3 16 6 8 -6 6 8 6 10 8 -10

4 16 6 8 10 10 8 30 10 8 -10 6 8 6

4 16 6 8 6 -6 8 6 -10 8 10 6 8 10

4 16 -10 8 10 -6 8 6 -6 8 -6 -10 8 -6

3 16 6 8 -6 10 8 -10 -6 8 -6

4 16 -10 8 -6 -6 8 -6 10 8 -10 -30 8 -10

2 24 6 8 10 -10 8 10

2 24 -10 8 10 -10 8 -6

2 24 -10 8 10 -10 5 10

1 16 0 0 0 -10 0 0 0 1 0 0 0 -10 rect.dat

2 24 -10 0 10 -10 -2.7126 10

2 24 -10 -2.7126 10 -4.64 -1.3964 10

2 24 -4.64 -1.3964 10 2.616 -0.3476 10

2 24 2.616 -0.3476 10 10 0 10

2 24 -10 -2.7126 10 -10 -1.3964 4.64

2 24 -10 -1.3964 4.64 -10 -0.3476 -2.616

2 24 -10 -0.3476 -2.616 -10 0 -10

3 16 -10 0 10 -10 -2.7126 10 -10 -1.3964 4.64

3 16 -10 -2.7126 10 -11.648 -3.1173 11.648 -10 -1.3964 4.64

3 16 -10 -2.7126 10 -4.64 -1.3964 10 -11.648 -3.1173 11.648

3 16 -10 -2.7126 10 -10 0 10 -4.64 -1.3964 10



2 24 -10 8 -6 -10 4 -6

2 24 6 8 10 6 8 26

2 24 6 4 26 6 4 14

2 24 -10 4 -6 -26 4 -6

2 24 -26 8 -6 -10 8 -6

4 16 6 5.1716 11.1716 6 4.3044 12.4692 6 8 26 6 6.4692 10.3044

4 16 6 4 14 6 4 26 6 8 26 6 4.3044 12.4692

3 16 6 8 10 6 6.4692 10.3044 6 8 26

3 16 6 8 26 10 8 30 6 8 10

3 16 -26 8 -6 -10 8 -6 -30 8 -10

3 16 -10 0 -10 -10 0 10 -10 -0.3476 -2.616

3 16 -10 -0.3476 -2.616 -10 0 10 -10 -1.3964 4.64



2 24 10 0 10 10 0 30

2 24 -30 0 -10 -10 0 -10

2 24 -30 -3.792 30 -30 -10 30

3 16 -10 0 10 10 0 10 2.616 -0.3476 10

3 16 -10 0 10 2.616 -0.3476 10 -4.64 -1.3964 10



1 16 -28.5 -10 28.5 0 0 1.5 0 1 0 -1.5 0 0 rect.dat



1 16 -10 4 -10 -20 0 0 0 0 4 0 1 0 rect3.dat

1 16 10 4 10 0 -1 0 4 0 0 0 0 20 rect2a.dat



4 16 -30 -1.3964 4.64 -30 -0.3476 -2.616 -10 -0.3476 -2.616 -10 -1.3964 4.64

4 16 -30 -0.3476 -2.616 -30 0 -10 -10 0 -10 -10 -0.3476 -2.616

4 16 -30 -10 27 -30 -8.4684 24.436 -24.436 -8.4684 24.436 -27 -10 27

4 16 -30 -8.4684 24.436 -30 -5.4901 18.284 -18.284 -5.4901 18.284 -24.436 -8.4684 24.436

4 16 -30 -5.4901 18.284 -30 -3.1173 11.648 -11.648 -3.1173 11.648 -18.284 -5.4901 18.284

4 16 -30 -3.1173 11.648 -30 -1.3964 4.64 -10 -1.3964 4.64 -11.648 -3.1173 11.648

4 16 2.616 -0.3476 10 2.616 -0.3476 30 -4.64 -1.3964 30 -4.64 -1.3964 10

4 16 10 0 10 10 0 30 2.616 -0.3476 30 2.616 -0.3476 10

4 16 -24.436 -8.4684 24.436 -24.436 -8.4684 30 -27 -10 30 -27 -10 27

4 16 -18.284 -5.4901 18.284 -18.284 -5.4901 30 -24.436 -8.4684 30 -24.436 -8.4684 24.436

4 16 -11.648 -3.1173 11.648 -11.648 -3.1173 30 -18.284 -5.4901 30 -18.284 -5.4901 18.284

4 16 -4.64 -1.3964 10 -4.64 -1.3964 30 -11.648 -3.1173 30 -11.648 -3.1173 11.648



2 24 10 0 30 2.616 -0.3476 30

2 24 -24.436 -8.4684 30 -27 -10 30

2 24 -30 -10 27 -30 -8.4684 24.436

2 24 -30 -0.3476 -2.616 -30 0 -10



2 24 6 8 30 2.616 7.6524 30

2 24 10 8 30 6 8 30

2 24 -24.436 -0.4684 30 -30 -3.792 30

2 24 -30 -3.792 30 -30 -0.4684 24.436

2 24 -30 8 -6 -30 8 -10

2 24 -30 7.6524 -2.616 -30 8 -6



2 24 -26 -1.4026 26 -26 -0.4684 24.436

2 24 -26 -0.4684 24.436 -26 2.5099 18.284



2 24 -18.284 2.5099 26 -24.436 -0.4684 26

2 24 -24.436 -0.4684 26 -26 -1.4026 26



2 24 -26 -1.4026 26 -30 -3.792 30



3 16 -30 8 -10 -30 0 -10 -30 8 -6

3 16 -26 8 -6 -30 8 -10 -30 8 -6

3 16 -30 -10 27 -30 -10 30 -30 -3.792 30

3 16 -30 -3.792 30 -30 -10 30 -27 -10 30

3 16 10 0 30 10 8 30 6 8 30

3 16 6 8 30 10 8 30 6 8 26

4 16 -30 8 -6 -30 0 -10 -30 -0.3476 -2.616 -30 7.6524 -2.616

1 16 -30 3.128 1.012 0 1 0 0.5244 0 -4 -3.628 0 0 rect2p.dat

1 16 -30 1.74315 8.144 0 1 0 -0.86045 0 4 3.504 0 0 rect2p.dat

1 16 -30 -0.3037 14.966 0 1 0 1.1864 0 -4 -3.318 0 0 rect2p.dat

1 16 -30 -2.97925 21.36 0 1 0 1.48915 0 -4 -3.076 0 0 rect2p.dat

4 16 -30 -0.4684 24.436 -30 -8.4684 24.436 -30 -10 27 -30 -3.792 30

4 16 -30 -3.792 30 -27 -10 30 -24.436 -8.4684 30 -24.436 -0.4684 30

1 16 -21.36 -2.97925 30 3.076 0 0 1.48915 0 4 0 -1 0 rect2p.dat

1 16 -14.966 -0.3037 30 3.318 0 0 1.1864 0 4 0 -1 0 rect2p.dat

1 16 -8.144 1.74315 30 3.504 0 0 0.86045 0 4 0 -1 0 rect2p.dat

1 16 -1.012 3.128 30 3.628 0 0 0.5244 0 4 0 -1 0 rect2p.dat

4 16 2.616 7.6524 30 2.616 -0.3476 30 10 0 30 6 8 30



4 16 6 8 30 6 8 26 2.616 7.6524 26 2.616 7.6524 30

4 16 -4.64 6.6036 30 2.616 7.6524 30 2.616 7.6524 26 -4.64 6.6036 26

4 16 -11.648 4.8827 30 -4.64 6.6036 30 -4.64 6.6036 26 -11.648 4.8827 26

4 16 -18.284 2.5099 30 -11.648 4.8827 30 -11.648 4.8827 26 -18.284 2.5099 26

4 16 -24.436 -0.4684 30 -18.284 2.5099 30 -18.284 2.5099 26 -24.436 -0.4684 26

4 16 -24.436 -0.4684 30 -24.436 -0.4684 26 -26 -1.4026 26 -30 -3.792 30

4 16 -30 -0.4684 24.436 -30 -3.792 30 -26 -1.4026 26 -26 -0.4684 24.436

4 16 -30 2.5099 18.284 -30 -0.4684 24.436 -26 -0.4684 24.436 -26 2.5099 18.284

4 16 -30 2.5099 18.284 -26 2.5099 18.284 -26 4.8827 11.648 -30 4.8827 11.648

4 16 -30 4.8827 11.648 -26 4.8827 11.648 -26 6.6036 4.64 -30 6.6036 4.64

4 16 -30 6.6036 4.64 -26 6.6036 4.64 -26 7.6524 -2.616 -30 7.6524 -2.616

4 16 -30 7.6524 -2.616 -26 7.6524 -2.616 -26 8 -6 -30 8 -6



2 24 -10 8 -6 -10.3044 6.4692 -6

2 24 -10.3044 6.4692 -6 -11.1716 5.1716 -6

2 24 -11.1716 5.1716 -6 -12.4692 4.3044 -6

2 24 -12.4692 4.3044 -6 -14 4 -6



2 24 -10 5 10 -10.4566 3.4865 10.4566

2 24 -10.4566 3.4865 10.4566 -11.7574 1.7645 11.7574

5 24 -11.7574 1.7645 11.7574 -13.7038 0.3805 13.7038 -12.9417 2.2161 10.2077 -10.2077 2.2161 12.9417



2 24 6 8 10 6 6.4692 10.3044

2 24 6 6.4692 10.3044 6 5.1716 11.1716

2 24 6 5.1716 11.1716 6 4.3044 12.4692

2 24 6 4.3044 12.4692 6 4 14



2 24 -26 -2.32 20 -26 -1.4901 18.284



2 24 -18.284 -1.4901 26 -20 -2.32 26

2 24 -14 4 -6 -26 4 -6

4 16 -26 8 -6 -12.4692 4.3044 -6 -11.1716 5.1716 -6 -10.3044 6.4692 -6

4 16 -26 8 -6 -26 4 -6 -14 4 -6 -12.4692 4.3044 -6

3 16 -26 8 -6 -10.3044 6.4692 -6 -10 8 -6

2 24 -23.7038 -2.32 20.4566 -21.7574 -2.32 21.7574

2 24 -26 -2.32 20 -23.7038 -2.32 20.4566

2 24 -26 -2.32 26 -26 -1.4026 26

2 24 -26 -2.32 26 -26 -2.32 20

5 24 -21.7574 -2.32 21.7574 -17.8775 -1.3447 17.8775 -20.4566 -2.32 23.7038 -23.7038 -2.32 20.4566

5 24 -17.8775 -1.3447 17.8775 -13.7038 0.3805 13.7038 -14.4519 0.8316 12.6759 -12.6759 0.8316 14.4519

5 24 -14 3.6524 -2.616 -14 4 -6 -26 3.6524 -2.616 -12.5 3.9524 -2.616

5 24 -14.5 2.6036 4.64 -14 3.6524 -2.616 -26 2.6036 4.64 -13 2.9036 4.64

5 24 -16 0.8827 11.648 -14.5 2.6036 4.64 -26 0.8827 11.648 -13.926 2.1676 8.658

5 24 -17.8775 -1.3447 17.8775 -16 0.8827 11.648 -14.4519 0.8316 12.6759 -26 -1.4901 18.284

5 24 -12.5 3.9524 -2.616 -12.4692 4.3044 -6 -11.1716 5.1716 -6 -14 3.6524 -2.616

5 24 -13 2.9036 4.64 -12.5 3.9524 -2.616 -11.2 4.8024 -2.616 -14.5 2.6036 4.64

5 24 -14.4519 0.8316 12.6759 -13.926 2.1676 8.658 -16 0.8827 11.648 -12.9417 2.2161 10.2077

5 24 -13.926 2.1676 8.658 -13 2.9036 4.64 -11.7 3.7536 4.64 -14.5 2.6036 4.64

5 24 -11.2 4.8024 -2.616 -11.1716 5.1716 -6 -10.312 6.1024 -2.616 -12.5 3.9524 -2.616

5 24 -11.7 3.7536 4.64 -11.2 4.8024 -2.616 -13 2.9036 4.64 -10.8 5.0536 4.64

5 24 -12.9417 2.2161 10.2077 -11.7 3.7536 4.64 -13.926 2.1676 8.658 -11.4783 3.7201 7.9483

5 24 -10.312 6.1024 -2.616 -10.3044 6.4692 -6 -10 8 -6 -11.1716 5.1716 -6

5 24 -10.8 5.0536 4.64 -10.312 6.1024 -2.616 -10 5 10 -11.2 4.8024 -2.616

5 24 -11.4783 3.7201 7.9483 -10.8 5.0536 4.64 -10 5 10 -11.7 3.7536 4.64

5 24 -16 0.8827 11.648 -14.4519 0.8316 12.6759 -17.8775 -1.3447 17.8775 -13.926 2.1676 8.658

5 24 -14.4519 0.8316 12.6759 -13.7038 0.3805 13.7038 -12.9417 2.2161 10.2077 -17.8775 -1.3447 17.8775

5 24 -13.926 2.1676 8.658 -12.9417 2.2161 10.2077 -14.4519 0.8316 12.6759 -11.7 3.7536 4.64

5 24 -11.7 3.7536 4.64 -11.4783 3.7201 7.9483 -10.8 5.0536 4.64 -12.9417 2.2161 10.2077

5 24 -11.4783 3.7201 7.9483 -10.4566 3.4865 10.4566 -11.7574 1.7645 11.7574 -10 5 10

5 24 -12.9417 2.2161 10.2077 -11.7574 1.7645 11.7574 -11.4783 3.7201 7.9483 -13.7038 0.3805 13.7038

5 24 -10.312 6.1024 -2.616 -10 8 -6 -10.3044 6.4692 -6 -10 8 10

5 24 -10 8 10 -10.312 6.1024 -2.616 -10 5 10 -10 8 -6

5 24 -10 5 10 -10.312 6.1024 -2.616 -10.8 5.0536 4.64 -10 8 10

5 24 -10 5 10 -10.8 5.0536 4.64 -11.4783 3.7201 7.9483 -10.312 6.1024 -2.616

5 24 -10 5 10 -11.4783 3.7201 7.9483 -10.4566 3.4865 10.4566 -10.8 5.0536 4.64

5 24 -12.9417 2.2161 10.2077 -11.4783 3.7201 7.9483 -11.7574 1.7645 11.7574 -11.7 3.7536 4.64

5 24 -12.9417 2.2161 10.2077 -13.7038 0.3805 13.7038 -11.7574 1.7645 11.7574 -14.4519 0.8316 12.6759

5 24 -14.4519 0.8316 12.6759 -12.9417 2.2161 10.2077 -13.7038 0.3805 13.7038 -13.926 2.1676 8.658

5 24 -14.4519 0.8316 12.6759 -17.8775 -1.3447 17.8775 -13.7038 0.3805 13.7038 -16 0.8827 11.648

5 24 -16 0.8827 11.648 -13.926 2.1676 8.658 -14.4519 0.8316 12.6759 -14.5 2.6036 4.64

5 24 -13.926 2.1676 8.658 -14.5 2.6036 4.64 -16 0.8827 11.648 -13 2.9036 4.64

5 24 -13.926 2.1676 8.658 -11.7 3.7536 4.64 -13 2.9036 4.64 -12.9417 2.2161 10.2077

5 24 -11.7574 1.7645 11.7574 -11.4783 3.7201 7.9483 -10.4566 3.4865 10.4566 -12.9417 2.2161 10.2077

5 24 -11.7 3.7536 4.64 -10.8 5.0536 4.64 -11.4783 3.7201 7.9483 -11.2 4.8024 -2.616

5 24 -13 2.9036 4.64 -11.7 3.7536 4.64 -13.926 2.1676 8.658 -11.2 4.8024 -2.616

5 24 -14.5 2.6036 4.64 -13 2.9036 4.64 -13.926 2.1676 8.658 -12.5 3.9524 -2.616

5 24 -11.2 4.8024 -2.616 -10.312 6.1024 -2.616 -10.8 5.0536 4.64 -11.1716 5.1716 -6

5 24 -12.5 3.9524 -2.616 -11.2 4.8024 -2.616 -13 2.9036 4.64 -11.1716 5.1716 -6

5 24 -14 3.6524 -2.616 -12.5 3.9524 -2.616 -14.5 2.6036 4.64 -12.4692 4.3044 -6

3 16 -10.312 6.1024 -2.616 -10.8 5.0536 4.64 -10 5 10

3 16 -10 5 10 -11.4783 3.7201 7.9483 -10.4566 3.4865 10.4566

3 16 -11.4783 3.7201 7.9483 -10 5 10 -10.8 5.0536 4.64

3 16 -11.7574 1.7645 11.7574 -10.4566 3.4865 10.4566 -11.4783 3.7201 7.9483

3 16 -11.4783 3.7201 7.9483 -12.9417 2.2161 10.2077 -11.7574 1.7645 11.7574

3 16 -13.7038 0.3805 13.7038 -11.7574 1.7645 11.7574 -12.9417 2.2161 10.2077

3 16 -12.9417 2.2161 10.2077 -14.4519 0.8316 12.6759 -13.7038 0.3805 13.7038

3 16 -17.8775 -1.3447 17.8775 -13.7038 0.3805 13.7038 -14.4519 0.8316 12.6759

3 16 -14.4519 0.8316 12.6759 -16 0.8827 11.648 -17.8775 -1.3447 17.8775

3 16 -14.4519 0.8316 12.6759 -12.9417 2.2161 10.2077 -13.926 2.1676 8.658

3 16 -13.926 2.1676 8.658 -16 0.8827 11.648 -14.4519 0.8316 12.6759

3 16 -11.7 3.7536 4.64 -13.926 2.1676 8.658 -12.9417 2.2161 10.2077

3 16 -11.4783 3.7201 7.9483 -11.7 3.7536 4.64 -12.9417 2.2161 10.2077

3 16 -10.8 5.0536 4.64 -11.7 3.7536 4.64 -11.4783 3.7201 7.9483

4 16 -11.7 3.7536 4.64 -10.8 5.0536 4.64 -10.312 6.1024 -2.616 -11.2 4.8024 -2.616

3 16 -10 5 10 -10 8 10 -10.312 6.1024 -2.616

3 16 -10 8 -6 -10.312 6.1024 -2.616 -10 8 10

3 16 -10.3044 6.4692 -6 -10.312 6.1024 -2.616 -10 8 -6

4 16 -10.3044 6.4692 -6 -11.1716 5.1716 -6 -11.2 4.8024 -2.616 -10.312 6.1024 -2.616

3 16 -13 2.9036 4.64 -13.926 2.1676 8.658 -11.7 3.7536 4.64

4 16 -12.5 3.9524 -2.616 -13 2.9036 4.64 -11.7 3.7536 4.64 -11.2 4.8024 -2.616

4 16 -11.2 4.8024 -2.616 -11.1716 5.1716 -6 -12.4692 4.3044 -6 -12.5 3.9524 -2.616

3 16 -14.5 2.6036 4.64 -16 0.8827 11.648 -13.926 2.1676 8.658

3 16 -13.926 2.1676 8.658 -13 2.9036 4.64 -14.5 2.6036 4.64

4 16 -14 3.6524 -2.616 -14.5 2.6036 4.64 -13 2.9036 4.64 -12.5 3.9524 -2.616

4 16 -14 4 -6 -14 3.6524 -2.616 -12.5 3.9524 -2.616 -12.4692 4.3044 -6

4 16 -14 3.6524 -2.616 -14 4 -6 -26 4 -6 -26 3.6524 -2.616

4 16 -14 3.6524 -2.616 -26 3.6524 -2.616 -26 2.6036 4.64 -14.5 2.6036 4.64

4 16 -14.5 2.6036 4.64 -26 2.6036 4.64 -26 0.8827 11.648 -16 0.8827 11.648

4 16 -16 0.8827 11.648 -26 0.8827 11.648 -26 -1.4901 18.284 -17.8775 -1.3447 17.8775

3 16 -23.7038 -2.32 20.4566 -21.7574 -2.32 21.7574 -17.8775 -1.3447 17.8775

3 16 -26 -1.4901 18.284 -23.7038 -2.32 20.4566 -17.8775 -1.3447 17.8775

3 16 -26 -2.32 20 -23.7038 -2.32 20.4566 -26 -1.4901 18.284

1 16 -26 5.8262 -4.308 0 -1 0 -2 0 0.1738 0 0 -1.692 rect3.dat

1 16 -26 5.128 1.012 0 -1 0 -0.5244 0 -2 3.628 0 0 rect2p.dat

1 16 -26 3.74315 8.144 0 -1 0 -0.86045 0 -2 3.504 0 0 rect2p.dat

1 16 -26 1.6963 14.966 0 -1 0 -1.1864 0 -2 3.318 0 0 rect2p.dat

4 16 -26 -2.32 20 -26 -1.4901 18.284 -26 2.5099 18.284 -26 -0.4684 24.436

4 16 -26 -2.32 20 -26 -0.4684 24.436 -26 -1.4026 26 -26 -2.32 26

4 16 -23.7038 -2.32 20.4566 -26 -2.32 20 -26 -2.32 26 -21.7574 -2.32 21.7574

5 24 -14 3.6524 -2.616 -26 3.6524 -2.616 -14 4 -6 -14.5 2.6036 4.64

5 24 -14.5 2.6036 4.64 -26 2.6036 4.64 -14 3.6524 -2.616 -16 0.8827 11.648

5 24 -16 0.8827 11.648 -26 0.8827 11.648 -14.5 2.6036 4.64 -17.8775 -1.3447 17.8775

5 24 -17.8775 -1.3447 17.8775 -26 -1.4901 18.284 -16 0.8827 11.648 -23.7038 -2.32 20.4566

5 24 -26 -1.4901 18.284 -23.7038 -2.32 20.4566 -26 -2.32 20 -17.8775 -1.3447 17.8775

5 24 -23.7038 -2.32 20.4566 -17.8775 -1.3447 17.8775 -21.7574 -2.32 21.7574 -26 -1.4901 18.284



2 24 -21.7574 -2.32 21.7574 -20.4566 -2.32 23.7038

2 24 -20.4566 -2.32 23.7038 -20 -2.32 26

2 24 -20 -2.32 26 -26 -2.32 26



5 24 6 4 14 2.616 3.6524 14 2.616 3.6524 26 2.616 3.9524 12.5

5 24 2.616 3.6524 14 -4.64 2.6036 14.5 -4.64 2.6036 26 -4.64 2.9036 13

5 24 -4.64 2.6036 14.5 -11.648 0.8827 16 -11.648 0.8827 26 -8.658 2.1676 13.926

5 24 -11.648 0.8827 16 -17.8775 -1.3447 17.8775 -12.6759 0.8316 14.4519 -18.284 -1.4901 26

5 24 6 4.3044 12.4692 2.616 3.9524 12.5 6 5.1716 11.1716 2.616 3.6524 14

5 24 2.616 3.9524 12.5 -4.64 2.9036 13 2.616 4.8024 11.2 -4.64 2.6036 14.5

5 24 -8.658 2.1676 13.926 -12.6759 0.8316 14.4519 -11.648 0.8827 16 -10.2077 2.2161 12.9417

5 24 -4.64 2.9036 13 -8.658 2.1676 13.926 -4.64 3.7536 11.7 -4.64 2.6036 14.5

5 24 6 5.1716 11.1716 2.616 4.8024 11.2 2.616 6.1024 10.31 2.616 3.9524 12.5

5 24 2.616 4.8024 11.2 -4.64 3.7536 11.7 -4.64 2.9036 13 -4.64 5.0536 10.8

5 24 -4.64 3.7536 11.7 -10.2077 2.2161 12.9417 -8.658 2.1676 13.926 -7.9483 3.7201 11.4783

5 24 6 6.4692 10.3044 2.616 6.1024 10.31 6 8 10 6 5.1716 11.1716

5 24 2.616 6.1024 10.31 -4.64 5.0536 10.8 -10 5 10 2.616 4.8024 11.2

5 24 -4.64 5.0536 10.8 -7.9483 3.7201 11.4783 -10 5 10 -4.64 3.7536 11.7

5 24 -12.6759 0.8316 14.4519 -11.648 0.8827 16 -17.8775 -1.3447 17.8775 -8.658 2.1676 13.926

5 24 -13.7038 0.3805 13.7038 -12.6759 0.8316 14.4519 -10.2077 2.2161 12.9417 -17.8775 -1.3447 17.8775

5 24 -10.2077 2.2161 12.9417 -8.658 2.1676 13.926 -12.6759 0.8316 14.4519 -4.64 3.7536 11.7

5 24 -7.9483 3.7201 11.4783 -4.64 3.7536 11.7 -4.64 5.0536 10.8 -10.2077 2.2161 12.9417

5 24 -10.4566 3.4865 10.4566 -7.9483 3.7201 11.4783 -11.7574 1.7645 11.7574 -10 5 10

5 24 -11.7574 1.7645 11.7574 -10.2077 2.2161 12.9417 -7.9483 3.7201 11.4783 -13.7038 0.3805 13.7038

5 24 6 8 10 2.616 6.1024 10.31 6 6.4692 10.3044 -10 8 10

5 24 2.616 6.1024 10.31 -10 8 10 -10 5 10 6 8 10

5 24 2.616 6.1024 10.31 -10 5 10 -4.64 5.0536 10.8 -10 8 10

5 24 -4.64 5.0536 10.8 -10 5 10 -7.9483 3.7201 11.4783 2.616 6.1024 10.31

5 24 -7.9483 3.7201 11.4783 -10 5 10 -10.4566 3.4865 10.4566 -4.64 5.0536 10.8

5 24 -7.9483 3.7201 11.4783 -10.2077 2.2161 12.9417 -11.7574 1.7645 11.7574 -4.64 3.7536 11.7

5 24 -13.7038 0.3805 13.7038 -10.2077 2.2161 12.9417 -11.7574 1.7645 11.7574 -12.6759 0.8316 14.4519

5 24 -10.2077 2.2161 12.9417 -12.6759 0.8316 14.4519 -13.7038 0.3805 13.7038 -8.658 2.1676 13.926

5 24 -17.8775 -1.3447 17.8775 -12.6759 0.8316 14.4519 -13.7038 0.3805 13.7038 -11.648 0.8827 16

5 24 -8.658 2.1676 13.926 -11.648 0.8827 16 -12.6759 0.8316 14.4519 -4.64 2.6036 14.5

5 24 -4.64 2.6036 14.5 -8.658 2.1676 13.926 -11.648 0.8827 16 -4.64 2.9036 13

5 24 -4.64 3.7536 11.7 -8.658 2.1676 13.926 -4.64 2.9036 13 -10.2077 2.2161 12.9417

5 24 -7.9483 3.7201 11.4783 -11.7574 1.7645 11.7574 -10.4566 3.4865 10.4566 -10.2077 2.2161 12.9417

5 24 -4.64 5.0536 10.8 -4.64 3.7536 11.7 -7.9483 3.7201 11.4783 2.616 4.8024 11.2

5 24 -4.64 3.7536 11.7 -4.64 2.9036 13 -8.658 2.1676 13.926 2.616 4.8024 11.2

5 24 -4.64 2.9036 13 -4.64 2.6036 14.5 -8.658 2.1676 13.926 2.616 3.9524 12.5

5 24 2.616 6.1024 10.31 2.616 4.8024 11.2 -4.64 5.0536 10.8 6 5.1716 11.1716

5 24 2.616 4.8024 11.2 2.616 3.9524 12.5 -4.64 2.9036 13 6 5.1716 11.1716

5 24 2.616 3.9524 12.5 2.616 3.6524 14 -4.64 2.6036 14.5 6 4.3044 12.4692



3 16 2.616 6.1024 10.31 -10 5 10 -4.64 5.0536 10.8

3 16 -10 5 10 -10.4566 3.4865 10.4566 -7.9483 3.7201 11.4783

3 16 -7.9483 3.7201 11.4783 -4.64 5.0536 10.8 -10 5 10

3 16 -11.7574 1.7645 11.7574 -7.9483 3.7201 11.4783 -10.4566 3.4865 10.4566

3 16 -7.9483 3.7201 11.4783 -11.7574 1.7645 11.7574 -10.2077 2.2161 12.9417

3 16 -13.7038 0.3805 13.7038 -10.2077 2.2161 12.9417 -11.7574 1.7645 11.7574

3 16 -10.2077 2.2161 12.9417 -13.7038 0.3805 13.7038 -12.6759 0.8316 14.4519

3 16 -17.8775 -1.3447 17.8775 -12.6759 0.8316 14.4519 -13.7038 0.3805 13.7038

3 16 -12.6759 0.8316 14.4519 -17.8775 -1.3447 17.8775 -11.648 0.8827 16

3 16 -12.6759 0.8316 14.4519 -8.658 2.1676 13.926 -10.2077 2.2161 12.9417

3 16 -8.658 2.1676 13.926 -12.6759 0.8316 14.4519 -11.648 0.8827 16

3 16 -4.64 3.7536 11.7 -10.2077 2.2161 12.9417 -8.658 2.1676 13.926

3 16 -7.9483 3.7201 11.4783 -10.2077 2.2161 12.9417 -4.64 3.7536 11.7

3 16 -4.64 5.0536 10.8 -7.9483 3.7201 11.4783 -4.64 3.7536 11.7

4 16 2.616 6.1024 10.31 -4.64 5.0536 10.8 -4.64 3.7536 11.7 2.616 4.8024 11.2

3 16 -10 5 10 2.616 6.1024 10.31 -10 8 10

3 16 6 8 10 -10 8 10 2.616 6.1024 10.31

3 16 6 6.4692 10.3044 6 8 10 2.616 6.1024 10.31

4 16 2.616 4.8024 11.2 6 5.1716 11.1716 6 6.4692 10.3044 2.616 6.1024 10.31

3 16 -4.64 2.9036 13 -4.64 3.7536 11.7 -8.658 2.1676 13.926

4 16 -4.64 3.7536 11.7 -4.64 2.9036 13 2.616 3.9524 12.5 2.616 4.8024 11.2

4 16 6 4.3044 12.4692 6 5.1716 11.1716 2.616 4.8024 11.2 2.616 3.9524 12.5

3 16 -4.64 2.6036 14.5 -8.658 2.1676 13.926 -11.648 0.8827 16

3 16 -8.658 2.1676 13.926 -4.64 2.6036 14.5 -4.64 2.9036 13

4 16 -4.64 2.9036 13 -4.64 2.6036 14.5 2.616 3.6524 14 2.616 3.9524 12.5

4 16 2.616 3.9524 12.5 2.616 3.6524 14 6 4 14 6 4.3044 12.4692



4 16 6 4 26 6 4 14 2.616 3.6524 14 2.616 3.6524 26

4 16 -4.64 2.6036 26 2.616 3.6524 26 2.616 3.6524 14 -4.64 2.6036 14.5

4 16 -11.648 0.8827 26 -4.64 2.6036 26 -4.64 2.6036 14.5 -11.648 0.8827 16

4 16 -18.284 -1.4901 26 -11.648 0.8827 26 -11.648 0.8827 16 -17.8775 -1.3447 17.8775

3 16 -20.4566 -2.32 23.7038 -17.8775 -1.3447 17.8775 -21.7574 -2.32 21.7574

3 16 -18.284 -1.4901 26 -17.8775 -1.3447 17.8775 -20.4566 -2.32 23.7038

3 16 -20 -2.32 26 -18.284 -1.4901 26 -20.4566 -2.32 23.7038

1 16 4.308 5.8262 26 0 0 1.692 2 0 0.1738 0 1 0 rect3.dat

1 16 -1.012 5.128 26 3.628 0 0 0.5244 0 -2 0 1 0 rect2p.dat

1 16 -8.144 3.74315 26 3.504 0 0 0.86045 0 -2 0 1 0 rect2p.dat

1 16 -14.966 1.6963 26 3.318 0 0 1.1864 0 -2 0 1 0 rect2p.dat

4 16 -18.284 2.5099 26 -18.284 -1.4901 26 -20 -2.32 26 -24.436 -0.4684 26

4 16 -26 -1.4026 26 -24.436 -0.4684 26 -20 -2.32 26 -26 -2.32 26

4 16 -26 -2.32 26 -20 -2.32 26 -20.4566 -2.32 23.7038 -21.7574 -2.32 21.7574

5 24 2.616 3.6524 26 2.616 3.6524 14 6 4 14 -4.64 2.6036 14.5

5 24 -4.64 2.6036 26 -4.64 2.6036 14.5 2.616 3.6524 14 -11.648 0.8827 16

5 24 -11.648 0.8827 26 -11.648 0.8827 16 -4.64 2.6036 14.5 -17.8775 -1.3447 17.8775

5 24 -18.284 -1.4901 26 -17.8775 -1.3447 17.8775 -11.648 0.8827 16 -20.4566 -2.32 23.7038

5 24 -20.4566 -2.32 23.7038 -18.284 -1.4901 26 -20 -2.32 26 -17.8775 -1.3447 17.8775

5 24 -17.8775 -1.3447 17.8775 -20.4566 -2.32 23.7038 -21.7574 -2.32 21.7574 -18.284 -1.4901 26



5 24 -18.284 2.5099 26 -18.284 2.5099 30 -24.436 -0.4684 26 -11.648 4.8827 30

5 24 -4.64 -1.3964 10 -4.64 -1.3964 30 2.616 -0.3476 10 -11.648 -3.1173 30

5 24 2.616 -0.3476 30 2.616 -0.3476 10 -4.64 -1.3964 30 10 0 10

5 24 -11.648 -3.1173 11.648 -30 -3.1173 11.648 -18.284 -5.4901 18.284 -30 -1.3964 4.64

2 24 -11.648 -3.1173 11.648 -18.284 -5.4901 18.284

5 24 -30 -1.3964 4.64 -10 -1.3964 4.64 -11.648 -3.1173 11.648 -30 -0.3476 -2.616

5 24 -18.284 -5.4901 30 -18.284 -5.4901 18.284 -24.436 -8.4684 30 -11.648 -3.1173 11.648

5 24 -26 6.6036 4.64 -30 6.6036 4.64 -26 7.6524 -2.616 -30 4.8827 11.648

5 24 -24.436 -0.4684 30 -24.436 -0.4684 26 -18.284 2.5099 30 -26 -1.4026 26

5 24 -24.436 -8.4684 24.436 -30 -8.4684 24.436 -27 -10 27 -30 -5.4901 18.284

5 24 -30 4.8827 11.648 -26 4.8827 11.648 -26 6.6036 4.64 -30 2.5099 18.284

5 24 6 8 26 6 8 30 10 8 30 2.616 7.6524 26

2 24 -10 -2.7126 10 -11.648 -3.1173 11.648

5 24 -24.436 -8.4684 30 -24.436 -8.4684 24.436 -27 -10 30 -18.284 -5.4901 18.284

5 24 -11.648 4.8827 30 -11.648 4.8827 26 -4.64 6.6036 30 -18.284 2.5099 26

5 24 2.616 7.6524 30 2.616 7.6524 26 -4.64 6.6036 26 6 8 30

5 24 -4.64 6.6036 30 -4.64 6.6036 26 2.616 7.6524 30 -11.648 4.8827 26

5 24 -30 -5.4901 18.284 -18.284 -5.4901 18.284 -30 -3.1173 11.648 -24.436 -8.4684 24.436

2 24 -24.436 -8.4684 24.436 -27 -10 27

5 24 -30 8 -6 -26 8 -6 -30 7.6524 -2.616 -30 8 -10

2 24 -18.284 -5.4901 18.284 -24.436 -8.4684 24.436

5 24 -10 -0.3476 -2.616 -30 -0.3476 -2.616 -10 -1.3964 4.64 -30 0 -10

5 24 -30 7.6524 -2.616 -26 7.6524 -2.616 -26 8 -6 -30 6.6036 4.64

5 24 -30 -0.4684 24.436 -26 -0.4684 24.436 -30 -3.792 30 -26 2.5099 18.284

5 24 -26 2.5099 18.284 -30 2.5099 18.284 -26 4.8827 11.648 -30 -0.4684 24.436

5 24 -11.648 -3.1173 30 -11.648 -3.1173 11.648 -18.284 -5.4901 30 -4.64 -1.3964 10

0 NOFILE

0 FILE rect2p.dat
0 Rectangle with 2 Parallel Edges

0 Name: rect2p.dat

0 Author: Donald Sutter [technog]

0 !LDRAW_ORG Primitive UPDATE 2010-01

0 !LICENSE Licensed under CC BY 4.0 : see CAreadme.txt



0 BFC CERTIFY CCW



0 !HISTORY 2003-08-01 [PTadmin] Official Update 2003-02

0 !HISTORY 2007-06-24 [PTadmin] Header formatted for Contributor Agreement

0 !HISTORY 2008-07-01 [PTadmin] Official Update 2008-01

0 !HISTORY 2010-01-17 [mikeheide] changed winding to CCW

0 !HISTORY 2010-04-05 [PTadmin] Official Update 2010-01





2 24 1 0 1 -1 0 1

2 24 -1 0 -1 1 0 -1

4 16 -1 0 1 -1 0 -1 1 0 -1 1 0 1

0

0 NOFILE

0 FILE rect2a.dat
0 Rectangle with 2 Adjacent Edges

0 Name: rect2a.dat

0 Author: Chris Dee [cwdee]

0 !LDRAW_ORG Primitive UPDATE 2010-01

0 !LICENSE Licensed under CC BY 4.0 : see CAreadme.txt



0 BFC CERTIFY CCW



0 !HISTORY 2003-12-19 [PTadmin] Official Update 2003-03

0 !HISTORY 2007-06-24 [PTadmin] Header formatted for Contributor Agreement

0 !HISTORY 2008-07-01 [PTadmin] Official Update 2008-01

0 !HISTORY 2010-01-17 [mikeheide] changed winding to CCW

0 !HISTORY 2010-04-05 [PTadmin] Official Update 2010-01





2 24 1 0 1 -1 0 1

2 24 1 0 -1 1 0 1

4 16 -1 0 1 -1 0 -1 1 0 -1 1 0 1

0

0 NOFILE

0 FILE rect3.dat
0 Rectangle with 3 Edges

0 Name: rect3.dat

0 Author: Mark Kennedy [mkennedy]

0 !LDRAW_ORG Primitive UPDATE 2010-01

0 !LICENSE Licensed under CC BY 4.0 : see CAreadme.txt



0 BFC CERTIFY CCW



0 !HISTORY 2003-08-01 [PTadmin] Official Update 2003-02

0 !HISTORY 2007-06-24 [PTadmin] Header formatted for Contributor Agreement

0 !HISTORY 2008-07-01 [PTadmin] Official Update 2008-01

0 !HISTORY 2010-01-17 [mikeheide] Change winding to CCW

0 !HISTORY 2010-04-05 [PTadmin] Official Update 2010-01





2 24 1 0 1 -1 0 1

2 24 1 0 1 1 0 -1

2 24 -1 0 1 -1 0 -1

4 16 -1 0 1 -1 0 -1 1 0 -1 1 0 1

0 //

0 NOFILE

0 FILE rect.dat
0 Rectangle

0 Name: rect.dat

0 Author: James Jessiman

0 !LDRAW_ORG Primitive UPDATE 2010-01

0 !LICENSE Licensed under CC BY 4.0 : see CAreadme.txt



0 BFC CERTIFY CCW



0 !HISTORY 2002-04-05 [hafhead] Added BFC statement

0 !HISTORY 2002-04-25 [PTadmin] Official Update 2002-02

0 !HISTORY 2007-06-24 [PTadmin] Header formatted for Contributor Agreement

0 !HISTORY 2008-07-01 [PTadmin] Official Update 2008-01

0 !HISTORY 2010-01-17 [mikeheide] changed winding to CCW

0 !HISTORY 2010-04-05 [PTadmin] Official Update 2010-01





2 24 1 0 1 -1 0 1

2 24 -1 0 1 -1 0 -1

2 24 -1 0 -1 1 0 -1

2 24 1 0 -1 1 0 1

4 16 -1 0 1 -1 0 -1 1 0 -1 1 0 1

0

0 NOFILE

0 FILE box5.dat
0 Box with 5 Faces and All Edges

0 Name: box5.dat

0 Author: James Jessiman

0 !LDRAW_ORG Primitive UPDATE 2012-01

0 !LICENSE Licensed under CC BY 4.0 : see CAreadme.txt



0 BFC CERTIFY CCW



0 !HISTORY 2002-04-03 [sbliss] Modified for BFC compliance

0 !HISTORY 2002-04-25 [PTadmin] Official Update 2002-02

0 !HISTORY 2007-06-24 [PTadmin] Header formatted for Contributor Agreement

0 !HISTORY 2008-07-01 [PTadmin] Official Update 2008-01

0 !HISTORY 2012-02-16 [Philo] Changed to CCW

0 !HISTORY 2012-03-30 [PTadmin] Official Update 2012-01





2 24 1 1 1 -1 1 1

2 24 -1 1 1 -1 1 -1

2 24 -1 1 -1 1 1 -1

2 24 1 1 -1 1 1 1

2 24 1 0 1 -1 0 1

2 24 -1 0 1 -1 0 -1

2 24 -1 0 -1 1 0 -1

2 24 1 0 -1 1 0 1

2 24 1 0 1 1 1 1

2 24 -1 0 1 -1 1 1

2 24 1 0 -1 1 1 -1

2 24 -1 0 -1 -1 1 -1

4 16 -1 1 1 1 1 1 1 1 -1 -1 1 -1

4 16 -1 1 1 -1 0 1 1 0 1 1 1 1

4 16 -1 1 -1 -1 0 -1 -1 0 1 -1 1 1

4 16 1 1 -1 1 0 -1 -1 0 -1 -1 1 -1

4 16 1 1 1 1 0 1 1 0 -1 1 1 -1

0 NOFILE

0 FILE stud.dat
0 Stud

0 Name: stud.dat

0 Author: James Jessiman

0 !LDRAW_ORG Primitive UPDATE 2012-01

0 !LICENSE Licensed under CC BY 4.0 : see CAreadme.txt



0 BFC CERTIFY CCW



0 !HISTORY 2002-04-04 [sbliss] Modified for BFC compliance

0 !HISTORY 2002-04-25 [PTadmin] Official Update 2002-02

0 !HISTORY 2007-06-24 [PTadmin] Header formatted for Contributor Agreement

0 !HISTORY 2008-07-01 [PTadmin] Official Update 2008-01

0 !HISTORY 2012-02-16 [Philo] Changed to CCW

0 !HISTORY 2012-03-30 [PTadmin] Official Update 2012-01





1 16 0 0 0 6 0 0 0 1 0 0 0 6 4-4edge.dat

1 16 0 -4 0 6 0 0 0 1 0 0 0 6 4-4edge.dat

1 16 0 0 0 6 0 0 0 -4 0 0 0 6 4-4cyli.dat

1 16 0 -4 0 6 0 0 0 1 0 0 0 6 4-4disc.dat

0 NOFILE

0 FILE 4-4disc.dat
0 Disc 1.0

0 Name: 4-4disc.dat

0 Author: James Jessiman

0 !LDRAW_ORG Primitive UPDATE 2002-02

0 !LICENSE Licensed under CC BY 4.0 : see CAreadme.txt



0 BFC CERTIFY CCW



0 !HISTORY 1998-12-15 [PTadmin] Official Update 1998-10

0 !HISTORY 2002-03-23 [sbliss] Added BFC statement

0 !HISTORY 2002-04-25 [PTadmin] Official Update 2002-02

0 !HISTORY 2007-06-24 [PTadmin] Header formatted for Contributor Agreement

0 !HISTORY 2008-07-01 [PTadmin] Official Update 2008-01





3 16 0 0 0 1 0 0 0.9239 0 0.3827

3 16 0 0 0 0.9239 0 0.3827 0.7071 0 0.7071

3 16 0 0 0 0.7071 0 0.7071 0.3827 0 0.9239

3 16 0 0 0 0.3827 0 0.9239 0 0 1

3 16 0 0 0 0 0 1 -0.3827 0 0.9239

3 16 0 0 0 -0.3827 0 0.9239 -0.7071 0 0.7071

3 16 0 0 0 -0.7071 0 0.7071 -0.9239 0 0.3827

3 16 0 0 0 -0.9239 0 0.3827 -1 0 -0

3 16 0 0 0 -1 0 -0 -0.9239 0 -0.3827

3 16 0 0 0 -0.9239 0 -0.3827 -0.7071 0 -0.7071

3 16 0 0 0 -0.7071 0 -0.7071 -0.3827 0 -0.9239

3 16 0 0 0 -0.3827 0 -0.9239 0 0 -1

3 16 0 0 0 0 0 -1 0.3827 0 -0.9239

3 16 0 0 0 0.3827 0 -0.9239 0.7071 0 -0.7071

3 16 0 0 0 0.7071 0 -0.7071 0.9239 0 -0.3827

3 16 0 0 0 0.9239 0 -0.3827 1 0 0

0

0 NOFILE

0 FILE 4-4cyli.dat
0 Cylinder 1.0

0 Name: 4-4cyli.dat

0 Author: James Jessiman

0 !LDRAW_ORG Primitive UPDATE 2005-01

0 !LICENSE Licensed under CC BY 4.0 : see CAreadme.txt



0 BFC CERTIFY CCW



0 !HISTORY 1998-12-15 [PTadmin] Official Update 1998-10

0 !HISTORY 2002-03-23 [sbliss] Added BFC statement; merged headers from files in distributions LDraw 0.27 and Complete.

0 !HISTORY 2002-04-25 [PTadmin] Official Update 2002-02

0 !HISTORY 2004-12-14 [guyvivan] BFC CCW

0 !HISTORY 2005-12-28 [PTadmin] Official Update 2005-01

0 !HISTORY 2007-06-24 [PTadmin] Header formatted for Contributor Agreement

0 !HISTORY 2008-07-01 [PTadmin] Official Update 2008-01





4 16 1 1 0 0.9239 1 0.3827 0.9239 0 0.3827 1 0 0

5 24 1 0 0 1 1 0 0.9239 0 0.3827 0.9239 0 -0.3827

4 16 0.9239 1 0.3827 0.7071 1 0.7071 0.7071 0 0.7071 0.9239 0 0.3827

5 24 0.9239 0 0.3827 0.9239 1 0.3827 0.7071 0 0.7071 1 0 0

4 16 0.7071 1 0.7071 0.3827 1 0.9239 0.3827 0 0.9239 0.7071 0 0.7071

5 24 0.7071 0 0.7071 0.7071 1 0.7071 0.3827 0 0.9239 0.9239 0 0.3827

4 16 0.3827 1 0.9239 0 1 1 0 0 1 0.3827 0 0.9239

5 24 0.3827 0 0.9239 0.3827 1 0.9239 0 0 1 0.7071 0 0.7071

4 16 0 1 1 -0.3827 1 0.9239 -0.3827 0 0.9239 0 0 1

5 24 0 0 1 0 1 1 -0.3827 0 0.9239 0.3827 0 0.9239

4 16 -0.3827 1 0.9239 -0.7071 1 0.7071 -0.7071 0 0.7071 -0.3827 0 0.9239

5 24 -0.3827 0 0.9239 -0.3827 1 0.9239 -0.7071 0 0.7071 0 0 1

4 16 -0.7071 1 0.7071 -0.9239 1 0.3827 -0.9239 0 0.3827 -0.7071 0 0.7071

5 24 -0.7071 0 0.7071 -0.7071 1 0.7071 -0.9239 0 0.3827 -0.3827 0 0.9239

4 16 -0.9239 1 0.3827 -1 1 0 -1 0 0 -0.9239 0 0.3827

5 24 -0.9239 0 0.3827 -0.9239 1 0.3827 -1 0 0 -0.7071 0 0.7071

4 16 -1 1 0 -0.9239 1 -0.3827 -0.9239 0 -0.3827 -1 0 0

5 24 -1 0 0 -1 1 0 -0.9239 0 -0.3827 -0.9239 0 0.3827

4 16 -0.9239 1 -0.3827 -0.7071 1 -0.7071 -0.7071 0 -0.7071 -0.9239 0 -0.3827

5 24 -0.9239 0 -0.3827 -0.9239 1 -0.3827 -0.7071 0 -0.7071 -1 0 0

4 16 -0.7071 1 -0.7071 -0.3827 1 -0.9239 -0.3827 0 -0.9239 -0.7071 0 -0.7071

5 24 -0.7071 0 -0.7071 -0.7071 1 -0.7071 -0.3827 0 -0.9239 -0.9239 0 -0.3827

4 16 -0.3827 1 -0.9239 0 1 -1 0 0 -1 -0.3827 0 -0.9239

5 24 -0.3827 0 -0.9239 -0.3827 1 -0.9239 0 0 -1 -0.7071 0 -0.7071

4 16 0 1 -1 0.3827 1 -0.9239 0.3827 0 -0.9239 0 0 -1

5 24 0 0 -1 0 1 -1 0.3827 0 -0.9239 -0.3827 0 -0.9239

4 16 0.3827 1 -0.9239 0.7071 1 -0.7071 0.7071 0 -0.7071 0.3827 0 -0.9239

5 24 0.3827 0 -0.9239 0.3827 1 -0.9239 0.7071 0 -0.7071 0 0 -1

4 16 0.7071 1 -0.7071 0.9239 1 -0.3827 0.9239 0 -0.3827 0.7071 0 -0.7071

5 24 0.7071 0 -0.7071 0.7071 1 -0.7071 0.9239 0 -0.3827 0.3827 0 -0.9239

4 16 0.9239 1 -0.3827 1 1 0 1 0 0 0.9239 0 -0.3827

5 24 0.9239 0 -0.3827 0.9239 1 -0.3827 1 0 0 0.7071 0 -0.7071

0

0 NOFILE

0 FILE 4-4edge.dat
0 Circle 1.0

0 Name: 4-4edge.dat

0 Author: James Jessiman

0 !LDRAW_ORG Primitive UPDATE 2017-01

0 !LICENSE Licensed under CC BY 4.0 : see CAreadme.txt



0 BFC CERTIFY CCW



0 !HISTORY 1998-12-15 [PTadmin] Official Update 1998-10

0 !HISTORY 2005-12-28 [PTadmin] Official Update 2005-01

0 !HISTORY 2007-06-24 [PTadmin] Header formatted for Contributor Agreement

0 !HISTORY 2008-07-01 [PTadmin] Official Update 2008-01

0 !HISTORY 2017-01-15 [Steffen] BFCed

0 !HISTORY 2017-12-30 [PTadmin] Official Update 2017-01





2 24 1 0 0 0.9239 0 0.3827

2 24 0.9239 0 0.3827 0.7071 0 0.7071

2 24 0.7071 0 0.7071 0.3827 0 0.9239

2 24 0.3827 0 0.9239 0 0 1

2 24 0 0 1 -0.3827 0 0.9239

2 24 -0.3827 0 0.9239 -0.7071 0 0.7071

2 24 -0.7071 0 0.7071 -0.9239 0 0.3827

2 24 -0.9239 0 0.3827 -1 0 -0

2 24 -1 0 -0 -0.9239 0 -0.3827

2 24 -0.9239 0 -0.3827 -0.7071 0 -0.7071

2 24 -0.7071 0 -0.7071 -0.3827 0 -0.9239

2 24 -0.3827 0 -0.9239 0 0 -1

2 24 0 0 -1 0.3827 0 -0.9239

2 24 0.3827 0 -0.9239 0.7071 0 -0.7071

2 24 0.7071 0 -0.7071 0.9239 0 -0.3827

2 24 0.9239 0 -0.3827 1 0 0

0 NOFILE

0 FILE 7302.dat
0 Slope Brick Curved  3 x  1 x  0.667

0 Name: 7302.dat

0 Author: Jeff Jones [notmaster]

0 !LDRAW_ORG Unofficial_Part

0 !LICENSE Licensed under CC BY 4.0 : see CAreadme.txt



0 BFC CERTIFY CCW



0 !CATEGORY Slope



1 16 0 0 0 1 0 0 0 1 0 0 0 1 s__7302s01.dat

1 16 10 40.972 30 0 -20 0 -28.972 0 -28.972 -60 0 60 48__1-8cyli.dat
0 NOFILE

0 FILE 48__1-8cyli.dat
0 Hi-Res Cylinder 0.125

0 Name: 48\1-8cyli.dat

0 Author: Steve Bliss [sbliss]

0 !LDRAW_ORG 48_Primitive UPDATE 2004-04

0 !LICENSE Licensed under CC BY 4.0 : see CAreadme.txt



0 BFC CERTIFY CCW



0 !HISTORY 2000-05-07 [PTadmin] Official Update 2000-01

0 !HISTORY 2004-10-12 [sbliss] fixed title, BFC'ed

0 !HISTORY 2004-11-06 [PTadmin] Official Update 2004-04

0 !HISTORY 2007-06-24 [PTadmin] Header formatted for Contributor Agreement

0 !HISTORY 2008-07-01 [PTadmin] Official Update 2008-01





5 24 1 0 0 1 1 0 0.9914 0 0.1305 1 0 -1

5 24 0.9914 0 0.1305 0.9914 1 0.1305 0.9659 0 0.2588 1 0 0

5 24 0.9659 0 0.2588 0.9659 1 0.2588 0.9239 0 0.3827 0.9914 0 0.1305

5 24 0.9239 0 0.3827 0.9239 1 0.3827 0.8660 0 0.5000 0.9659 0 0.2588

5 24 0.8660 0 0.5000 0.8660 1 0.5000 0.7934 0 0.6088 0.9239 0 0.3827

5 24 0.7934 0 0.6088 0.7934 1 0.6088 0.7071 0 0.7071 0.8660 0 0.5000

5 24 0.7071 0 0.7071 0.7071 1 0.7071 0.6088 0 0.7934 0.7934 0 0.6088



4 16 0.9914 1 0.1305 0.9914 0 0.1305 1 0 0 1 1 0

4 16 0.9659 1 0.2588 0.9659 0 0.2588 0.9914 0 0.1305 0.9914 1 0.1305

4 16 0.9239 1 0.3827 0.9239 0 0.3827 0.9659 0 0.2588 0.9659 1 0.2588

4 16 0.8660 1 0.5000 0.8660 0 0.5000 0.9239 0 0.3827 0.9239 1 0.3827

4 16 0.7934 1 0.6088 0.7934 0 0.6088 0.8660 0 0.5000 0.8660 1 0.5000

4 16 0.7071 1 0.7071 0.7071 0 0.7071 0.7934 0 0.6088 0.7934 1 0.6088

0

0 NOFILE

0 FILE s__7302s01.dat
0 ~Slope Brick Curved  3 x  1 x  0.667 without Top Surface

0 Name: s\7302s01.dat

0 Author: Vincent Messenet [Cheenzo]

0 !LDRAW_ORG Unofficial_Subpart

0 !LICENSE Licensed under CC BY 4.0 : see CAreadme.txt



0 BFC CERTIFY CCW



0 !HISTORY 2026-03-26 [Cheenzo] Replaced recte4 by recte3



1 16 0 14 -30 10 0 0 0 0 -2 0 1 0 rect3.dat

4 16 6 16 6 -6 16 6 -10 16 10 10 16 10

4 16 6 16 -26 10 16 -30 -10 16 -30 -6 16 -26

4 16 6 16 -26 6 16 6 10 16 10 10 16 -30

4 16 -10 16 -30 -10 16 10 -6 16 6 -6 16 -26

0 BFC INVERTNEXT

1 16 0 14 -24 -6 0 0 0 -2 0 0 0 -2 box2-5.dat

1 16 0 10 -16 0 0 -6 2 -1 0 -6 0 0 rect2p.dat

4 16 -6 16 6 -6 4 6 -6 8 -10 -6 16 -26

4 16 6 8 -10 6 4 6 6 16 6 6 16 -26

3 16 6 12 -22 6 8 -10 6 16 -26

3 16 -6 12 -22 -6 12 -26 -6 16 -26

3 16 -6 12 -22 -6 16 -26 -6 8 -10

3 16 6 12 -26 6 12 -22 6 16 -26

1 16 0 16 -10 6 0 0 0 1 0 0 0 16 recte3.dat

1 16 0 16 -10 10 0 0 0 1 0 0 0 -20 recte3.dat



1 16 -10 40.972 30 0 1 0 -28.972 0 -28.972 -60 0 60 48__1-8chrd.dat

1 16 10 40.972 30 0 -1 0 -28.972 0 -28.972 -60 0 60 48__1-8chrd.dat

1 16 -10 40.972 30 0 1 0 -28.972 0 -28.972 -60 0 60 48__1-8edge.dat

1 16 10 40.972 30 0 1 0 -28.972 0 -28.972 -60 0 60 48__1-8edge.dat

3 16 -10 8 10 -10 12 -30 -10 0 30

4 16 -10 8 10 -10 16 10 -10 16 -30 -10 12 -30

3 16 10 8 10 10 0 30 10 12 -30

4 16 10 8 10 10 12 -30 10 16 -30 10 16 10

1 16 0 4 30 -10 0 0 0 0 -4 0 -1 0 rect3.dat

4 16 6 8 26 -6 8 26 -10 8 30 10 8 30

4 16 -6 8 26 -6 8 10 -10 8 10 -10 8 30

4 16 10 8 30 10 8 10 6 8 10 6 8 26

2 24 -10 8 10 -6 8 10

2 24 10 8 10 6 8 10

0 BFC INVERTNEXT

1 16 0 6 23 -6 0 0 0 -2 0 0 0 3 box2-7.dat

1 16 0 8 18 -6 0 0 0 -1 0 0 0 8 recte3.dat

4 16 -6 4 20 -6 6 14 -6 8 26 -6 4 26

4 16 -6 6 10 -6 8 10 -6 8 26 -6 6 14

4 16 6 8 26 6 6 14 6 4 20 6 4 26

4 16 6 6 14 6 8 26 6 8 10 6 6 10

0 BFC INVERTNEXT

1 16 0 4 20 0 0 -6 0 2 0 6 0 0 1-4cyls2.dat

0 BFC INVERTNEXT

1 16 0 4 20 0 0 6 0 2 0 6 0 0 1-4cyls2.dat

1 16 0 4 20 -6 0 0 0 -1 0 0 0 -6 2-4edge.dat

1 16 0 4 20 -6 0 0 0 -1 0 0 0 -6 2-4chrd.dat

1 16 0 4 20 -6 0 0 0 -1 2 0 0 -6 2-4edge.dat

1 16 0 4 20 -6 0 0 0 -1 2 0 0 -6 2-4ndis.dat

2 24 -6 4 20 -6 6 14

2 24 6 4 20 6 6 14

2 24 -1.5 6 14 -6 6 14

2 24 1.5 6 14 6 6 14

0 BFC INVERTNEXT

1 16 -3.75 7 12 -2.25 0 0 0 -1 0 0 0 -2 box2-9.dat

1 16 0 6 12 1.5 0 0 0 2 0 0 0 2 box4-1.dat

0 BFC INVERTNEXT

1 16 3.75 7 12 2.25 0 0 0 -1 0 0 0 -2 box2-9.dat

1 16 0 12 10 10 0 0 0 0 4 0 -1 0 recte3.dat

3 16 -10 8 10 -6 8 10 -10 16 10

3 16 -10 16 10 -6 8 10 -1.5 8 10

3 16 1.5 8 10 6 8 10 10 16 10

4 16 -1.5 8 10 1.5 8 10 10 16 10 -10 16 10

3 16 10 16 10 6 8 10 10 8 10

3 16 -10 0 30 -10 8 30 -10 8 10

3 16 10 0 30 10 8 10 10 8 30

1 16 0 9.3 -10 1 0 0 0 -1.675 0 0 0 1 stud3a.dat

1 16 0 8 -10 0 0 4 0 -1 0 -4 0 0 1-4cyls2.dat

1 16 0 8 -10 0 0 -4 0 -1 0 -4 0 0 1-4cyls2.dat

1 16 0 9.3 -10 0 0 -4 0 -1.3 0 -4 0 0 1-4cyls.dat

1 16 0 9.3 -10 0 0 4 0 -1.3 0 -4 0 0 1-4cyls.dat



1 16 0 8 -10 -4 0 0 0 -1 -1 0 0 4 2-4edge.dat

1 16 0 8 -10 -4 0 0 0 -1 1.3 0 0 -4 2-4edge.dat

1 16 0 8 -10 -4 0 0 0 1.3 0 0 0 4 2-4cyli.dat

5 24 6 8 -10 -6 8 -10 6 12 -22 -6 4 6

0 BFC INVERTNEXT

1 16 0 12 -2 -6 0 0 0 -6 -2 0 0 8 box2-7.dat

1 16 0 8 20 10 0 0 0 1 0 0 0 10 recte3.dat
0 NOFILE

0 FILE 2-4cyli.dat
0 Cylinder 0.5

0 Name: 2-4cyli.dat

0 Author: James Jessiman

0 !LDRAW_ORG Primitive UPDATE 2005-01

0 !LICENSE Licensed under CC BY 4.0 : see CAreadme.txt



0 BFC CERTIFY CCW



0 !HISTORY 2002-03-23 [sbliss] Added BFC statement; compacted code

0 !HISTORY 2002-04-25 [PTadmin] Official Update 2002-02

0 !HISTORY 2004-12-11 [nielsk] Recreated using Primitive Generator, Edge lines fixed, BFC changed to CCW

0 !HISTORY 2005-12-28 [PTadmin] Official Update 2005-01

0 !HISTORY 2007-06-24 [PTadmin] Header formatted for Contributor Agreement

0 !HISTORY 2008-07-01 [PTadmin] Official Update 2008-01





4 16 .9239 1 .3827 .9239 0 .3827 1 0 0 1 1 0

4 16 .7071 1 .7071 .7071 0 .7071 .9239 0 .3827 .9239 1 .3827

4 16 .3827 1 .9239 .3827 0 .9239 .7071 0 .7071 .7071 1 .7071

4 16 0 1 1 0 0 1 .3827 0 .9239 .3827 1 .9239

4 16 -.3827 1 .9239 -.3827 0 .9239 0 0 1 0 1 1

4 16 -.7071 1 .7071 -.7071 0 .7071 -.3827 0 .9239 -.3827 1 .9239

4 16 -.9239 1 .3827 -.9239 0 .3827 -.7071 0 .7071 -.7071 1 .7071

4 16 -1 1 0 -1 0 0 -.9239 0 .3827 -.9239 1 .3827

5 24 1 1 0 1 0 0 1 1 -.4142 .9239 1 .3827

5 24 .9239 1 .3827 .9239 0 .3827 1 1 0 .7071 1 .7071

5 24 .7071 1 .7071 .7071 0 .7071 .9239 1 .3827 .3827 1 .9239

5 24 .3827 1 .9239 .3827 0 .9239 .7071 1 .7071 0 1 1

5 24 0 1 1 0 0 1 .3827 1 .9239 -.3827 1 .9239

5 24 -.3827 1 .9239 -.3827 0 .9239 0 1 1 -.7071 1 .7071

5 24 -.7071 1 .7071 -.7071 0 .7071 -.3827 1 .9239 -.9239 1 .3827

5 24 -.9239 1 .3827 -.9239 0 .3827 -.7071 1 .7071 -1 1 0

5 24 -1 1 0 -1 0 0 -.9239 1 .3827 -1 1 -.4142

0

0 NOFILE

0 FILE 1-4cyls.dat
0 Cylinder Sloped 0.25

0 Name: 1-4cyls.dat

0 Author: James Jessiman

0 !LDRAW_ORG Primitive UPDATE 2012-01

0 !LICENSE Licensed under CC BY 4.0 : see CAreadme.txt



0 BFC CERTIFY CCW



0 !HISTORY 1998-12-15 [PTadmin] Official Update 1998-10

0 !HISTORY 2002-07-03 [sbliss] Added BFC statement

0 !HISTORY 2002-08-18 [PTadmin] Official Update 2002-04

0 !HISTORY 2007-06-22 [PTadmin] Header formatted for Contributor Agreement

0 !HISTORY 2008-07-01 [PTadmin] Official Update 2008-01

0 !HISTORY 2012-02-16 [Philo] Changed to CCW

0 !HISTORY 2012-03-30 [PTadmin] Official Update 2012-01





3 16 0.9239 0.0761 0.3827 0.9239 0 0.3827 1 0 0

4 16 0.9239 0.0761 0.3827 0.7071 0.2929 0.7071 0.7071 0 0.7071 0.9239 0 0.3827

4 16 0.7071 0.2929 0.7071 0.3827 0.6173 0.9239 0.3827 0 0.9239 0.7071 0 0.7071

4 16 0.3827 0.6173 0.9239 0 1 1 0 0 1 0.3827 0 0.9239



5 24 0.9239 0 0.3827 0.9239 0.0761 0.3827 0.7071 0 0.7071 1 0 0

5 24 0.7071 0 0.7071 0.7071 0.2929 0.7071 0.3827 0 0.9239 0.9239 0 0.3827

5 24 0.3827 0 0.9239 0.3827 0.6173 0.9239 0 0 1 0.7071 0 0.7071

5 24 0 0 1 0 1 1 0.3827 0 0.9239 -1 0 1

0 NOFILE

0 FILE stud3a.dat
0 Stud Tube Solid without Base Edges

0 Name: stud3a.dat

0 Author: James Jessiman

0 !LDRAW_ORG Primitive UPDATE 2003-02

0 !LICENSE Licensed under CC BY 4.0 : see CAreadme.txt



0 BFC CERTIFY CCW



0 !HISTORY 2002-08-31 [izanette] Modified with WINDZ for BFC compliance

0 !HISTORY 2003-08-01 [PTadmin] Official Update 2003-02

0 !HISTORY 2007-06-24 [PTadmin] Header formatted for Contributor Agreement

0 !HISTORY 2008-07-01 [PTadmin] Official Update 2008-01





1 16 0 -4 0 4 0 0 0 1 0 0 0 4 4-4edge.dat

1 16 0 -4 0 4 0 0 0 1 0 0 0 4 4-4disc.dat

1 16 0 -4 0 4 0 0 0 4 0 0 0 4 4-4cyli.dat

0



0 NOFILE

0 FILE box4-1.dat
0 Box with 4 Faces without 1 Edge

0 Name: box4-1.dat

0 Author: Tore Eriksson [Tore_Eriksson]

0 !LDRAW_ORG Primitive UPDATE 2012-01

0 !LICENSE Licensed under CC BY 4.0 : see CAreadme.txt



0 BFC CERTIFY CCW



0 !HISTORY 1998-07-15 [PTadmin] Official Update 1998-07

0 !HISTORY 2002-04-05 [hafhead] Made BFC compliant

0 !HISTORY 2002-04-25 [PTadmin] Official Update 2002-02

0 !HISTORY 2007-06-24 [PTadmin] Header formatted for Contributor Agreement

0 !HISTORY 2008-07-01 [PTadmin] Official Update 2008-01

0 !HISTORY 2012-02-16 [Philo] Changed to CCW

0 !HISTORY 2012-03-30 [PTadmin] Official Update 2012-01





2 24 1 1 1 -1 1 1

2 24 -1 1 1 -1 1 -1

2 24 -1 1 -1 1 1 -1

2 24 1 1 -1 1 1 1

2 24 1 0 1 -1 0 1

2 24 -1 0 1 -1 0 -1

2 24 1 0 -1 1 0 1

2 24 1 0 1 1 1 1

2 24 -1 0 1 -1 1 1

2 24 1 0 -1 1 1 -1

2 24 -1 0 -1 -1 1 -1

4 16 -1 1 1 1 1 1 1 1 -1 -1 1 -1

4 16 -1 1 1 -1 0 1 1 0 1 1 1 1

4 16 -1 1 -1 -1 0 -1 -1 0 1 -1 1 1

4 16 1 1 1 1 0 1 1 0 -1 1 1 -1

0 NOFILE

0 FILE box2-9.dat
0 Box with 2 Faces without 9 Edges

0 Name: box2-9.dat

0 Author: Mark Kennedy [mkennedy]

0 !LDRAW_ORG Primitive UPDATE 2010-01

0 !LICENSE Licensed under CC BY 4.0 : see CAreadme.txt



0 BFC CERTIFY CCW



0 !HISTORY 2010-04-05 [PTadmin] Official Update 2010-01





2 24 1 1 1 -1 1 1

2 24 1 -1 1 1 1 1

2 24 1 1 -1 1 1 1

4 16 1 1 1 1 1 -1 -1 1 -1 -1 1 1

4 16 1 1 1 -1 1 1 -1 -1 1 1 -1 1

0

0 NOFILE

0 FILE 2-4ndis.dat
0 Disc Negative 0.5

0 Name: 2-4ndis.dat

0 Author: James Jessiman

0 !LDRAW_ORG Primitive UPDATE 2012-01

0 !LICENSE Licensed under CC BY 4.0 : see CAreadme.txt



0 BFC CERTIFY CCW



0 !HISTORY 2002-03-23 [sbliss] Added BFC statement; compacted code

0 !HISTORY 2002-04-25 [PTadmin] Official Update 2002-02

0 !HISTORY 2007-06-24 [PTadmin] Header formatted for Contributor Agreement

0 !HISTORY 2008-07-01 [PTadmin] Official Update 2008-01

0 !HISTORY 2012-02-16 [Philo] Changed to CCW

0 !HISTORY 2012-03-30 [PTadmin] Official Update 2012-01





3 16 0.9239 0 0.3827 1 0 0 1 0 1

3 16 0.7071 0 0.7071 0.9239 0 0.3827 1 0 1

3 16 0.3827 0 0.9239 0.7071 0 0.7071 1 0 1

3 16 0 0 1 0.3827 0 0.9239 1 0 1

3 16 -0.3827 0 0.9239 0 0 1 -1 0 1

3 16 -0.7071 0 0.7071 -0.3827 0 0.9239 -1 0 1

3 16 -0.9239 0 0.3827 -0.7071 0 0.7071 -1 0 1

3 16 -1 0 0 -0.9239 0 0.3827 -1 0 1

0 NOFILE

0 FILE 2-4chrd.dat
0 Chord 0.5

0 Name: 2-4chrd.dat

0 Author: Philippe Hurbain [Philo]

0 !LDRAW_ORG Primitive UPDATE 2014-01

0 !LICENSE Licensed under CC BY 4.0 : see CAreadme.txt



0 BFC CERTIFY CCW



0 !HISTORY 2014-06-21 [PTadmin] Official Update 2014-01





4 16 0.9239 0 0.3827 -0.9239 0 0.3827 -1 0 0 1 0 0

4 16 0.7071 0 0.7071 -0.7071 0 0.7071 -0.9239 0 0.3827 0.9239 0 0.3827

4 16 0.3827 0 0.9239 -0.3827 0 0.9239 -0.7071 0 0.7071 0.7071 0 0.7071

3 16 0 0 1 -0.3827 0 0.9239 0.3827 0 0.9239

0 NOFILE

0 FILE 2-4edge.dat
0 Circle 0.5

0 Name: 2-4edge.dat

0 Author: James Jessiman

0 !LDRAW_ORG Primitive UPDATE 2017-01

0 !LICENSE Licensed under CC BY 4.0 : see CAreadme.txt



0 BFC CERTIFY CCW



0 !HISTORY 2007-06-24 [PTadmin] Header formatted for Contributor Agreement

0 !HISTORY 2008-07-01 [PTadmin] Official Update 2008-01

0 !HISTORY 2017-01-15 [Steffen] BFCed

0 !HISTORY 2017-12-30 [PTadmin] Official Update 2017-01





2 24 1 0 0 0.9239 0 0.3827

2 24 0.9239 0 0.3827 0.7071 0 0.7071

2 24 0.7071 0 0.7071 0.3827 0 0.9239

2 24 0.3827 0 0.9239 0 0 1

2 24 0 0 1 -0.3827 0 0.9239

2 24 -0.3827 0 0.9239 -0.7071 0 0.7071

2 24 -0.7071 0 0.7071 -0.9239 0 0.3827

2 24 -0.9239 0 0.3827 -1 0 0

0 NOFILE

0 FILE 1-4cyls2.dat
0 Cylinder Sloped 0.25 Convex

0 Name: 1-4cyls2.dat

0 Author: Chris Dee [cwdee]

0 !LDRAW_ORG Primitive UPDATE 2012-01

0 !LICENSE Licensed under CC BY 4.0 : see CAreadme.txt



0 BFC CERTIFY CCW



0 !HISTORY 1999-02-01 [PTadmin] Official Update 1999-01

0 !HISTORY 2002-07-03 [sbliss] Added BFC statement, reformatted title to fit 0.27 convention

0 !HISTORY 2002-08-18 [PTadmin] Official Update 2002-04

0 !HISTORY 2007-06-22 [PTadmin] Header formatted for Contributor Agreement

0 !HISTORY 2008-07-01 [PTadmin] Official Update 2008-01

0 !HISTORY 2012-02-16 [Philo] Changed to CCW

0 !HISTORY 2012-03-30 [PTadmin] Official Update 2012-01





3 16 -0.3827 0.3827 0.9239 -0.3827 0 0.9239 0 0 1

4 16 -0.3827 0.3827 0.9239 -0.7071 0.7071 0.7071 -0.7071 0 0.7071 -0.3827 0 0.9239

4 16 -0.7071 0.7071 0.7071 -0.9239 0.9239 0.3827 -0.9239 0 0.3827 -0.7071 0 0.7071

4 16 -0.9239 0.9239 0.3827 -1 1 0 -1 0 0 -0.9239 0 0.3827



5 24 -0.3827 0 0.9239 -0.3827 0.3827 0.9239 -0.7071 0 0.7071 0 0 1

5 24 -0.7071 0 0.7071 -0.7071 0.7071 0.7071 -0.9239 0 0.3827 -0.3827 0 0.9239

5 24 -0.9239 0 0.3827 -0.9239 0.9239 0.3827 -1 0 0 -0.7071 0 0.7071

5 24 -1 0 0 -1 1 0 -1 0 -1 -0.9239 0 0.3827

0 NOFILE

0 FILE box2-7.dat
0 Box with  2 Faces without  7 Edges

0 Name: box2-7.dat

0 Author: Willy Tschager [Holly-Wood]

0 !LDRAW_ORG Primitive UPDATE 2024-01

0 !LICENSE Licensed under CC BY 4.0 : see CAreadme.txt



0 BFC CERTIFY CCW



0 !HISTORY 2009-05-02 [PTadmin] Official Update 2009-01

0 !HISTORY 2024-01-02 [Holly-Wood] Complete re-write, original by guyvivan

0 !HISTORY 2024-01-29 [OrionP] Official Update 2024-01



2 24 -1 1 -1 -1 1 1

2 24 1 1 1 1 1 -1

4 16 -1 1 1 1 1 1 1 1 -1 -1 1 -1



2 24 -1 1 1 -1 -1 1

2 24 1 1 1 1 -1 1

4 16 1 -1 1 1 1 1 -1 1 1 -1 -1 1



2 24 -1 1 1 1 1 1

0 NOFILE

0 FILE 48__1-8edge.dat
0 Hi-Res Circle 0.125

0 Name: 48\1-8edge.dat

0 Author: [PTadmin]

0 !LDRAW_ORG 48_Primitive UPDATE 2017-01

0 !LICENSE Licensed under CC BY 4.0 : see CAreadme.txt



0 BFC CERTIFY CCW



0 !HISTORY 2000-09-30 [PTadmin] Official Update 2000-02

0 !HISTORY 2007-10-13 [PTadmin] Header formatted for Contributor Agreement

0 !HISTORY 2008-07-01 [PTadmin] Official Update 2008-01

0 !HISTORY 2017-01-17 [Steffen] added BFC CERTIFY statement

0 !HISTORY 2017-12-30 [PTadmin] Official Update 2017-01





2 24 1 0 0 0.9914 0 0.1305

2 24 0.9914 0 0.1305 0.9659 0 0.2588

2 24 0.9659 0 0.2588 0.9239 0 0.3827

2 24 0.9239 0 0.3827 0.866 0 0.5

2 24 0.866 0 0.5 0.7934 0 0.6088

2 24 0.7934 0 0.6088 0.7071 0 0.7071

0 NOFILE

0 FILE 48__1-8chrd.dat
0 Hi-Res Chord 0.125

0 Name: 48\1-8chrd.dat

0 Author: Willy Tschager [Holly-Wood]

0 !LDRAW_ORG 48_Primitive UPDATE 2024-01

0 !LICENSE Licensed under CC BY 4.0 : see CAreadme.txt



0 BFC CERTIFY CCW



0 !HISTORY 2009-05-02 [PTadmin] Official Update 2009-01

0 !HISTORY 2024-01-04 [Holly-Wood] Complete re-write, original by guyvivan

0 !HISTORY 2024-01-29 [OrionP] Official Update 2024-01



0 // Vertices calculated by LDPartEditor (PrimGen 2.X)



4 16 .7071 0 .7071 1 0 0 .9914 0 .1305 .7934 0 .6088

4 16 .7934 0 .6088 .9914 0 .1305 .9659 0 .2588 .866 0 .5

3 16 .866 0 .5 .9659 0 .2588 .9239 0 .3827

0 NOFILE

0 FILE recte3.dat
0 Rectangle Empty with 3 Edges

0 Name: recte3.dat

0 Author: Steffen [Steffen]

0 !LDRAW_ORG Primitive UPDATE 2011-01

0 !LICENSE Licensed under CC BY 4.0 : see CAreadme.txt



0 BFC CERTIFY CCW



0 !HISTORY 2011-07-25 [PTadmin] Official Update 2011-01





2 24 1 0 1 -1 0 1

2 24 -1 0 1 -1 0 -1

2 24 1 0 -1 1 0 1

0 NOFILE

0 FILE box2-5.dat
0 Box with 2 Faces without 5 Edges

0 Name: box2-5.dat

0 Author: Steffen [Steffen]

0 !LDRAW_ORG Primitive UPDATE 2003-03

0 !LICENSE Licensed under CC BY 4.0 : see CAreadme.txt



0 BFC CERTIFY CCW



0 !HISTORY 2003-12-19 [PTadmin] Official Update 2003-03

0 !HISTORY 2007-06-24 [PTadmin] Header formatted for Contributor Agreement

0 !HISTORY 2008-07-01 [PTadmin] Official Update 2008-01





2 24 1 1 1 -1 1 1

2 24 1 1 -1 -1 1 -1

2 24 1 -1 1 -1 -1 1

2 24 -1 -1 1 -1 1 1

2 24 1 -1 1 1 1 1

2 24 -1 1 -1 -1 1 1

2 24 1 1 -1 1 1 1

4 16 1 1 1 1 1 -1 -1 1 -1 -1 1 1

4 16 1 1 1 -1 1 1 -1 -1 1 1 -1 1

0

0 NOFILE

0 FILE 11477.dat
0 Slope Brick Curved  2 x  1

0 Name: 11477.dat

0 Author: Owen Burgoyne [C3POwen]

0 !LDRAW_ORG Part UPDATE 2013-01

0 !LICENSE Licensed under CC BY 4.0 : see CAreadme.txt



0 BFC CERTIFY CCW



0 !HISTORY 2013-07-21 [PTadmin] Official Update 2013-01





1 16 0 0 0 1 0 0 0 1 0 0 0 1 s__11477s01.dat

1 16 10 24.972 20 0 -20 0 -28.9719 0 -28.9719 -40 0 40 48__1-8cyli.dat

0 NOFILE

0 FILE s__11477s01.dat
0 ~Slope Brick Curved  2 x  1 without Top Surface

0 Name: s\11477s01.dat

0 Author: Owen Burgoyne [C3POwen]

0 !LDRAW_ORG Subpart UPDATE 2023-01

0 !LICENSE Licensed under CC BY 4.0 : see CAreadme.txt



0 BFC CERTIFY CCW



0 !HISTORY 2013-07-21 [PTadmin] Official Update 2013-01

0 !HISTORY 2022-04-09 [MagFors] Unified left and right side, closed gap

0 !HISTORY 2023-03-05 [OrionP] Official Update 2023-01





1 16 0 -12 20 -10 0 0 0 0 -4 0 -1 0 rect.dat

4 16 6 -8 16 -6 -8 16 -10 -8 20 10 -8 20

4 16 -6 -8 16 -6 -8 0 -10 -8 0 -10 -8 20

4 16 10 -8 20 10 -8 0 6 -8 0 6 -8 16

2 24 -10 -8 20 -10 -8 0

2 24 10 -8 20 10 -8 0

2 24 -10 -8 0 -6 -8 0

2 24 10 -8 0 6 -8 0

0 BFC INVERTNEXT

1 16 0 -10 13 -6 0 0 0 -2 0 0 0 3 box2-7.dat

1 16 0 -8 8 -6 0 0 0 -1 0 0 0 8 recte3.dat

4 16 -6 -12 10 -6 -10 4 -6 -8 16 -6 -12 16

4 16 -6 -10 0 -6 -8 0 -6 -8 16 -6 -10 4

4 16 6 -8 16 6 -10 4 6 -12 10 6 -12 16

4 16 6 -10 4 6 -8 16 6 -8 0 6 -10 0

0 BFC INVERTNEXT

1 16 0 -12 10 0 0 -6 0 2 0 6 0 0 1-4cyls2.dat

0 BFC INVERTNEXT

1 16 0 -12 10 0 0 6 0 2 0 6 0 0 1-4cyls2.dat

1 16 0 -12 10 -6 0 0 0 -1 0 0 0 -6 2-4edge.dat

1 16 0 -12 10 -6 0 0 0 -1 0 0 0 -6 2-4chrd.dat

1 16 0 -12 10 -6 0 0 0 -1 2 0 0 -6 2-4edge.dat

1 16 0 -12 10 -6 0 0 0 -1 2 0 0 -6 2-4ndis.dat

2 24 -6 -12 10 -6 -10 4

2 24 6 -12 10 6 -10 4

2 24 -1.5 -10 4 -6 -10 4

2 24 1.5 -10 4 6 -10 4

0 BFC INVERTNEXT

1 16 -3.75 -9 2 -2.25 0 0 0 -1 0 0 0 -2 box2-9.dat

1 16 0 -10 2 1.5 0 0 0 2 0 0 0 2 box4-1.dat

0 BFC INVERTNEXT

1 16 3.75 -9 2 2.25 0 0 0 -1 0 0 0 -2 box2-9.dat

1 16 0 -4 0 10 0 0 0 0 4 0 -1 0 recte3.dat

3 16 -10 -8 0 -6 -8 0 -10 0 0

3 16 -10 0 0 -6 -8 0 -1.5 -8 0

3 16 1.5 -8 0 6 -8 0 10 0 0

4 16 -1.5 -8 0 1.5 -8 0 10 0 0 -10 0 0

3 16 10 0 0 6 -8 0 10 -8 0

4 16 -6 0 -4 -10 0 0 10 0 0 6 0 -4

4 16 -6 0 -16 -10 0 -20 -10 0 0 -6 0 -4

4 16 6 0 -16 10 0 -20 -10 0 -20 -6 0 -16

4 16 6 0 -4 10 0 0 10 0 -20 6 0 -16

1 16 0 0 -10 6 0 0 0 -1 0 0 0 -6 recte3.dat

1 16 0 0 -10 10 0 0 0 -1 0 0 0 -10 recte3.dat

3 16 -6 0 -4 -6 -7 -4 -6 -4 -10

3 16 6 -4 -10 6 -7 -4 6 0 -4

4 16 -6 0 -4 -6 -4 -10 -6 -2 -16 -6 0 -16

4 16 6 0 -16 6 -2 -16 6 -4 -10 6 0 -4

0 BFC INVERTNEXT

1 16 0 -2 -7 6 0 0 0 -1.5 -3.5 0 3 0 box2-5.dat

0 BFC INVERTNEXT

1 16 0 -4 -10 0 0 -6 0 2 0 6 0 0 1-4cyls2.dat

0 BFC INVERTNEXT

1 16 0 -4 -10 0 0 6 0 2 0 6 0 0 1-4cyls2.dat

1 16 0 -4 -10 -6 0 0 0 -1 0 0 0 -6 2-4edge.dat

1 16 0 -4 -10 -6 0 0 0 -1 0 0 0 -6 2-4chrd.dat

1 16 0 -4 -10 -6 0 0 0 -1 2 0 0 -6 2-4edge.dat

1 16 0 -4 -10 -6 0 0 0 -1 2 0 0 -6 2-4ndis.dat

2 24 -6 -2 -16 -6 -4 -10

2 24 6 -2 -16 6 -4 -10

1 16 0 -1 -16 -6 0 0 0 0 -1 0 -1 0 rect3.dat

1 16 0 -2 -20 10 0 0 0 0 -2 0 1 0 rect3.dat



0 // Sides

3 16 -10 -16 20 -10 -8 20 -10 -8 0

3 16 10 -16 20 10 -8 0 10 -8 20

4 16 -10 0 -20 -10 -4 -20 -10 -8 0 -10 0 0

4 16 10 0 0 10 -8 0 10 -4 -20 10 0 -20

3 16 -10 -4 -20 -10 -16 20 -10 -8 0

3 16 10 -8 0 10 -16 20 10 -4 -20

1 16 -10 24.972 20 0 1 0 -28.9719 0 -28.9719 -40 0 40 48__1-8chrd.dat

1 16 10 24.972 20 0 -1 0 -28.9719 0 -28.9719 -40 0 40 48__1-8chrd.dat

1 16 -10 24.972 20 0 1 0 -28.9719 0 -28.9719 -40 0 40 48__1-8edge.dat

1 16 10 24.972 20 0 1 0 -28.9719 0 -28.9719 -40 0 40 48__1-8edge.dat

0 NOFILE

0 FILE 26047.dat
0 Plate  1 x  1 Round with Horizontal Handle on Side

0 Name: 26047.dat

0 Author: Magnus Forsberg [MagFors]

0 !LDRAW_ORG Part UPDATE 2022-06

0 !LICENSE Licensed under CC BY 4.0 : see CAreadme.txt



0 BFC CERTIFY CCW



0 !HISTORY 2016-12-31 [PTadmin] Official Update 2016-01

0 !HISTORY 2021-11-03 [MagFors] used handle primitive

0 !HISTORY 2022-12-20 [PTadmin] Official Update 2022-06





1 16 0 0 0 0 0 -1 0 1 0 1 0 0 stud.dat

0 BFC INVERTNEXT

1 16 0 8 -3 6 0 0 0 -4 0 0 0 -3 box4-4a.dat

0 BFC INVERTNEXT

1 16 0 4 0 6 0 0 0 4 0 0 0 6 2-4cylo.dat

1 16 0 4 0 6 0 0 0 -1 0 0 0 6 2-4chrd.dat

1 16 0 8 0 2 0 0 0 -1 0 0 0 2 2-4ring3.dat

1 16 0 8 0 2 0 0 0 -1 0 0 0 2 2-4ring4.dat

3 16 -8 8 0 -6 8 0 -6 8 -6

4 16 -8 8 0 -6 8 -6 -10 8 -10 -10 8 0

4 16 10 8 -10 6 8 -6 8 8 0 10 8 0

3 16 6 8 0 8 8 0 6 8 -6

4 16 -4 8 -10 -6 8 -6 6 8 -6 4 8 -10

3 16 -10 8 -10 -6 8 -6 -4 8 -10

3 16 4 8 -10 6 8 -6 10 8 -10

1 16 0 0 0 10 0 0 0 8 0 0 0 10 2-4cylo.dat

1 16 0 0 0 10 0 0 0 1 0 0 0 10 2-4chrd.dat

1 16 0 4 -10 0 0 -4 4 0 0 0 1 0 rect.dat

1 16 4 2 -20 0 -8 0 4 0 0 0 0 4 4-4cylo.dat

1 16 10 4 -5 0 -1 0 0 0 -4 5 0 0 rect2p.dat

1 16 -10 4 -5 0 1 0 0 0 -4 -5 0 0 rect2p.dat

4 16 -4 0 -10 4 0 -10 10 0 0 -10 0 0

3 16 4 0 -10 10 0 -10 10 0 0

3 16 -10 0 -10 -4 0 -10 -10 0 0

1 16 -7 0 -20 1 0 0 0 1 0 0 0 1 phandle1.dat

1 16 7 0 -20 -1 0 0 0 1 0 0 0 1 phandle1.dat

0 NOFILE

0 FILE phandle1.dat
0 Bar Handle Attachment with Open Side

0 Name: phandle1.dat

0 Author: Gerald Lasser [GeraldLasser]

0 !LDRAW_ORG Primitive UPDATE 2024-02

0 !LICENSE Licensed under CC BY 4.0 : see CAreadme.txt



0 BFC CERTIFY CCW



0 !HISTORY 2022-12-20 [PTadmin] Official Update 2022-06

0 !HISTORY 2024-03-23 [OrionP] Updated ring primitives

0 !HISTORY 2024-03-24 [OrionP] Official Update 2024-02



1 16 0 -.149 5.5735 3 0 0 0 1 .149 0 0 .0295 rect3.dat

1 16 -3 2 0 0 6 0 -6 0 0 0 0 6 3-16cylo.dat

1 16 -3 2 0 0 6 0 -6 0 0 0 0 -6 2-4cylo.dat

1 16 -3 2 0 0 1 0 6 0 0 0 0 -6 2-4chrd.dat

1 16 -3 2 0 0 6 0 -6 0 0 0 0 6 3-16chrd.dat



1 16 3 2 0 0 -1 0 4 0 0 0 0 4 1-4ndis.dat

1 16 3 2 0 0 -1 0 0 0 -4 4 0 0 1-16tang.dat

1 16 3 2 0 0 -1 0 2 0 0 0 0 -2 2-4ring2.dat

1 16 3 2 0 0 -1 0 -2 0 0 0 0 2 3-16ring2.dat

1 16 0 8 5 0 0 3 0 -1 0 5 0 0 rect2p.dat

1 16 0 0 7.8015 0 0 3 0 1 0 -2.1985 0 0 rect2p.dat

4 16 -3 8 10 -3 8 0 -3 0 5.603 -3 0 10

4 16 3 8 10 3 0 10 3 2 4 3 6 4

4 16 3 8 10 3 6 4 3 6 0 3 8 0

5 24 -3 -.298 5.544 3 -.298 5.544 3 0 5.603 3 -2.2426 4.2426

4 16 -3 -.298 5.544 -3 0 5.603 -3 8 0 -3 -4 0

4 16 3 0 5.603 3 -.298 5.544 3 .4692 3.6956 3 1.2044 4

4 16 3 1.2044 4 3 2 4 3 0 10 3 0 5.603

0 NOFILE

0 FILE 3-16ring2.dat
0 Ring  2 x 0.1875

0 Name: 3-16ring2.dat

0 Author: Philippe Hurbain [Philo]

0 !LDRAW_ORG Primitive UPDATE 2024-02

0 !LICENSE Licensed under CC BY 4.0 : see CAreadme.txt



0 BFC CERTIFY CCW



0 !HISTORY 2009-12-29 [PTadmin] Official Update 2009-03

0 !HISTORY 2024-03-23 [OrionP] Moved from 3-16rin2.dat

0 !HISTORY 2024-03-24 [OrionP] Official Update 2024-02



4 16 2 0 0 3 0 0 2.7717 0 1.1481 1.8478 0 0.7654

4 16 1.8478 0 0.7654 2.7717 0 1.1481 2.1213 0 2.1213 1.4142 0 1.4142

4 16 1.4142 0 1.4142 2.1213 0 2.1213 1.1481 0 2.7717 0.7654 0 1.8478



0 // end of file



0 NOFILE

0 FILE 2-4ring2.dat
0 Ring  2 x 0.5

0 Name: 2-4ring2.dat

0 Author: Chris Dee [cwdee]

0 !LDRAW_ORG Primitive UPDATE 2012-01

0 !LICENSE Licensed under CC BY 4.0 : see CAreadme.txt



0 BFC CERTIFY CCW



0 !HISTORY 2001-10-26 [PTadmin] Official Update 2001-01

0 !HISTORY 2007-06-24 [PTadmin] Header formatted for Contributor Agreement

0 !HISTORY 2008-07-01 [PTadmin] Official Update 2008-01

0 !HISTORY 2012-02-16 [Philo] Changed to CCW

0 !HISTORY 2012-03-30 [PTadmin] Official Update 2012-01





4 16 3 0 0 2.7717 0 1.1481 1.8478 0 0.7654 2 0 0

4 16 2.7717 0 1.1481 2.1213 0 2.1213 1.4142 0 1.4142 1.8478 0 0.7654

4 16 2.1213 0 2.1213 1.1481 0 2.7717 0.7654 0 1.8478 1.4142 0 1.4142

4 16 1.1481 0 2.7717 0 0 3 0 0 2 0.7654 0 1.8478

4 16 0 0 3 -1.1481 0 2.7717 -0.7654 0 1.8478 0 0 2

4 16 -1.1481 0 2.7717 -2.1213 0 2.1213 -1.4142 0 1.4142 -0.7654 0 1.8478

4 16 -2.1213 0 2.1213 -2.7717 0 1.1481 -1.8478 0 0.7654 -1.4142 0 1.4142

4 16 -2.7717 0 1.1481 -3 0 0 -2 0 0 -1.8478 0 0.7654

0 NOFILE

0 FILE 1-16tang.dat
0 Disc Negative Tangent 0.0625

0 Name: 1-16tang.dat

0 Author: Gerald Lasser [GeraldLasser]

0 !LDRAW_ORG Primitive UPDATE 2020-02

0 !LICENSE Licensed under CC BY 4.0 : see CAreadme.txt



0 BFC CERTIFY CCW



0 !HISTORY 2020-09-05 [PTadmin] Official Update 2020-02





3 16 1 0 0 1 0 .1989 .9239 0 .3827

0 NOFILE

0 FILE 1-4ndis.dat
0 Disc Negative 0.25

0 Name: 1-4ndis.dat

0 Author: James Jessiman

0 !LDRAW_ORG Primitive UPDATE 2012-01

0 !LICENSE Licensed under CC BY 4.0 : see CAreadme.txt



0 BFC CERTIFY CCW



0 !HISTORY 2002-03-23 [sbliss] Added BFC Statement

0 !HISTORY 2002-04-25 [PTadmin] Official Update 2002-02

0 !HISTORY 2007-06-22 [PTadmin] Header formatted for Contributor Agreement

0 !HISTORY 2008-07-01 [PTadmin] Official Update 2008-01

0 !HISTORY 2012-02-16 [Philo] Changed to CCW

0 !HISTORY 2012-03-30 [PTadmin] Official Update 2012-01





3 16 0.9239 0 0.3827 1 0 0 1 0 1

3 16 0.7071 0 0.7071 0.9239 0 0.3827 1 0 1

3 16 0.3827 0 0.9239 0.7071 0 0.7071 1 0 1

3 16 0 0 1 0.3827 0 0.9239 1 0 1

0 NOFILE

0 FILE 3-16chrd.dat
0 Chord 0.1875

0 Name: 3-16chrd.dat

0 Author: Niels Karsdorp [nielsk]

0 !LDRAW_ORG Primitive UPDATE 2009-01

0 !LICENSE Licensed under CC BY 4.0 : see CAreadme.txt



0 BFC CERTIFY CCW



0 !HISTORY 2009-05-02 [PTadmin] Official Update 2009-01





4 16 1 0 0 0.9239 0 0.3827 0.7071 0 0.7071 0.3827 0 0.9239

0



0 NOFILE

0 FILE 3-16cylo.dat
0 Cylinder Open 0.1875

0 Name: 3-16cylo.dat

0 Author: J.C. Tchang [tchang]

0 !LDRAW_ORG Primitive UPDATE 2013-01

0 !LICENSE Licensed under CC BY 4.0 : see CAreadme.txt



0 BFC CERTIFY CCW



0 !HISTORY 2013-07-21 [PTadmin] Official Update 2013-01





1 16 0 0 0 1 0 0 0 1 0 0 0 1 3-16edge.dat

1 16 0 1 0 1 0 0 0 1 0 0 0 1 3-16edge.dat

1 16 0 0 0 1 0 0 0 1 0 0 0 1 3-16cyli.dat

0 NOFILE

0 FILE 3-16cyli.dat
0 Cylinder 0.1875

0 Name: 3-16cyli.dat

0 Author: Mark Kennedy [mkennedy]

0 !LDRAW_ORG Primitive UPDATE 2005-01

0 !LICENSE Licensed under CC BY 4.0 : see CAreadme.txt



0 BFC CERTIFY CCW



0 !HISTORY 2004-03-02 [PTadmin] Official Update 2004-01

0 !HISTORY 2004-12-11 [nielsk] Recreated using Primitive Generator, Edge lines fixed, BFC changed to CCW

0 !HISTORY 2005-12-28 [PTadmin] Official Update 2005-01

0 !HISTORY 2007-06-24 [PTadmin] Header formatted for Contributor Agreement

0 !HISTORY 2008-07-01 [PTadmin] Official Update 2008-01





4 16 .9239 1 .3827 .9239 0 .3827 1 0 0 1 1 0

4 16 .7071 1 .7071 .7071 0 .7071 .9239 0 .3827 .9239 1 .3827

4 16 .3827 1 .9239 .3827 0 .9239 .7071 0 .7071 .7071 1 .7071

5 24 1 1 0 1 0 0 1 1 -.4142 .9239 1 .3827

5 24 .9239 1 .3827 .9239 0 .3827 1 1 0 .7071 1 .7071

5 24 .7071 1 .7071 .7071 0 .7071 .9239 1 .3827 .3827 1 .9239

5 24 .3827 1 .9239 .3827 0 .9239 .7071 1 .7071 0 1 1.0824

0

0 NOFILE

0 FILE 3-16edge.dat
0 Circle 0.1875

0 Name: 3-16edge.dat

0 Author: Donald Sutter [technog]

0 !LDRAW_ORG Primitive UPDATE 2017-01

0 !LICENSE Licensed under CC BY 4.0 : see CAreadme.txt



0 BFC CERTIFY CCW



0 !HISTORY 2004-03-02 [PTadmin] Official Update 2004-01

0 !HISTORY 2007-06-24 [PTadmin] Header formatted for Contributor Agreement

0 !HISTORY 2008-07-01 [PTadmin] Official Update 2008-01

0 !HISTORY 2017-01-15 [Steffen] BFCed

0 !HISTORY 2017-12-30 [PTadmin] Official Update 2017-01





2 24 1 0 0 0.9239 0 0.3827

2 24 0.9239 0 0.3827 0.7071 0 0.7071

2 24 0.7071 0 0.7071 0.3827 0 0.9239

0 NOFILE

0 FILE 4-4cylo.dat
0 Cylinder Open 1.0

0 Name: 4-4cylo.dat

0 Author: Mark Kennedy [mkennedy]

0 !LDRAW_ORG Primitive UPDATE 2010-01

0 !LICENSE Licensed under CC BY 4.0 : see CAreadme.txt



0 BFC CERTIFY CCW



0 !HISTORY 2010-04-05 [PTadmin] Official Update 2010-01





1 16 0 0 0 1 0 0 0 1 0 0 0 1 4-4edge.dat

1 16 0 1 0 1 0 0 0 1 0 0 0 1 4-4edge.dat

1 16 0 0 0 1 0 0 0 1 0 0 0 1 4-4cyli.dat

0
0 NOFILE

0 FILE 2-4ring4.dat
0 Ring  4 x 0.5

0 Name: 2-4ring4.dat

0 Author: Paul Easter [pneaster]

0 !LDRAW_ORG Primitive UPDATE 2012-01

0 !LICENSE Licensed under CC BY 4.0 : see CAreadme.txt



0 BFC CERTIFY CCW



0 !HISTORY 2000-09-30 [PTadmin] Official Update 2000-02

0 !HISTORY 2003-06-11 [pneaster] Corrected Values

0 !HISTORY 2003-08-01 [PTadmin] Official Update 2003-02

0 !HISTORY 2007-06-24 [PTadmin] Header formatted for Contributor Agreement

0 !HISTORY 2008-07-01 [PTadmin] Official Update 2008-01

0 !HISTORY 2012-02-16 [Philo] Changed to CCW

0 !HISTORY 2012-03-30 [PTadmin] Official Update 2012-01





4 16 5 0 0 4.6195 0 1.9135 3.6956 0 1.5308 4 0 0

4 16 4.6195 0 1.9135 3.5355 0 3.5355 2.8284 0 2.8284 3.6956 0 1.5308

4 16 3.5355 0 3.5355 1.9135 0 4.6195 1.5308 0 3.6956 2.8284 0 2.8284

4 16 1.9135 0 4.6195 0 0 5 0 0 4 1.5308 0 3.6956

4 16 0 0 5 -1.9135 0 4.6195 -1.5308 0 3.6956 0 0 4

4 16 -1.9135 0 4.6195 -3.5355 0 3.5355 -2.8284 0 2.8284 -1.5308 0 3.6956

4 16 -3.5355 0 3.5355 -4.6195 0 1.9135 -3.6956 0 1.5308 -2.8284 0 2.8284

4 16 -4.6195 0 1.9135 -5 0 0 -4 0 0 -3.6956 0 1.5308

0 NOFILE

0 FILE 2-4ring3.dat
0 Ring  3 x 0.5

0 Name: 2-4ring3.dat

0 Author: James Jessiman

0 !LDRAW_ORG Primitive UPDATE 2012-01

0 !LICENSE Licensed under CC BY 4.0 : see CAreadme.txt



0 BFC CERTIFY CCW



0 !HISTORY 1998-12-15 [PTadmin] Official Update 1998-10

0 !HISTORY 2003-01-21 [cavehop] Update Added BFC and some header info

0 !HISTORY 2003-03-12 [PTadmin] Official Update 2003-01

0 !HISTORY 2003-08-01 [PTadmin] Official Update 2003-02

0 !HISTORY 2007-06-24 [PTadmin] Header formatted for Contributor Agreement

0 !HISTORY 2008-07-01 [PTadmin] Official Update 2008-01

0 !HISTORY 2012-02-16 [Philo] Changed to CCW

0 !HISTORY 2012-03-30 [PTadmin] Official Update 2012-01





4 16 4 0 0 3.6956 0 1.5308 2.7717 0 1.1481 3 0 0

4 16 3.6956 0 1.5308 2.8284 0 2.8284 2.1213 0 2.1213 2.7717 0 1.1481

4 16 2.8284 0 2.8284 1.5308 0 3.6956 1.1481 0 2.7717 2.1213 0 2.1213

4 16 1.5308 0 3.6956 0 0 4 0 0 3 1.1481 0 2.7717

4 16 0 0 4 -1.5308 0 3.6956 -1.1481 0 2.7717 0 0 3

4 16 -1.5308 0 3.6956 -2.8284 0 2.8284 -2.1213 0 2.1213 -1.1481 0 2.7717

4 16 -2.8284 0 2.8284 -3.6956 0 1.5308 -2.7717 0 1.1481 -2.1213 0 2.1213

4 16 -3.6956 0 1.5308 -4 0 0 -3 0 0 -2.7717 0 1.1481

0 NOFILE

0 FILE 2-4cylo.dat
0 Cylinder Open 0.5

0 Name: 2-4cylo.dat

0 Author: Max Martin Richter [MMR1988]

0 !LDRAW_ORG Primitive UPDATE 2010-03

0 !LICENSE Licensed under CC BY 4.0 : see CAreadme.txt



0 BFC CERTIFY CCW



0 !HISTORY 2010-12-31 [PTadmin] Official Update 2010-03





1 16 0 0 0 1 0 0 0 1 0 0 0 1 2-4edge.dat

1 16 0 1 0 1 0 0 0 1 0 0 0 1 2-4edge.dat

1 16 0 0 0 1 0 0 0 1 0 0 0 1 2-4cyli.dat

0 NOFILE

0 FILE box4-4a.dat
0 Box with  4 Faces without  4 Adjacent Edges

0 Name: box4-4a.dat

0 Author: Willy Tschager [Holly-Wood]

0 !LDRAW_ORG Primitive UPDATE 2024-01

0 !LICENSE Licensed under CC BY 4.0 : see CAreadme.txt



0 BFC CERTIFY CCW



0 !HISTORY 1998-07-15 [PTadmin] Official Update 1998-07

0 !HISTORY 2002-12-13 [hafhead] Made BFC compliant

0 !HISTORY 2003-03-12 [PTadmin] Official Update 2003-01

0 !HISTORY 2007-06-24 [PTadmin] Header formatted for Contributor Agreement

0 !HISTORY 2008-07-01 [PTadmin] Official Update 2008-01

0 !HISTORY 2012-02-16 [Philo] Changed to CCW

0 !HISTORY 2012-03-30 [PTadmin] Official Update 2012-01

0 !HISTORY 2024-01-03 [Holly-Wood] Complete re-write, original by Manfred Moolhuysen

0 !HISTORY 2024-01-29 [OrionP] Official Update 2024-01



2 24 -1 1 -1 -1 1 1

2 24 1 1 1 1 1 -1

2 24 -1 1 1 1 1 1

4 16 1 1 1 1 1 -1 -1 1 -1 -1 1 1



2 24 -1 0 -1 -1 0 1

4 16 -1 1 1 -1 1 -1 -1 0 -1 -1 0 1



2 24 1 0 1 1 0 -1

4 16 1 1 -1 1 1 1 1 0 1 1 0 -1



2 24 1 1 1 1 0 1

2 24 -1 1 1 -1 0 1

2 24 -1 0 1 1 0 1

4 16 1 1 1 -1 1 1 -1 0 1 1 0 1

0 NOFILE

0 FILE 2555.dat
0 Tile  1 x  1 with Clip

0 Name: 2555.dat

0 Author: James Jessiman

0 !LDRAW_ORG Part UPDATE 2025-09

0 !LICENSE Licensed under CC BY 4.0 : see CAreadme.txt



0 BFC CERTIFY CCW



0 !HISTORY 2003-11-13 [sbliss] Updated 3070 reference to 3070a

0 !HISTORY 2003-11-13 [Steffen] BFCed

0 !HISTORY 2003-12-19 [PTadmin] Official Update 2003-03

0 !HISTORY 2007-05-14 [PTadmin] Header formatted for Contributor Agreement

0 !HISTORY 2008-07-01 [PTadmin] Official Update 2008-01

0 !HISTORY 2013-12-15 [MagFors] Added edge lines inside the clip

0 !HISTORY 2013-12-23 [PTadmin] Official Update 2013-02

0 !HISTORY 2025-09-27 [OrionP] Changed winding to CCW

0 !HISTORY 2025-09-29 [OrionP] Official Update 2025-09



1 16 0 0 0 1 0 0 0 1 0 0 0 1 3070a.dat



2 24 10 0 4 -10 0 4

2 24 10 0 -4 -10 0 -4

4 16 10 0 -4 4 -2 -4 -4 -2 -4 -10 0 -4

4 16 -10 0 4 -4 -2 4 4 -2 4 10 0 4

1 16 0 -6 4 0 0 -4 4 0 0 0 -1 0 5-16ndis.dat

1 16 0 -6 4 0 0 4 4 0 0 0 -1 0 5-16ndis.dat

1 16 0 -6 -4 0 0 -4 4 0 0 0 1 0 5-16ndis.dat

1 16 0 -6 -4 0 0 4 4 0 0 0 1 0 5-16ndis.dat

0 BFC INVERTNEXT

1 16 0 -6 4 0 0 -4 4 0 0 0 -8 0 5-16cylo.dat

0 BFC INVERTNEXT

1 16 0 -6 4 0 0 4 4 0 0 0 -8 0 5-16cylo.dat

1 16 -3.8478 -8.7654 0 0 -1 -0.1522 0 0 -1.2346 -4 0 0 rect.dat

1 16 3.8478 -8.7654 0 0 1 0.1522 0 0 -1.2346 4 0 0 rect.dat

1 16 7 -5 0 0 2 -1 0 0 -5 -4 0 0 box2-7.dat

1 16 -7 -5 0 0 -2 1 0 0 -5 4 0 0 box2-7.dat

4 16 10 0 -4 8 -10 -4 4 -6 -4 4 -2 -4

3 16 4 -10 -4 4 -6 -4 8 -10 -4

4 16 -4 -2 -4 -4 -6 -4 -8 -10 -4 -10 0 -4

3 16 -8 -10 -4 -4 -6 -4 -4 -10 -4

4 16 4 -2 4 4 -6 4 8 -10 4 10 0 4

3 16 8 -10 4 4 -6 4 4 -10 4

4 16 -10 0 4 -8 -10 4 -4 -6 4 -4 -2 4

3 16 -4 -10 4 -4 -6 4 -8 -10 4
0 NOFILE

0 FILE 5-16cylo.dat
0 Cylinder Open 0.3125

0 Name: 5-16cylo.dat

0 Author: Max Martin Richter [MMR1988]

0 !LDRAW_ORG Primitive UPDATE 2013-01

0 !LICENSE Licensed under CC BY 4.0 : see CAreadme.txt



0 BFC CERTIFY CCW



0 !HISTORY 2013-07-21 [PTadmin] Official Update 2013-01





1 16 0 0 0 1 0 0 0 1 0 0 0 1 5-16cyli.dat

1 16 0 0 0 1 0 0 0 1 0 0 0 1 5-16edge.dat

1 16 0 1 0 1 0 0 0 1 0 0 0 1 5-16edge.dat

0 NOFILE

0 FILE 5-16edge.dat
0 Circle 0.3125

0 Name: 5-16edge.dat

0 Author: Philippe Hurbain [Philo]

0 !LDRAW_ORG Primitive UPDATE 2009-03

0 !LICENSE Licensed under CC BY 4.0 : see CAreadme.txt



0 BFC CERTIFY CCW



0 !HISTORY 2009-12-29 [PTadmin] Official Update 2009-03





2 24 1 0 0 0.9239 0 0.3827

2 24 0.9239 0 0.3827 0.7071 0 0.7071

2 24 0.7071 0 0.7071 0.3827 0 0.9239

2 24 0.3827 0 0.9239 0 0 1

2 24 0 0 1 -0.3827 0 0.9239



0 // end of file



0 NOFILE

0 FILE 5-16cyli.dat
0 Cylinder 0.3125

0 Name: 5-16cyli.dat

0 Author: Philippe Hurbain [Philo]

0 !LDRAW_ORG Primitive UPDATE 2009-03

0 !LICENSE Licensed under CC BY 4.0 : see CAreadme.txt



0 BFC CERTIFY CCW



0 !HISTORY 2009-12-29 [PTadmin] Official Update 2009-03





4 16 0.9239 0 0.3827 1 0 0 1 1 0 0.9239 1 0.3827

4 16 0.7071 0 0.7071 0.9239 0 0.3827 0.9239 1 0.3827 0.7071 1 0.7071

4 16 0.3827 0 0.9239 0.7071 0 0.7071 0.7071 1 0.7071 0.3827 1 0.9239

4 16 0 0 1 0.3827 0 0.9239 0.3827 1 0.9239 0 1 1

4 16 -0.3827 0 0.9239 0 0 1 0 1 1 -0.3827 1 0.9239



0 // conditional lines

5 24 1 1 0 1 0 0 1 1 -0.4142 0.9239 1 0.3827

5 24 0.9239 1 0.3827 0.9239 0 0.3827 1 1 0 0.7071 1 0.7071

5 24 0.7071 1 0.7071 0.7071 0 0.7071 0.9239 1 0.3827 0.3827 1 0.9239

5 24 0.3827 1 0.9239 0.3827 0 0.9239 0.7071 1 0.7071 0 1 1

5 24 0 1 1 0 0 1 0.3827 1 0.9239 -0.3827 1 0.9239

5 24 -0.3827 1 0.9239 -0.3827 0 0.9239 0 1 1 -0.7654 1 0.7654



0 // end of file



0 NOFILE

0 FILE 5-16ndis.dat
0 Disc Negative 0.3125

0 Name: 5-16ndis.dat

0 Author: Max Martin Richter [MMR1988]

0 !LDRAW_ORG Primitive UPDATE 2013-01

0 !LICENSE Licensed under CC BY 4.0 : see CAreadme.txt



0 BFC CERTIFY CCW



0 !HISTORY 2013-07-21 [PTadmin] Official Update 2013-01





3 16 1 0 1 0.9239 0 0.3827 1 0 0

3 16 1 0 1 0.7071 0 0.7071 0.9239 0 0.3827

3 16 1 0 1 0.3827 0 0.9239 0.7071 0 0.7071

3 16 1 0 1 0 0 1 0.3827 0 0.9239

3 16 -1 0 1 -0.3827 0 0.9239 0 0 1

0 // Build by Primitive Generator 2

0 NOFILE

0 FILE 3070a.dat
0 Tile  1 x  1 without Groove

0 Name: 3070a.dat

0 Author: James Jessiman

0 !LDRAW_ORG Part UPDATE 2025-09

0 !LICENSE Licensed under CC BY 4.0 : see CAreadme.txt



0 BFC CERTIFY CCW



0 !HISTORY 2003-07-01 [Steffen] BFCed

0 !HISTORY 2003-12-19 [PTadmin] Official Update 2003-03

0 !HISTORY 2007-10-13 [PTadmin] Header formatted for Contributor Agreement

0 !HISTORY 2008-07-01 [PTadmin] Official Update 2008-01

0 !HISTORY 2025-09-27 [OrionP] Changed winding to CCW

0 !HISTORY 2025-09-29 [OrionP] Official Update 2025-09



1 16 0 8 0 10 0 0 0 -8 0 0 0 10 box4.dat

0 BFC INVERTNEXT

1 16 0 8 0 6 0 0 0 -4 0 0 0 6 box5.dat

4 16 10 8 10 6 8 6 -6 8 6 -10 8 10

4 16 -10 8 10 -6 8 6 -6 8 -6 -10 8 -10

4 16 -10 8 -10 -6 8 -6 6 8 -6 10 8 -10

4 16 10 8 -10 6 8 -6 6 8 6 10 8 10

4 16 -10 0 -10 10 0 -10 10 0 10 -10 0 10

0
0 NOFILE

0 FILE box4.dat
0 Box with 4 Faces (2 Parallel Pairs) and All Edges

0 Name: box4.dat

0 Author: James Jessiman

0 !LDRAW_ORG Primitive UPDATE 2012-01

0 !LICENSE Licensed under CC BY 4.0 : see CAreadme.txt



0 BFC CERTIFY CCW



0 !HISTORY 2002-04-03 [sbliss] Modified for BFC compliance

0 !HISTORY 2002-04-25 [PTadmin] Official Update 2002-02

0 !HISTORY 2007-06-24 [PTadmin] Header formatted for Contributor Agreement

0 !HISTORY 2008-07-01 [PTadmin] Official Update 2008-01

0 !HISTORY 2012-02-16 [Philo] Changed to CCW

0 !HISTORY 2012-03-30 [PTadmin] Official Update 2012-01





2 24 1 1 1 -1 1 1

2 24 -1 1 1 -1 1 -1

2 24 -1 1 -1 1 1 -1

2 24 1 1 -1 1 1 1

2 24 1 0 1 -1 0 1

2 24 -1 0 1 -1 0 -1

2 24 -1 0 -1 1 0 -1

2 24 1 0 -1 1 0 1

2 24 1 0 1 1 1 1

2 24 -1 0 1 -1 1 1

2 24 1 0 -1 1 1 -1

2 24 -1 0 -1 -1 1 -1

4 16 -1 1 1 -1 0 1 1 0 1 1 1 1

4 16 -1 1 -1 -1 0 -1 -1 0 1 -1 1 1

4 16 1 1 -1 1 0 -1 -1 0 -1 -1 1 -1

4 16 1 1 1 1 0 1 1 0 -1 1 1 -1

0 NOFILE

0 FILE 4733.dat
0 Brick  1 x  1 with Studs on Four Sides

0 Name: 4733.dat

0 Author: James Jessiman

0 !LDRAW_ORG Part UPDATE 2024-01

0 !LICENSE Licensed under CC BY 4.0 : see CAreadme.txt



0 BFC CERTIFY CCW



0 !KEYWORDS Travis Brick



0 !HISTORY 1998-06-20 [PTadmin] Official Update 1998-06

0 !HISTORY 2003-06-08 [jriley] BFC compliant

0 !HISTORY 2003-12-19 [PTadmin] Official Update 2003-03

0 !HISTORY 2004-07-24 [cwdee] Add "Four" to part title

0 !HISTORY 2004-11-06 [PTadmin] Official Update 2004-04

0 !HISTORY 2007-07-08 [PTadmin] Header formatted for Contributor Agreement

0 !HISTORY 2008-07-01 [PTadmin] Official Update 2008-01

0 !HISTORY 2023-04-08 [MagFors] Unmirrored stud primitives

0 !HISTORY 2024-01-29 [OrionP] Official Update 2024-01



1 16 0 12 0 10 0 0 0 12 0 0 0 10 box0.dat

1 16 0 14 0 6 0 0 0 10 0 0 0 6 box0.dat



1 16 0 4 0 4 0 0 0 -1 0 0 0 4 4-4edge.dat

1 16 6 10 0 0 -1 0 4 0 0 0 0 4 4-4edge.dat

1 16 0 10 -6 4 0 0 0 0 4 0 -1 0 4-4edge.dat

1 16 -6 10 0 0 1 0 4 0 0 0 0 4 4-4edge.dat

1 16 0 10 6 4 0 0 0 0 4 0 1 0 4-4edge.dat



1 16 0 0 0 6 0 0 0 1 0 0 0 6 4-4edge.dat

1 16 10 10 0 0 1 0 6 0 0 0 0 6 4-4edge.dat

1 16 0 10 -10 6 0 0 0 0 6 0 1 0 4-4edge.dat

1 16 -10 10 0 0 1 0 6 0 0 0 0 6 4-4edge.dat

1 16 0 10 10 6 0 0 0 0 6 0 1 0 4-4edge.dat



1 16 0 4 0 4 0 0 0 -1 0 0 0 4 4-4ndis.dat

1 16 6 10 0 0 1 0 4 0 0 0 0 4 4-4ndis.dat

1 16 0 10 -6 -4 0 0 0 0 4 0 -1 0 4-4ndis.dat

1 16 -6 10 0 0 -1 0 4 0 0 0 0 -4 4-4ndis.dat

1 16 0 10 6 4 0 0 0 0 4 0 1 0 4-4ndis.dat



1 16 0 0 0 6 0 0 0 1 0 0 0 6 4-4ndis.dat

1 16 10 10 0 0 -1 0 6 0 0 0 0 -6 4-4ndis.dat

1 16 0 10 -10 6 0 0 0 0 6 0 1 0 4-4ndis.dat

1 16 -10 10 0 0 1 0 6 0 0 0 0 6 4-4ndis.dat

1 16 0 10 10 -6 0 0 0 0 6 0 -1 0 4-4ndis.dat



0 BFC INVERTNEXT

1 16 0 0 0 4 0 0 0 4 0 0 0 4 4-4cyli.dat

0 BFC INVERTNEXT

1 16 10 10 0 0 -4 0 4 0 0 0 0 4 4-4cyli.dat

0 BFC INVERTNEXT

1 16 0 10 -10 4 0 0 0 0 4 0 4 0 4-4cyli.dat

0 BFC INVERTNEXT

1 16 -10 10 0 0 4 0 4 0 0 0 0 4 4-4cyli.dat

0 BFC INVERTNEXT

1 16 0 10 10 4 0 0 0 0 4 0 -4 0 4-4cyli.dat



4 16 10 24 10 6 24 6 -6 24 6 -10 24 10

4 16 -10 24 10 -6 24 6 -6 24 -6 -10 24 -10

4 16 -10 24 -10 -6 24 -6 6 24 -6 10 24 -10

4 16 10 24 -10 6 24 -6 6 24 6 10 24 10

4 16 6 4 6 4 4 4 -4 4 4 -6 4 6

4 16 -6 4 6 -4 4 4 -4 4 -4 -6 4 -6

4 16 -6 4 -6 -4 4 -4 4 4 -4 6 4 -6

4 16 6 4 -6 4 4 -4 4 4 4 6 4 6

4 16 -10 0 10 -6 0 6 6 0 6 10 0 10

4 16 -10 0 -10 -6 0 -6 -6 0 6 -10 0 10

4 16 10 0 -10 6 0 -6 -6 0 -6 -10 0 -10

4 16 10 0 10 6 0 6 6 0 -6 10 0 -10

4 16 -10 24 10 -6 16 10 6 16 10 10 24 10

4 16 -10 24 10 -10 0 10 -6 4 10 -6 16 10

4 16 10 0 10 6 4 10 -6 4 10 -10 0 10

4 16 10 0 10 10 24 10 6 16 10 6 4 10

4 16 6 24 6 4 14 6 -4 14 6 -6 24 6

4 16 -6 24 6 -4 14 6 -4 6 6 -6 4 6

4 16 -6 4 6 -4 6 6 4 6 6 6 4 6

4 16 6 4 6 4 6 6 4 14 6 6 24 6

4 16 -6 24 -6 -4 14 -6 4 14 -6 6 24 -6

4 16 6 24 -6 4 14 -6 4 6 -6 6 4 -6

4 16 6 4 -6 4 6 -6 -4 6 -6 -6 4 -6

4 16 -6 4 -6 -4 6 -6 -4 14 -6 -6 24 -6

4 16 10 24 -10 6 16 -10 -6 16 -10 -10 24 -10

4 16 -10 24 -10 -6 16 -10 -6 4 -10 -10 0 -10

4 16 -10 0 -10 -6 4 -10 6 4 -10 10 0 -10

4 16 10 0 -10 6 4 -10 6 16 -10 10 24 -10

4 16 10 24 10 10 16 6 10 16 -6 10 24 -10

4 16 10 24 -10 10 16 -6 10 4 -6 10 0 -10

4 16 10 0 -10 10 4 -6 10 4 6 10 0 10

4 16 10 0 10 10 4 6 10 16 6 10 24 10

4 16 6 24 -6 6 14 -4 6 14 4 6 24 6

4 16 6 24 6 6 14 4 6 6 4 6 4 6

4 16 6 4 6 6 6 4 6 6 -4 6 4 -6

4 16 6 4 -6 6 6 -4 6 14 -4 6 24 -6

4 16 -6 24 6 -6 14 4 -6 14 -4 -6 24 -6

4 16 -6 24 -6 -6 14 -4 -6 6 -4 -6 4 -6

4 16 -6 4 -6 -6 6 -4 -6 6 4 -6 4 6

4 16 -6 4 6 -6 6 4 -6 14 4 -6 24 6

4 16 -10 24 -10 -10 16 -6 -10 16 6 -10 24 10

4 16 -10 24 -10 -10 0 -10 -10 4 -6 -10 16 -6

4 16 -10 0 10 -10 4 6 -10 4 -6 -10 0 -10

4 16 -10 0 10 -10 24 10 -10 16 6 -10 4 6



1 16 0 0 0 1 0 0 0 1 0 0 0 1 stud2a.dat

1 16 10 10 0 0 -1 0 1 0 0 0 0 1 stud2a.dat

1 16 0 10 -10 0 0 1 1 0 0 0 1 0 stud2a.dat

1 16 -10 10 0 0 1 0 1 0 0 0 0 -1 stud2a.dat

1 16 0 10 10 0 0 -1 1 0 0 0 -1 0 stud2a.dat

0 NOFILE

0 FILE stud2a.dat
0 Stud Open without Base Edges

0 Name: stud2a.dat

0 Author: James Jessiman

0 !LDRAW_ORG Primitive UPDATE 2009-02

0 !LICENSE Licensed under CC BY 4.0 : see CAreadme.txt



0 BFC CERTIFY CCW



0 !HISTORY 1999-07-05 [PTadmin] Official Update 1999-05

0 !HISTORY 2002-04-04 [sbliss] Modified for BFC compliance

0 !HISTORY 2002-04-25 [PTadmin] Official Update 2002-02

0 !HISTORY 2007-06-24 [PTadmin] Header formatted for Contributor Agreement

0 !HISTORY 2008-07-01 [PTadmin] Official Update 2008-01

0 !HISTORY 2009-06-21 [cwdee] Update ring references to 4-4ring

0 !HISTORY 2009-09-03 [PTadmin] Official Update 2009-02





1 16 0 -4 0 4 0 0 0 1 0 0 0 4 4-4edge.dat

1 16 0 -4 0 6 0 0 0 1 0 0 0 6 4-4edge.dat

0 BFC INVERTNEXT

1 16 0 -4 0 4 0 0 0 4 0 0 0 4 4-4cyli.dat

1 16 0 -4 0 6 0 0 0 4 0 0 0 6 4-4cyli.dat

1 16 0 -4 0 2 0 0 0 1 0 0 0 2 4-4ring2.dat

0

0 NOFILE

0 FILE 4-4ring2.dat
0 Ring  2 x 1.0

0 Name: 4-4ring2.dat

0 Author: James Jessiman

0 !LDRAW_ORG Primitive UPDATE 2009-01

0 !LICENSE Licensed under CC BY 4.0 : see CAreadme.txt



0 BFC CERTIFY CCW



0 !HISTORY 1998-12-15 [PTadmin] Official Update 1998-10

0 !HISTORY 2002-04-05 [hafhead] Added BFC statement

0 !HISTORY 2002-04-25 [PTadmin] Official Update 2002-02

0 !HISTORY 2007-06-24 [PTadmin] Header formatted for Contributor Agreement

0 !HISTORY 2008-07-01 [PTadmin] Official Update 2008-01

0 !HISTORY 2008-08-26 [cwdee] Switch polygon winding and rename

0 !HISTORY 2009-05-02 [PTadmin] Official Update 2009-01





4 16 -1.1481 0 2.7717 -0.7654 0 1.8478 0 0 2 0 0 3

4 16 -2.1213 0 2.1213 -1.4142 0 1.4142 -0.7654 0 1.8478 -1.1481 0 2.7717

4 16 -2.7717 0 1.1481 -1.8478 0 0.7654 -1.4142 0 1.4142 -2.1213 0 2.1213

4 16 -3 0 0 -2 0 0 -1.8478 0 0.7654 -2.7717 0 1.1481

4 16 -2.7717 0 -1.1481 -1.8478 0 -0.7654 -2 0 0 -3 0 0

4 16 -2.1213 0 -2.1213 -1.4142 0 -1.4142 -1.8478 0 -0.7654 -2.7717 0 -1.1481

4 16 -1.1481 0 -2.7717 -0.7654 0 -1.8478 -1.4142 0 -1.4142 -2.1213 0 -2.1213

4 16 0 0 -3 0 0 -2 -0.7654 0 -1.8478 -1.1481 0 -2.7717

4 16 1.1481 0 -2.7717 0.7654 0 -1.8478 0 0 -2 0 0 -3

4 16 2.1213 0 -2.1213 1.4142 0 -1.4142 0.7654 0 -1.8478 1.1481 0 -2.7717

4 16 2.7717 0 -1.1481 1.8478 0 -0.7654 1.4142 0 -1.4142 2.1213 0 -2.1213

4 16 3 0 0 2 0 0 1.8478 0 -0.7654 2.7717 0 -1.1481

4 16 2.7717 0 1.1481 1.8478 0 0.7654 2 0 0 3 0 0

4 16 2.1213 0 2.1213 1.4142 0 1.4142 1.8478 0 0.7654 2.7717 0 1.1481

4 16 1.1481 0 2.7717 0.7654 0 1.8478 1.4142 0 1.4142 2.1213 0 2.1213

4 16 0 0 3 0 0 2 0.7654 0 1.8478 1.1481 0 2.7717

0

0 NOFILE

0 FILE 4-4ndis.dat
0 Disc Negative 1.0

0 Name: 4-4ndis.dat

0 Author: James Jessiman

0 !LDRAW_ORG Primitive UPDATE 2012-01

0 !LICENSE Licensed under CC BY 4.0 : see CAreadme.txt



0 BFC CERTIFY CCW



0 !HISTORY 2002-03-23 [sbliss] Added BFC statement; compacted code

0 !HISTORY 2002-04-25 [PTadmin] Official Update 2002-02

0 !HISTORY 2007-06-24 [PTadmin] Header formatted for Contributor Agreement

0 !HISTORY 2008-07-01 [PTadmin] Official Update 2008-01

0 !HISTORY 2012-02-16 [Philo] Changed to CCW

0 !HISTORY 2012-03-30 [PTadmin] Official Update 2012-01





3 16 0.9239 0 0.3827 1 0 0 1 0 1

3 16 0.7071 0 0.7071 0.9239 0 0.3827 1 0 1

3 16 0.3827 0 0.9239 0.7071 0 0.7071 1 0 1

3 16 0 0 1 0.3827 0 0.9239 1 0 1

3 16 -0.3827 0 0.9239 0 0 1 -1 0 1

3 16 -0.7071 0 0.7071 -0.3827 0 0.9239 -1 0 1

3 16 -0.9239 0 0.3827 -0.7071 0 0.7071 -1 0 1

3 16 -1 0 0 -0.9239 0 0.3827 -1 0 1

3 16 -0.9239 0 -0.3827 -1 0 0 -1 0 -1

3 16 -0.7071 0 -0.7071 -0.9239 0 -0.3827 -1 0 -1

3 16 -0.3827 0 -0.9239 -0.7071 0 -0.7071 -1 0 -1

3 16 0 0 -1 -0.3827 0 -0.9239 -1 0 -1

3 16 0.3827 0 -0.9239 0 0 -1 1 0 -1

3 16 0.7071 0 -0.7071 0.3827 0 -0.9239 1 0 -1

3 16 0.9239 0 -0.3827 0.7071 0 -0.7071 1 0 -1

3 16 1 0 0 0.9239 0 -0.3827 1 0 -1

0 NOFILE

0 FILE box0.dat
0 Box with 0 Faces and All Edges

0 Name: box0.dat

0 Author: Santeri Piippo [arezey]

0 !LDRAW_ORG Primitive UPDATE 2010-02

0 !LICENSE Licensed under CC BY 4.0 : see CAreadme.txt



0 BFC CERTIFY CCW



0 !HISTORY 2010-07-05 [PTadmin] Official Update 2010-02





2 24 -1 1 -1 1 1 -1

2 24 -1 -1 -1 1 -1 -1

2 24 1 1 1 1 1 -1

2 24 1 -1 1 1 -1 -1

2 24 -1 1 1 -1 1 -1

2 24 -1 -1 1 -1 -1 -1

2 24 1 1 1 -1 1 1

2 24 1 -1 1 -1 -1 1

2 24 1 -1 1 1 1 1

2 24 -1 -1 1 -1 1 1

2 24 -1 -1 -1 -1 1 -1

2 24 1 -1 -1 1 1 -1

0 //

0 NOFILE
