0 FILE transmitter-black-dog-main.ldr
0 
0 Name:  Transmitter[BLACK DOG]
0 Author:  
0 CustomBrick
0 FlexibleBrickControlPointUnitLength -1
0 FlexibleBrickLockedControlPoint 
0 NumOfBricks:  8
1 8 0.000000 -8.000000 10.000000 -1.000000 0.000000 0.000000 0.000000 1.000000 0.000000 0.000000 0.000000 -1.000000 3023b.dat
0 STEP
1 8 -10.000000 -16.000000 10.000000 -1.000000 0.000000 0.000000 0.000000 1.000000 0.000000 0.000000 0.000000 -1.000000 36841.dat
0 STEP
1 8 10.000000 -16.000000 10.000000 1.000000 0.000000 0.000000 0.000000 1.000000 0.000000 0.000000 0.000000 1.000000 36841.dat
0 STEP
1 8 0.000000 -6.000000 32.000000 -1.000000 0.000000 0.000000 0.000000 0.000000 -1.000000 0.000000 -1.000000 0.000000 1126.dat
0 STEP
1 8 0.000000 -6.000000 -12.000000 1.000000 0.000000 0.000000 0.000000 0.000000 -1.000000 0.000000 1.000000 0.000000 1126.dat
0 STEP
1 8 0.000000 -24.000000 10.000000 1.000000 0.000000 0.000000 0.000000 1.000000 0.000000 0.000000 0.000000 1.000000 35480.dat
0 STEP
1 8 10.000000 -32.000000 10.000000 1.000000 0.000000 0.000000 0.000000 1.000000 0.000000 0.000000 0.000000 1.000000 55298.dat
0 STEP
1 8 -10.000000 -80.000000 10.000000 1.000000 0.000000 0.000000 0.000000 1.000000 0.000000 0.000000 0.000000 1.000000 87994.dat
0 STEP
0 STEP
0 NOFILE

0 FILE 87994.dat
0 Bar  3L

0 Name: 87994.dat

0 Author: Chris Dee [cwdee]

0 !LDRAW_ORG Part UPDATE 2025-09

0 !LICENSE Licensed under CC BY 4.0 : see CAreadme.txt



0 BFC CERTIFY CCW



0 !HISTORY 2010-12-31 [PTadmin] Official Update 2010-03

0 !HISTORY 2015-07-09 [cwdee] Adjusted description

0 !HISTORY 2015-10-11 [PTadmin] Official Update 2015-01

0 !HISTORY 2025-09-27 [OrionP] Changed winding to CCW

0 !HISTORY 2025-09-29 [OrionP] Official Update 2025-09



1 16 0 0 0 4 0 0 0 1 0 0 0 4 4-4edge.dat

1 16 0 0 0 4 0 0 0 1 0 0 0 4 4-4disc.dat

1 16 0 0 0 4 0 0 0 60 0 0 0 4 4-4cyli.dat

1 16 0 60 0 4 0 0 0 1 0 0 0 4 4-4edge.dat

1 16 0 60 0 -4 0 0 0 -1 0 0 0 4 4-4disc.dat

0
0 NOFILE

0 FILE 4-4cyli.dat
0 Cylinder 1.0

0 Name: 4-4cyli.dat

0 Author: James Jessiman

0 !LDRAW_ORG Primitive UPDATE 2005-01

0 !LICENSE Licensed under CC BY 4.0 : see CAreadme.txt



0 BFC CERTIFY CCW



0 !HISTORY 1998-12-15 [PTadmin] Official Update 1998-10

0 !HISTORY 2002-03-23 [sbliss] Added BFC statement; merged headers from files in distributions LDraw 0.27 and Complete.

0 !HISTORY 2002-04-25 [PTadmin] Official Update 2002-02

0 !HISTORY 2004-12-14 [guyvivan] BFC CCW

0 !HISTORY 2005-12-28 [PTadmin] Official Update 2005-01

0 !HISTORY 2007-06-24 [PTadmin] Header formatted for Contributor Agreement

0 !HISTORY 2008-07-01 [PTadmin] Official Update 2008-01





4 16 1 1 0 0.9239 1 0.3827 0.9239 0 0.3827 1 0 0

5 24 1 0 0 1 1 0 0.9239 0 0.3827 0.9239 0 -0.3827

4 16 0.9239 1 0.3827 0.7071 1 0.7071 0.7071 0 0.7071 0.9239 0 0.3827

5 24 0.9239 0 0.3827 0.9239 1 0.3827 0.7071 0 0.7071 1 0 0

4 16 0.7071 1 0.7071 0.3827 1 0.9239 0.3827 0 0.9239 0.7071 0 0.7071

5 24 0.7071 0 0.7071 0.7071 1 0.7071 0.3827 0 0.9239 0.9239 0 0.3827

4 16 0.3827 1 0.9239 0 1 1 0 0 1 0.3827 0 0.9239

5 24 0.3827 0 0.9239 0.3827 1 0.9239 0 0 1 0.7071 0 0.7071

4 16 0 1 1 -0.3827 1 0.9239 -0.3827 0 0.9239 0 0 1

5 24 0 0 1 0 1 1 -0.3827 0 0.9239 0.3827 0 0.9239

4 16 -0.3827 1 0.9239 -0.7071 1 0.7071 -0.7071 0 0.7071 -0.3827 0 0.9239

5 24 -0.3827 0 0.9239 -0.3827 1 0.9239 -0.7071 0 0.7071 0 0 1

4 16 -0.7071 1 0.7071 -0.9239 1 0.3827 -0.9239 0 0.3827 -0.7071 0 0.7071

5 24 -0.7071 0 0.7071 -0.7071 1 0.7071 -0.9239 0 0.3827 -0.3827 0 0.9239

4 16 -0.9239 1 0.3827 -1 1 0 -1 0 0 -0.9239 0 0.3827

5 24 -0.9239 0 0.3827 -0.9239 1 0.3827 -1 0 0 -0.7071 0 0.7071

4 16 -1 1 0 -0.9239 1 -0.3827 -0.9239 0 -0.3827 -1 0 0

5 24 -1 0 0 -1 1 0 -0.9239 0 -0.3827 -0.9239 0 0.3827

4 16 -0.9239 1 -0.3827 -0.7071 1 -0.7071 -0.7071 0 -0.7071 -0.9239 0 -0.3827

5 24 -0.9239 0 -0.3827 -0.9239 1 -0.3827 -0.7071 0 -0.7071 -1 0 0

4 16 -0.7071 1 -0.7071 -0.3827 1 -0.9239 -0.3827 0 -0.9239 -0.7071 0 -0.7071

5 24 -0.7071 0 -0.7071 -0.7071 1 -0.7071 -0.3827 0 -0.9239 -0.9239 0 -0.3827

4 16 -0.3827 1 -0.9239 0 1 -1 0 0 -1 -0.3827 0 -0.9239

5 24 -0.3827 0 -0.9239 -0.3827 1 -0.9239 0 0 -1 -0.7071 0 -0.7071

4 16 0 1 -1 0.3827 1 -0.9239 0.3827 0 -0.9239 0 0 -1

5 24 0 0 -1 0 1 -1 0.3827 0 -0.9239 -0.3827 0 -0.9239

4 16 0.3827 1 -0.9239 0.7071 1 -0.7071 0.7071 0 -0.7071 0.3827 0 -0.9239

5 24 0.3827 0 -0.9239 0.3827 1 -0.9239 0.7071 0 -0.7071 0 0 -1

4 16 0.7071 1 -0.7071 0.9239 1 -0.3827 0.9239 0 -0.3827 0.7071 0 -0.7071

5 24 0.7071 0 -0.7071 0.7071 1 -0.7071 0.9239 0 -0.3827 0.3827 0 -0.9239

4 16 0.9239 1 -0.3827 1 1 0 1 0 0 0.9239 0 -0.3827

5 24 0.9239 0 -0.3827 0.9239 1 -0.3827 1 0 0 0.7071 0 -0.7071

0

0 NOFILE

0 FILE 4-4disc.dat
0 Disc 1.0

0 Name: 4-4disc.dat

0 Author: James Jessiman

0 !LDRAW_ORG Primitive UPDATE 2002-02

0 !LICENSE Licensed under CC BY 4.0 : see CAreadme.txt



0 BFC CERTIFY CCW



0 !HISTORY 1998-12-15 [PTadmin] Official Update 1998-10

0 !HISTORY 2002-03-23 [sbliss] Added BFC statement

0 !HISTORY 2002-04-25 [PTadmin] Official Update 2002-02

0 !HISTORY 2007-06-24 [PTadmin] Header formatted for Contributor Agreement

0 !HISTORY 2008-07-01 [PTadmin] Official Update 2008-01





3 16 0 0 0 1 0 0 0.9239 0 0.3827

3 16 0 0 0 0.9239 0 0.3827 0.7071 0 0.7071

3 16 0 0 0 0.7071 0 0.7071 0.3827 0 0.9239

3 16 0 0 0 0.3827 0 0.9239 0 0 1

3 16 0 0 0 0 0 1 -0.3827 0 0.9239

3 16 0 0 0 -0.3827 0 0.9239 -0.7071 0 0.7071

3 16 0 0 0 -0.7071 0 0.7071 -0.9239 0 0.3827

3 16 0 0 0 -0.9239 0 0.3827 -1 0 -0

3 16 0 0 0 -1 0 -0 -0.9239 0 -0.3827

3 16 0 0 0 -0.9239 0 -0.3827 -0.7071 0 -0.7071

3 16 0 0 0 -0.7071 0 -0.7071 -0.3827 0 -0.9239

3 16 0 0 0 -0.3827 0 -0.9239 0 0 -1

3 16 0 0 0 0 0 -1 0.3827 0 -0.9239

3 16 0 0 0 0.3827 0 -0.9239 0.7071 0 -0.7071

3 16 0 0 0 0.7071 0 -0.7071 0.9239 0 -0.3827

3 16 0 0 0 0.9239 0 -0.3827 1 0 0

0

0 NOFILE

0 FILE 4-4edge.dat
0 Circle 1.0

0 Name: 4-4edge.dat

0 Author: James Jessiman

0 !LDRAW_ORG Primitive UPDATE 2017-01

0 !LICENSE Licensed under CC BY 4.0 : see CAreadme.txt



0 BFC CERTIFY CCW



0 !HISTORY 1998-12-15 [PTadmin] Official Update 1998-10

0 !HISTORY 2005-12-28 [PTadmin] Official Update 2005-01

0 !HISTORY 2007-06-24 [PTadmin] Header formatted for Contributor Agreement

0 !HISTORY 2008-07-01 [PTadmin] Official Update 2008-01

0 !HISTORY 2017-01-15 [Steffen] BFCed

0 !HISTORY 2017-12-30 [PTadmin] Official Update 2017-01





2 24 1 0 0 0.9239 0 0.3827

2 24 0.9239 0 0.3827 0.7071 0 0.7071

2 24 0.7071 0 0.7071 0.3827 0 0.9239

2 24 0.3827 0 0.9239 0 0 1

2 24 0 0 1 -0.3827 0 0.9239

2 24 -0.3827 0 0.9239 -0.7071 0 0.7071

2 24 -0.7071 0 0.7071 -0.9239 0 0.3827

2 24 -0.9239 0 0.3827 -1 0 -0

2 24 -1 0 -0 -0.9239 0 -0.3827

2 24 -0.9239 0 -0.3827 -0.7071 0 -0.7071

2 24 -0.7071 0 -0.7071 -0.3827 0 -0.9239

2 24 -0.3827 0 -0.9239 0 0 -1

2 24 0 0 -1 0.3827 0 -0.9239

2 24 0.3827 0 -0.9239 0.7071 0 -0.7071

2 24 0.7071 0 -0.7071 0.9239 0 -0.3827

2 24 0.9239 0 -0.3827 1 0 0

0 NOFILE

0 FILE 55298.dat
0 Minifig Tool Screwdriver

0 Name: 55298.dat

0 Author: Steve Bliss [sbliss]

0 !LDRAW_ORG Part UPDATE 2012-02

0 !LICENSE Licensed under CC BY 4.0 : see CAreadme.txt



0 BFC CERTIFY CCW



0 !CATEGORY Minifig Accessory

0 !KEYWORDS BrickLink 6246a, flat-blade, tools



0 !HISTORY 1998-07-15 [PTadmin] Official Update 1998-07

0 !HISTORY 1999-07-05 [PTadmin] Official Update 1999-05

0 !HISTORY 2000-05-07 [PTadmin] Official Update 2000-01

0 !HISTORY 2007-07-16 [PTadmin] Header formatted for Contributor Agreement

0 !HISTORY 2008-07-01 [PTadmin] Official Update 2008-01

0 !HISTORY 2010-03-17 [PTadmin] Renamed from 6246a

0 !HISTORY 2010-03-20 [Philo] BFCed, Reworked blade, put origin in handle

0 !HISTORY 2012-08-09 [PTadmin] Official Update 2012-02





1 16 0 -10 0 4 0 0 0 4 0 0 0 4 4-4edge.dat

1 16 0 -10 0 2 0 0 0 -3 0 0 0 2 4-4con1.dat

1 16 0 -13 0 2 0 0 0 2 0 0 0 2 4-4edge.dat

1 16 0 -36 0 1 0 0 0 1 0 0 0 1 s__6246s01.dat

1 16 0 -26 0 2 0 0 0 13 0 0 0 2 4-4cyli.dat

1 16 0 -34 0 2.2 0 0 0 -2 0 0 0 -1 box5-4a.dat

4 16 2.2 -34 1 1.6 -32 1.25 -1.6 -32 1.25 -2.2 -34 1

4 16 -0.8 -27 1.875 -1.6 -32 1.25 1.6 -32 1.25 0.8 -27 1.875

3 16 -0.8 -27 1.875 0.8 -27 1.875 0 -26 2

4 16 2.2 -33 -0.8 2.2 -33 0.8 2.2 -34 1 2.2 -34 -1

3 16 2.2 -32.6 0 2.2 -33 0.8 2.2 -33 -0.8

4 16 -2.2 -34 -1 -1.6 -32 -1.25 1.6 -32 -1.25 2.2 -34 -1

4 16 0.8 -27 -1.875 1.6 -32 -1.25 -1.6 -32 -1.25 -0.8 -27 -1.875

3 16 0.8 -27 -1.875 -0.8 -27 -1.875 0 -26 -2

4 16 -2.2 -33 0.8 -2.2 -33 -0.8 -2.2 -34 -1 -2.2 -34 1

3 16 -2.2 -32.6 0 -2.2 -33 -0.8 -2.2 -33 0.8

2 24 2.2 -34 1 1.6 -32 1.25

2 24 1.6 -32 1.25 0.8 -27 1.875

2 24 0.8 -27 1.875 0 -26 2

2 24 2.2 -33 0.8 2.2 -34 1

2 24 2.2 -32.6 0 2.2 -33 0.8

3 16 0.8 -27 1.875 0.765 -26 1.848 0 -26 2

3 16 1.414 -26 1.414 0.765 -26 1.848 0.8 -27 1.875

3 16 1.6 -32 1.25 1.414 -26 1.414 0.8 -27 1.875

3 16 1.848 -26 0.765 1.414 -26 1.414 1.6 -32 1.25

3 16 2.2 -34 1 1.848 -26 0.765 1.6 -32 1.25

3 16 2.2 -33 0.8 1.848 -26 0.765 2.2 -34 1

3 16 2 -26 0 1.848 -26 0.765 2.2 -33 0.8

3 16 2.2 -32.6 0 2 -26 0 2.2 -33 0.8

5 24 0.765 -26 1.848 0.8 -27 1.875 0 -26 2 1.414 -26 1.414

5 24 0.8 -27 1.875 1.414 -26 1.414 0.765 -26 1.848 1.6 -32 1.25

5 24 1.414 -26 1.414 1.6 -32 1.25 0.8 -27 1.875 1.848 -26 0.765

5 24 1.6 -32 1.25 1.848 -26 0.765 1.414 -26 1.414 2.2 -34 1

5 24 1.848 -26 0.765 2.2 -34 1 1.6 -32 1.25 2.2 -33 0.8

5 24 1.848 -26 0.765 2.2 -33 0.8 2.2 -34 1 2 -26 0

5 24 2.2 -33 0.8 2 -26 0 1.848 -26 0.765 2.2 -32.6 0

5 24 0 -26 2 0.765 -26 1.848 0.8 -27 1.875 0.765 -13 1.848

5 24 0.765 -26 1.848 1.414 -26 1.414 0.8 -27 1.875 1.414 -13 1.414

5 24 1.414 -26 1.414 1.848 -26 0.765 1.6 -32 1.25 1.848 -13 0.765

5 24 1.848 -26 0.765 2 -26 0 2.2 -33 0.8 2 -13 0

3 16 0 -26 2 -0.765 -26 1.848 -0.8 -27 1.875

3 16 -0.8 -27 1.875 -0.765 -26 1.848 -1.414 -26 1.414

3 16 -0.8 -27 1.875 -1.414 -26 1.414 -1.6 -32 1.25

3 16 -1.6 -32 1.25 -1.414 -26 1.414 -1.848 -26 0.765

3 16 -1.6 -32 1.25 -1.848 -26 0.765 -2.2 -34 1

3 16 -2.2 -34 1 -1.848 -26 0.765 -2.2 -33 0.8

3 16 -2.2 -33 0.8 -1.848 -26 0.765 -2 -26 0

3 16 -2.2 -33 0.8 -2 -26 0 -2.2 -32.6 0

5 24 -0.765 -26 1.848 -0.8 -27 1.875 0 -26 2 -1.414 -26 1.414

5 24 -0.8 -27 1.875 -1.414 -26 1.414 -0.765 -26 1.848 -1.6 -32 1.25

5 24 -1.414 -26 1.414 -1.6 -32 1.25 -0.8 -27 1.875 -1.848 -26 0.765

5 24 -1.6 -32 1.25 -1.848 -26 0.765 -1.414 -26 1.414 -2.2 -34 1

5 24 -1.848 -26 0.765 -2.2 -34 1 -1.6 -32 1.25 -2.2 -33 0.8

5 24 -1.848 -26 0.765 -2.2 -33 0.8 -2.2 -34 1 -2 -26 0

5 24 -2.2 -33 0.8 -2 -26 0 -1.848 -26 0.765 -2.2 -32.6 0

5 24 0 -26 2 -0.765 -26 1.848 -0.8 -27 1.875 -0.765 -13 1.848

5 24 -0.765 -26 1.848 -1.414 -26 1.414 -0.8 -27 1.875 -1.414 -13 1.414

5 24 -1.414 -26 1.414 -1.848 -26 0.765 -1.6 -32 1.25 -1.848 -13 0.765

5 24 -1.848 -26 0.765 -2 -26 0 -2.2 -33 0.8 -2 -13 0

2 24 -2.2 -34 1 -1.6 -32 1.25

2 24 -1.6 -32 1.25 -0.8 -27 1.875

2 24 -0.8 -27 1.875 0 -26 2

2 24 -2.2 -33 0.8 -2.2 -34 1

2 24 -2.2 -32.6 0 -2.2 -33 0.8

3 16 0 -26 -2 0.765 -26 -1.848 0.8 -27 -1.875

3 16 0.8 -27 -1.875 0.765 -26 -1.848 1.414 -26 -1.414

3 16 0.8 -27 -1.875 1.414 -26 -1.414 1.6 -32 -1.25

3 16 1.6 -32 -1.25 1.414 -26 -1.414 1.848 -26 -0.765

3 16 1.6 -32 -1.25 1.848 -26 -0.765 2.2 -34 -1

3 16 2.2 -34 -1 1.848 -26 -0.765 2.2 -33 -0.8

3 16 2.2 -33 -0.8 1.848 -26 -0.765 2 -26 0

3 16 2.2 -33 -0.8 2 -26 0 2.2 -32.6 0

5 24 0.765 -26 -1.848 0.8 -27 -1.875 0 -26 -2 1.414 -26 -1.414

5 24 0.8 -27 -1.875 1.414 -26 -1.414 0.765 -26 -1.848 1.6 -32 -1.25

5 24 1.414 -26 -1.414 1.6 -32 -1.25 0.8 -27 -1.875 1.848 -26 -0.765

5 24 1.6 -32 -1.25 1.848 -26 -0.765 1.414 -26 -1.414 2.2 -34 -1

5 24 1.848 -26 -0.765 2.2 -34 -1 1.6 -32 -1.25 2.2 -33 -0.8

5 24 1.848 -26 -0.765 2.2 -33 -0.8 2.2 -34 -1 2 -26 0

5 24 2.2 -33 -0.8 2 -26 0 1.848 -26 -0.765 2.2 -32.6 0

5 24 0 -26 -2 0.765 -26 -1.848 0.8 -27 -1.875 0.765 -13 -1.848

5 24 0.765 -26 -1.848 1.414 -26 -1.414 0.8 -27 -1.875 1.414 -13 -1.414

5 24 1.414 -26 -1.414 1.848 -26 -0.765 1.6 -32 -1.25 1.848 -13 -0.765

5 24 1.848 -26 -0.765 2 -26 0 2.2 -33 -0.8 2 -13 0

2 24 2.2 -34 -1 1.6 -32 -1.25

2 24 1.6 -32 -1.25 0.8 -27 -1.875

2 24 0.8 -27 -1.875 0 -26 -2

2 24 2.2 -33 -0.8 2.2 -34 -1

2 24 2.2 -32.6 0 2.2 -33 -0.8

3 16 -0.8 -27 -1.875 -0.765 -26 -1.848 0 -26 -2

3 16 -1.414 -26 -1.414 -0.765 -26 -1.848 -0.8 -27 -1.875

3 16 -1.6 -32 -1.25 -1.414 -26 -1.414 -0.8 -27 -1.875

3 16 -1.848 -26 -0.765 -1.414 -26 -1.414 -1.6 -32 -1.25

3 16 -2.2 -34 -1 -1.848 -26 -0.765 -1.6 -32 -1.25

3 16 -2.2 -33 -0.8 -1.848 -26 -0.765 -2.2 -34 -1

3 16 -2 -26 0 -1.848 -26 -0.765 -2.2 -33 -0.8

3 16 -2.2 -32.6 0 -2 -26 0 -2.2 -33 -0.8

5 24 -0.765 -26 -1.848 -0.8 -27 -1.875 0 -26 -2 -1.414 -26 -1.414

5 24 -0.8 -27 -1.875 -1.414 -26 -1.414 -0.765 -26 -1.848 -1.6 -32 -1.25

5 24 -1.414 -26 -1.414 -1.6 -32 -1.25 -0.8 -27 -1.875 -1.848 -26 -0.765

5 24 -1.6 -32 -1.25 -1.848 -26 -0.765 -1.414 -26 -1.414 -2.2 -34 -1

5 24 -1.848 -26 -0.765 -2.2 -34 -1 -1.6 -32 -1.25 -2.2 -33 -0.8

5 24 -1.848 -26 -0.765 -2.2 -33 -0.8 -2.2 -34 -1 -2 -26 0

5 24 -2.2 -33 -0.8 -2 -26 0 -1.848 -26 -0.765 -2.2 -32.6 0

5 24 0 -26 -2 -0.765 -26 -1.848 -0.8 -27 -1.875 -0.765 -13 -1.848

5 24 -0.765 -26 -1.848 -1.414 -26 -1.414 -0.8 -27 -1.875 -1.414 -13 -1.414

5 24 -1.414 -26 -1.414 -1.848 -26 -0.765 -1.6 -32 -1.25 -1.848 -13 -0.765

5 24 -1.848 -26 -0.765 -2 -26 0 -2.2 -33 -0.8 -2 -13 0

2 24 -2.2 -34 -1 -1.6 -32 -1.25

2 24 -1.6 -32 -1.25 -0.8 -27 -1.875

2 24 -0.8 -27 -1.875 0 -26 -2

2 24 -2.2 -33 -0.8 -2.2 -34 -1

2 24 -2.2 -32.6 0 -2.2 -33 -0.8

5 24 -2.2 -34 -1 2.2 -34 -1 -2.2 -36 -1 -1.6 -32 -1.25

5 24 -2.2 -34 1 2.2 -34 1 -2.2 -36 1 -1.6 -32 1.25

5 24 2.2 -32.6 0 2 -26 0 2.2 -33 0.8 2.2 -33 -0.8

5 24 -2 -26 0 -2.2 -32.6 0 -2.2 -33 0.8 -2.2 -33 -0.8
0 NOFILE

0 FILE box5-4a.dat
0 Box with  5 Faces without  4 Adjacent Edges

0 Name: box5-4a.dat

0 Author: Willy Tschager [Holly-Wood]

0 !LDRAW_ORG Primitive UPDATE 2024-01

0 !LICENSE Licensed under CC BY 4.0 : see CAreadme.txt



0 BFC CERTIFY CCW



0 !HISTORY 2009-05-02 [PTadmin] Official Update 2009-01

0 !HISTORY 2024-01-03 [Holly-Wood] Complete re-write, original by guyvivan

0 !HISTORY 2024-01-29 [OrionP] Official Update 2024-01



2 24 -1 1 -1 -1 1 1

2 24 1 1 1 1 1 -1

2 24 -1 1 1 1 1 1

2 24 -1 1 -1 1 1 -1

4 16 1 1 1 1 1 -1 -1 1 -1 -1 1 1



2 24 -1 0 -1 -1 1 -1

2 24 -1 1 1 -1 0 1

4 16 -1 1 1 -1 1 -1 -1 0 -1 -1 0 1



2 24 1 0 -1 1 1 -1

2 24 1 1 1 1 0 1

4 16 1 1 -1 1 1 1 1 0 1 1 0 -1



4 16 1 1 1 -1 1 1 -1 0 1 1 0 1

4 16 -1 1 -1 1 1 -1 1 0 -1 -1 0 -1

0 NOFILE

0 FILE s__6246s01.dat
0 ~Minifig Tool Handle

0 Name: s\6246s01.dat

0 Author: Philippe Hurbain [Philo]

0 !LDRAW_ORG Subpart UPDATE 2012-02

0 !LICENSE Licensed under CC BY 4.0 : see CAreadme.txt



0 BFC CERTIFY CCW



0 !HISTORY 2012-08-09 [PTadmin] Official Update 2012-02





1 16 0 48 0 4 0 0 0 4 0 0 0 4 4-4edge.dat

1 16 0 48 0 4 0 0 0 -4 0 0 0 4 4-4disc.dat

1 16 0 26 0 4 0 0 0 4 0 0 0 4 4-4cyli.dat

1 16 0 42 0 4 0 0 0 6 0 0 0 4 4-4cyli.dat

1 16 0 42 0 0 0 3.58621 0 -7.42857 0 -3.58621 0 0 t01o1154.dat

1 16 0 41.143 0 0 0 3.58621 0 -7.42857 0 -3.58621 0 0 4-4edge.dat

1 16 0 40.286 0 0 0 3.58621 0 7.42857 0 -3.58621 0 0 t01o1154.dat

1 16 0 40.286 0 0 0 3.58621 0 -7.42857 0 -3.58621 0 0 t01o1154.dat

1 16 0 39.429 0 0 0 3.58621 0 -7.42857 0 -3.58621 0 0 4-4edge.dat

1 16 0 38.571 0 0 0 3.58621 0 7.42857 0 -3.58621 0 0 t01o1154.dat

1 16 0 38.571 0 0 0 3.58621 0 -7.42857 0 -3.58621 0 0 t01o1154.dat

1 16 0 37.714 0 0 0 3.58621 0 -7.42857 0 -3.58621 0 0 4-4edge.dat

1 16 0 36.857 0 0 0 3.58621 0 7.42857 0 -3.58621 0 0 t01o1154.dat

1 16 0 36.857 0 0 0 3.58621 0 -7.42857 0 -3.58621 0 0 t01o1154.dat

1 16 0 36 0 0 0 3.58621 0 -7.42857 0 -3.58621 0 0 4-4edge.dat

1 16 0 35.142 0 0 0 3.58621 0 7.42857 0 -3.58621 0 0 t01o1154.dat

1 16 0 35.142 0 0 0 3.58621 0 -7.42857 0 -3.58621 0 0 t01o1154.dat

1 16 0 34.285 0 0 0 3.58621 0 -7.42857 0 -3.58621 0 0 4-4edge.dat

1 16 0 33.428 0 0 0 3.58621 0 7.42857 0 -3.58621 0 0 t01o1154.dat

1 16 0 33.428 0 0 0 3.58621 0 -7.42857 0 -3.58621 0 0 t01o1154.dat

1 16 0 32.571 0 0 0 3.58621 0 -7.42857 0 -3.58621 0 0 4-4edge.dat

1 16 0 31.714 0 0 0 3.58621 0 7.42857 0 -3.58621 0 0 t01o1154.dat

1 16 0 31.714 0 0 0 3.58621 0 -7.42857 0 -3.58621 0 0 t01o1154.dat

1 16 0 30.857 0 0 0 3.58621 0 -7.42857 0 -3.58621 0 0 4-4edge.dat

1 16 0 30 0 0 0 3.58621 0 7.42857 0 -3.58621 0 0 t01o1154.dat

0 NOFILE

0 FILE t01o1154.dat
0 Torus Outside  1 x 0.1154 x 1

0 Name: t01o1154.dat

0 Author: Michael Heidemann [mikeheide]

0 !LDRAW_ORG Primitive UPDATE 2013-02

0 !LICENSE Licensed under CC BY 4.0 : see CAreadme.txt



0 BFC CERTIFY CCW



0 !HISTORY 2010-12-31 [PTadmin] Official Update 2010-03

0 !HISTORY 2013-09-27 [MMR1988] Recreated to fix condlines

0 !HISTORY 2013-12-23 [PTadmin] Official Update 2013-02





0 // Major Radius: 26

0 // Tube(Minor) Radius: 3

0 // Segments(Sweep): 16/16 = 1.00

0 // 1 9 0 0 0 1 0 0 0 1 0 0 0 1 4-4edge.dat

0 // 1 12 1 0 0 0.1154 0 0 0 0 0.1154 0 1 0 4-4edge.dat



4 16 1 0.1154 0 0.9239 0.1154 0.3827 0.9647 0.1066 0.3996 1.0442 0.1066 0

4 16 1.0442 0.1066 0 0.9647 0.1066 0.3996 0.9993 0.0816 0.4139 1.0816 0.0816 0

4 16 1.0816 0.0816 0 0.9993 0.0816 0.4139 1.0224 0.0442 0.4235 1.1066 0.0442 0

4 16 1.1066 0.0442 0 1.0224 0.0442 0.4235 1.0305 0 0.4269 1.1154 0 0

4 16 0.9239 0.1154 0.3827 0.7071 0.1154 0.7071 0.7383 0.1066 0.7383 0.9647 0.1066 0.3996

4 16 0.9647 0.1066 0.3996 0.7383 0.1066 0.7383 0.7648 0.0816 0.7648 0.9993 0.0816 0.4139

4 16 0.9993 0.0816 0.4139 0.7648 0.0816 0.7648 0.7825 0.0442 0.7825 1.0224 0.0442 0.4235

4 16 1.0224 0.0442 0.4235 0.7825 0.0442 0.7825 0.7887 0 0.7887 1.0305 0 0.4269

4 16 0.7071 0.1154 0.7071 0.3827 0.1154 0.9239 0.3996 0.1066 0.9647 0.7383 0.1066 0.7383

4 16 0.7383 0.1066 0.7383 0.3996 0.1066 0.9647 0.4139 0.0816 0.9993 0.7648 0.0816 0.7648

4 16 0.7648 0.0816 0.7648 0.4139 0.0816 0.9993 0.4235 0.0442 1.0224 0.7825 0.0442 0.7825

4 16 0.7825 0.0442 0.7825 0.4235 0.0442 1.0224 0.4269 0 1.0305 0.7887 0 0.7887

4 16 0.3827 0.1154 0.9239 0 0.1154 1 0 0.1066 1.0442 0.3996 0.1066 0.9647

4 16 0.3996 0.1066 0.9647 0 0.1066 1.0442 0 0.0816 1.0816 0.4139 0.0816 0.9993

4 16 0.4139 0.0816 0.9993 0 0.0816 1.0816 0 0.0442 1.1066 0.4235 0.0442 1.0224

4 16 0.4235 0.0442 1.0224 0 0.0442 1.1066 0 0 1.1154 0.4269 0 1.0305

4 16 0 0.1154 1 -0.3827 0.1154 0.9239 -0.3996 0.1066 0.9647 0 0.1066 1.0442

4 16 0 0.1066 1.0442 -0.3996 0.1066 0.9647 -0.4139 0.0816 0.9993 0 0.0816 1.0816

4 16 0 0.0816 1.0816 -0.4139 0.0816 0.9993 -0.4235 0.0442 1.0224 0 0.0442 1.1066

4 16 0 0.0442 1.1066 -0.4235 0.0442 1.0224 -0.4269 0 1.0305 0 0 1.1154

4 16 -0.3827 0.1154 0.9239 -0.7071 0.1154 0.7071 -0.7383 0.1066 0.7383 -0.3996 0.1066 0.9647

4 16 -0.3996 0.1066 0.9647 -0.7383 0.1066 0.7383 -0.7648 0.0816 0.7648 -0.4139 0.0816 0.9993

4 16 -0.4139 0.0816 0.9993 -0.7648 0.0816 0.7648 -0.7825 0.0442 0.7825 -0.4235 0.0442 1.0224

4 16 -0.4235 0.0442 1.0224 -0.7825 0.0442 0.7825 -0.7887 0 0.7887 -0.4269 0 1.0305

4 16 -0.7071 0.1154 0.7071 -0.9239 0.1154 0.3827 -0.9647 0.1066 0.3996 -0.7383 0.1066 0.7383

4 16 -0.7383 0.1066 0.7383 -0.9647 0.1066 0.3996 -0.9993 0.0816 0.4139 -0.7648 0.0816 0.7648

4 16 -0.7648 0.0816 0.7648 -0.9993 0.0816 0.4139 -1.0224 0.0442 0.4235 -0.7825 0.0442 0.7825

4 16 -0.7825 0.0442 0.7825 -1.0224 0.0442 0.4235 -1.0305 0 0.4269 -0.7887 0 0.7887

4 16 -0.9239 0.1154 0.3827 -1 0.1154 0 -1.0442 0.1066 0 -0.9647 0.1066 0.3996

4 16 -0.9647 0.1066 0.3996 -1.0442 0.1066 0 -1.0816 0.0816 0 -0.9993 0.0816 0.4139

4 16 -0.9993 0.0816 0.4139 -1.0816 0.0816 0 -1.1066 0.0442 0 -1.0224 0.0442 0.4235

4 16 -1.0224 0.0442 0.4235 -1.1066 0.0442 0 -1.1154 0 0 -1.0305 0 0.4269

4 16 -1 0.1154 0 -0.9239 0.1154 -0.3827 -0.9647 0.1066 -0.3996 -1.0442 0.1066 0

4 16 -1.0442 0.1066 0 -0.9647 0.1066 -0.3996 -0.9993 0.0816 -0.4139 -1.0816 0.0816 0

4 16 -1.0816 0.0816 0 -0.9993 0.0816 -0.4139 -1.0224 0.0442 -0.4235 -1.1066 0.0442 0

4 16 -1.1066 0.0442 0 -1.0224 0.0442 -0.4235 -1.0305 0 -0.4269 -1.1154 0 0

4 16 -0.9239 0.1154 -0.3827 -0.7071 0.1154 -0.7071 -0.7383 0.1066 -0.7383 -0.9647 0.1066 -0.3996

4 16 -0.9647 0.1066 -0.3996 -0.7383 0.1066 -0.7383 -0.7648 0.0816 -0.7648 -0.9993 0.0816 -0.4139

4 16 -0.9993 0.0816 -0.4139 -0.7648 0.0816 -0.7648 -0.7825 0.0442 -0.7825 -1.0224 0.0442 -0.4235

4 16 -1.0224 0.0442 -0.4235 -0.7825 0.0442 -0.7825 -0.7887 0 -0.7887 -1.0305 0 -0.4269

4 16 -0.7071 0.1154 -0.7071 -0.3827 0.1154 -0.9239 -0.3996 0.1066 -0.9647 -0.7383 0.1066 -0.7383

4 16 -0.7383 0.1066 -0.7383 -0.3996 0.1066 -0.9647 -0.4139 0.0816 -0.9993 -0.7648 0.0816 -0.7648

4 16 -0.7648 0.0816 -0.7648 -0.4139 0.0816 -0.9993 -0.4235 0.0442 -1.0224 -0.7825 0.0442 -0.7825

4 16 -0.7825 0.0442 -0.7825 -0.4235 0.0442 -1.0224 -0.4269 0 -1.0305 -0.7887 0 -0.7887

4 16 -0.3827 0.1154 -0.9239 0 0.1154 -1 0 0.1066 -1.0442 -0.3996 0.1066 -0.9647

4 16 -0.3996 0.1066 -0.9647 0 0.1066 -1.0442 0 0.0816 -1.0816 -0.4139 0.0816 -0.9993

4 16 -0.4139 0.0816 -0.9993 0 0.0816 -1.0816 0 0.0442 -1.1066 -0.4235 0.0442 -1.0224

4 16 -0.4235 0.0442 -1.0224 0 0.0442 -1.1066 0 0 -1.1154 -0.4269 0 -1.0305

4 16 0 0.1154 -1 0.3827 0.1154 -0.9239 0.3996 0.1066 -0.9647 0 0.1066 -1.0442

4 16 0 0.1066 -1.0442 0.3996 0.1066 -0.9647 0.4139 0.0816 -0.9993 0 0.0816 -1.0816

4 16 0 0.0816 -1.0816 0.4139 0.0816 -0.9993 0.4235 0.0442 -1.0224 0 0.0442 -1.1066

4 16 0 0.0442 -1.1066 0.4235 0.0442 -1.0224 0.4269 0 -1.0305 0 0 -1.1154

4 16 0.3827 0.1154 -0.9239 0.7071 0.1154 -0.7071 0.7383 0.1066 -0.7383 0.3996 0.1066 -0.9647

4 16 0.3996 0.1066 -0.9647 0.7383 0.1066 -0.7383 0.7648 0.0816 -0.7648 0.4139 0.0816 -0.9993

4 16 0.4139 0.0816 -0.9993 0.7648 0.0816 -0.7648 0.7825 0.0442 -0.7825 0.4235 0.0442 -1.0224

4 16 0.4235 0.0442 -1.0224 0.7825 0.0442 -0.7825 0.7887 0 -0.7887 0.4269 0 -1.0305

4 16 0.7071 0.1154 -0.7071 0.9239 0.1154 -0.3827 0.9647 0.1066 -0.3996 0.7383 0.1066 -0.7383

4 16 0.7383 0.1066 -0.7383 0.9647 0.1066 -0.3996 0.9993 0.0816 -0.4139 0.7648 0.0816 -0.7648

4 16 0.7648 0.0816 -0.7648 0.9993 0.0816 -0.4139 1.0224 0.0442 -0.4235 0.7825 0.0442 -0.7825

4 16 0.7825 0.0442 -0.7825 1.0224 0.0442 -0.4235 1.0305 0 -0.4269 0.7887 0 -0.7887

4 16 0.9239 0.1154 -0.3827 1 0.1154 0 1.0442 0.1066 0 0.9647 0.1066 -0.3996

4 16 0.9647 0.1066 -0.3996 1.0442 0.1066 0 1.0816 0.0816 0 0.9993 0.0816 -0.4139

4 16 0.9993 0.0816 -0.4139 1.0816 0.0816 0 1.1066 0.0442 0 1.0224 0.0442 -0.4235

4 16 1.0224 0.0442 -0.4235 1.1066 0.0442 0 1.1154 0 0 1.0305 0 -0.4269



0 // conditional lines

5 24 1 0.1154 0 0.9239 0.1154 0.3827 1.0442 0.1066 0 0.9522 0.1154 0

5 24 1 0.1154 0 1.0442 0.1066 0 0.9239 0.1154 0.3827 0.9239 0.1154 -0.3827

5 24 1.0442 0.1066 0 0.9647 0.1066 0.3996 1.0816 0.0816 0 1 0.1154 0

5 24 1.0442 0.1066 0 1.0816 0.0816 0 0.9647 0.1066 0.3996 0.9647 0.1066 -0.3996

5 24 1.0816 0.0816 0 0.9993 0.0816 0.4139 1.1066 0.0442 0 1.0442 0.1066 0

5 24 1.0816 0.0816 0 1.1066 0.0442 0 0.9993 0.0816 0.4139 0.9993 0.0816 -0.4139

5 24 1.1066 0.0442 0 1.0224 0.0442 0.4235 1.1154 0 0 1.0816 0.0816 0

5 24 1.1066 0.0442 0 1.1154 0 0 1.0224 0.0442 0.4235 1.0224 0.0442 -0.4235

5 24 1.1154 0 0 1.0305 0 0.4269 1.1154 -0.0478 0 1.1066 0.0442 0

5 24 0.9239 0.1154 0.3827 0.7071 0.1154 0.7071 0.9647 0.1066 0.3996 0.8797 0.1154 0.3644

5 24 0.9239 0.1154 0.3827 0.9647 0.1066 0.3996 0.7071 0.1154 0.7071 1 0.1154 0

5 24 0.9647 0.1066 0.3996 0.7383 0.1066 0.7383 0.9993 0.0816 0.4139 0.9239 0.1154 0.3827

5 24 0.9647 0.1066 0.3996 0.9993 0.0816 0.4139 0.7383 0.1066 0.7383 1.0442 0.1066 0

5 24 0.9993 0.0816 0.4139 0.7648 0.0816 0.7648 1.0224 0.0442 0.4235 0.9647 0.1066 0.3996

5 24 0.9993 0.0816 0.4139 1.0224 0.0442 0.4235 0.7648 0.0816 0.7648 1.0816 0.0816 0

5 24 1.0224 0.0442 0.4235 0.7825 0.0442 0.7825 1.0305 0 0.4269 0.9993 0.0816 0.4139

5 24 1.0224 0.0442 0.4235 1.0305 0 0.4269 0.7825 0.0442 0.7825 1.1066 0.0442 0

5 24 1.0305 0 0.4269 0.7887 0 0.7887 1.0305 -0.0478 0.4269 1.0224 0.0442 0.4235

5 24 0.7071 0.1154 0.7071 0.3827 0.1154 0.9239 0.7383 0.1066 0.7383 0.6733 0.1154 0.6733

5 24 0.7071 0.1154 0.7071 0.7383 0.1066 0.7383 0.3827 0.1154 0.9239 0.9239 0.1154 0.3827

5 24 0.7383 0.1066 0.7383 0.3996 0.1066 0.9647 0.7648 0.0816 0.7648 0.7071 0.1154 0.7071

5 24 0.7383 0.1066 0.7383 0.7648 0.0816 0.7648 0.3996 0.1066 0.9647 0.9647 0.1066 0.3996

5 24 0.7648 0.0816 0.7648 0.4139 0.0816 0.9993 0.7825 0.0442 0.7825 0.7383 0.1066 0.7383

5 24 0.7648 0.0816 0.7648 0.7825 0.0442 0.7825 0.4139 0.0816 0.9993 0.9993 0.0816 0.4139

5 24 0.7825 0.0442 0.7825 0.4235 0.0442 1.0224 0.7887 0 0.7887 0.7648 0.0816 0.7648

5 24 0.7825 0.0442 0.7825 0.7887 0 0.7887 0.4235 0.0442 1.0224 1.0224 0.0442 0.4235

5 24 0.7887 0 0.7887 0.4269 0 1.0305 0.7887 -0.0478 0.7887 0.7825 0.0442 0.7825

5 24 0.3827 0.1154 0.9239 0 0.1154 1 0.3996 0.1066 0.9647 0.3644 0.1154 0.8797

5 24 0.3827 0.1154 0.9239 0.3996 0.1066 0.9647 0 0.1154 1 0.7071 0.1154 0.7071

5 24 0.3996 0.1066 0.9647 0 0.1066 1.0442 0.4139 0.0816 0.9993 0.3827 0.1154 0.9239

5 24 0.3996 0.1066 0.9647 0.4139 0.0816 0.9993 0 0.1066 1.0442 0.7383 0.1066 0.7383

5 24 0.4139 0.0816 0.9993 0 0.0816 1.0816 0.4235 0.0442 1.0224 0.3996 0.1066 0.9647

5 24 0.4139 0.0816 0.9993 0.4235 0.0442 1.0224 0 0.0816 1.0816 0.7648 0.0816 0.7648

5 24 0.4235 0.0442 1.0224 0 0.0442 1.1066 0.4269 0 1.0305 0.4139 0.0816 0.9993

5 24 0.4235 0.0442 1.0224 0.4269 0 1.0305 0 0.0442 1.1066 0.7825 0.0442 0.7825

5 24 0.4269 0 1.0305 0 0 1.1154 0.4269 -0.0478 1.0305 0.4235 0.0442 1.0224

5 24 0 0.1154 1 -0.3827 0.1154 0.9239 0 0.1066 1.0442 0 0.1154 0.9522

5 24 0 0.1154 1 0 0.1066 1.0442 -0.3827 0.1154 0.9239 0.3827 0.1154 0.9239

5 24 0 0.1066 1.0442 -0.3996 0.1066 0.9647 0 0.0816 1.0816 0 0.1154 1

5 24 0 0.1066 1.0442 0 0.0816 1.0816 -0.3996 0.1066 0.9647 0.3996 0.1066 0.9647

5 24 0 0.0816 1.0816 -0.4139 0.0816 0.9993 0 0.0442 1.1066 0 0.1066 1.0442

5 24 0 0.0816 1.0816 0 0.0442 1.1066 -0.4139 0.0816 0.9993 0.4139 0.0816 0.9993

5 24 0 0.0442 1.1066 -0.4235 0.0442 1.0224 0 0 1.1154 0 0.0816 1.0816

5 24 0 0.0442 1.1066 0 0 1.1154 -0.4235 0.0442 1.0224 0.4235 0.0442 1.0224

5 24 0 0 1.1154 -0.4269 0 1.0305 0 -0.0478 1.1154 0 0.0442 1.1066

5 24 -0.3827 0.1154 0.9239 -0.7071 0.1154 0.7071 -0.3996 0.1066 0.9647 -0.3644 0.1154 0.8797

5 24 -0.3827 0.1154 0.9239 -0.3996 0.1066 0.9647 -0.7071 0.1154 0.7071 0 0.1154 1

5 24 -0.3996 0.1066 0.9647 -0.7383 0.1066 0.7383 -0.4139 0.0816 0.9993 -0.3827 0.1154 0.9239

5 24 -0.3996 0.1066 0.9647 -0.4139 0.0816 0.9993 -0.7383 0.1066 0.7383 0 0.1066 1.0442

5 24 -0.4139 0.0816 0.9993 -0.7648 0.0816 0.7648 -0.4235 0.0442 1.0224 -0.3996 0.1066 0.9647

5 24 -0.4139 0.0816 0.9993 -0.4235 0.0442 1.0224 -0.7648 0.0816 0.7648 0 0.0816 1.0816

5 24 -0.4235 0.0442 1.0224 -0.7825 0.0442 0.7825 -0.4269 0 1.0305 -0.4139 0.0816 0.9993

5 24 -0.4235 0.0442 1.0224 -0.4269 0 1.0305 -0.7825 0.0442 0.7825 0 0.0442 1.1066

5 24 -0.4269 0 1.0305 -0.7887 0 0.7887 -0.4269 -0.0478 1.0305 -0.4235 0.0442 1.0224

5 24 -0.7071 0.1154 0.7071 -0.9239 0.1154 0.3827 -0.7383 0.1066 0.7383 -0.6733 0.1154 0.6733

5 24 -0.7071 0.1154 0.7071 -0.7383 0.1066 0.7383 -0.9239 0.1154 0.3827 -0.3827 0.1154 0.9239

5 24 -0.7383 0.1066 0.7383 -0.9647 0.1066 0.3996 -0.7648 0.0816 0.7648 -0.7071 0.1154 0.7071

5 24 -0.7383 0.1066 0.7383 -0.7648 0.0816 0.7648 -0.9647 0.1066 0.3996 -0.3996 0.1066 0.9647

5 24 -0.7648 0.0816 0.7648 -0.9993 0.0816 0.4139 -0.7825 0.0442 0.7825 -0.7383 0.1066 0.7383

5 24 -0.7648 0.0816 0.7648 -0.7825 0.0442 0.7825 -0.9993 0.0816 0.4139 -0.4139 0.0816 0.9993

5 24 -0.7825 0.0442 0.7825 -1.0224 0.0442 0.4235 -0.7887 0 0.7887 -0.7648 0.0816 0.7648

5 24 -0.7825 0.0442 0.7825 -0.7887 0 0.7887 -1.0224 0.0442 0.4235 -0.4235 0.0442 1.0224

5 24 -0.7887 0 0.7887 -1.0305 0 0.4269 -0.7887 -0.0478 0.7887 -0.7825 0.0442 0.7825

5 24 -0.9239 0.1154 0.3827 -1 0.1154 0 -0.9647 0.1066 0.3996 -0.8797 0.1154 0.3644

5 24 -0.9239 0.1154 0.3827 -0.9647 0.1066 0.3996 -1 0.1154 0 -0.7071 0.1154 0.7071

5 24 -0.9647 0.1066 0.3996 -1.0442 0.1066 0 -0.9993 0.0816 0.4139 -0.9239 0.1154 0.3827

5 24 -0.9647 0.1066 0.3996 -0.9993 0.0816 0.4139 -1.0442 0.1066 0 -0.7383 0.1066 0.7383

5 24 -0.9993 0.0816 0.4139 -1.0816 0.0816 0 -1.0224 0.0442 0.4235 -0.9647 0.1066 0.3996

5 24 -0.9993 0.0816 0.4139 -1.0224 0.0442 0.4235 -1.0816 0.0816 0 -0.7648 0.0816 0.7648

5 24 -1.0224 0.0442 0.4235 -1.1066 0.0442 0 -1.0305 0 0.4269 -0.9993 0.0816 0.4139

5 24 -1.0224 0.0442 0.4235 -1.0305 0 0.4269 -1.1066 0.0442 0 -0.7825 0.0442 0.7825

5 24 -1.0305 0 0.4269 -1.1154 0 0 -1.0305 -0.0478 0.4269 -1.0224 0.0442 0.4235

5 24 -1 0.1154 0 -0.9239 0.1154 -0.3827 -1.0442 0.1066 0 -0.9522 0.1154 0

5 24 -1 0.1154 0 -1.0442 0.1066 0 -0.9239 0.1154 -0.3827 -0.9239 0.1154 0.3827

5 24 -1.0442 0.1066 0 -0.9647 0.1066 -0.3996 -1.0816 0.0816 0 -1 0.1154 0

5 24 -1.0442 0.1066 0 -1.0816 0.0816 0 -0.9647 0.1066 -0.3996 -0.9647 0.1066 0.3996

5 24 -1.0816 0.0816 0 -0.9993 0.0816 -0.4139 -1.1066 0.0442 0 -1.0442 0.1066 0

5 24 -1.0816 0.0816 0 -1.1066 0.0442 0 -0.9993 0.0816 -0.4139 -0.9993 0.0816 0.4139

5 24 -1.1066 0.0442 0 -1.0224 0.0442 -0.4235 -1.1154 0 0 -1.0816 0.0816 0

5 24 -1.1066 0.0442 0 -1.1154 0 0 -1.0224 0.0442 -0.4235 -1.0224 0.0442 0.4235

5 24 -1.1154 0 0 -1.0305 0 -0.4269 -1.1154 -0.0478 0 -1.1066 0.0442 0

5 24 -0.9239 0.1154 -0.3827 -0.7071 0.1154 -0.7071 -0.9647 0.1066 -0.3996 -0.8797 0.1154 -0.3644

5 24 -0.9239 0.1154 -0.3827 -0.9647 0.1066 -0.3996 -0.7071 0.1154 -0.7071 -1 0.1154 0

5 24 -0.9647 0.1066 -0.3996 -0.7383 0.1066 -0.7383 -0.9993 0.0816 -0.4139 -0.9239 0.1154 -0.3827

5 24 -0.9647 0.1066 -0.3996 -0.9993 0.0816 -0.4139 -0.7383 0.1066 -0.7383 -1.0442 0.1066 0

5 24 -0.9993 0.0816 -0.4139 -0.7648 0.0816 -0.7648 -1.0224 0.0442 -0.4235 -0.9647 0.1066 -0.3996

5 24 -0.9993 0.0816 -0.4139 -1.0224 0.0442 -0.4235 -0.7648 0.0816 -0.7648 -1.0816 0.0816 0

5 24 -1.0224 0.0442 -0.4235 -0.7825 0.0442 -0.7825 -1.0305 0 -0.4269 -0.9993 0.0816 -0.4139

5 24 -1.0224 0.0442 -0.4235 -1.0305 0 -0.4269 -0.7825 0.0442 -0.7825 -1.1066 0.0442 0

5 24 -1.0305 0 -0.4269 -0.7887 0 -0.7887 -1.0305 -0.0478 -0.4269 -1.0224 0.0442 -0.4235

5 24 -0.7071 0.1154 -0.7071 -0.3827 0.1154 -0.9239 -0.7383 0.1066 -0.7383 -0.6733 0.1154 -0.6733

5 24 -0.7071 0.1154 -0.7071 -0.7383 0.1066 -0.7383 -0.3827 0.1154 -0.9239 -0.9239 0.1154 -0.3827

5 24 -0.7383 0.1066 -0.7383 -0.3996 0.1066 -0.9647 -0.7648 0.0816 -0.7648 -0.7071 0.1154 -0.7071

5 24 -0.7383 0.1066 -0.7383 -0.7648 0.0816 -0.7648 -0.3996 0.1066 -0.9647 -0.9647 0.1066 -0.3996

5 24 -0.7648 0.0816 -0.7648 -0.4139 0.0816 -0.9993 -0.7825 0.0442 -0.7825 -0.7383 0.1066 -0.7383

5 24 -0.7648 0.0816 -0.7648 -0.7825 0.0442 -0.7825 -0.4139 0.0816 -0.9993 -0.9993 0.0816 -0.4139

5 24 -0.7825 0.0442 -0.7825 -0.4235 0.0442 -1.0224 -0.7887 0 -0.7887 -0.7648 0.0816 -0.7648

5 24 -0.7825 0.0442 -0.7825 -0.7887 0 -0.7887 -0.4235 0.0442 -1.0224 -1.0224 0.0442 -0.4235

5 24 -0.7887 0 -0.7887 -0.4269 0 -1.0305 -0.7887 -0.0478 -0.7887 -0.7825 0.0442 -0.7825

5 24 -0.3827 0.1154 -0.9239 0 0.1154 -1 -0.3996 0.1066 -0.9647 -0.3644 0.1154 -0.8797

5 24 -0.3827 0.1154 -0.9239 -0.3996 0.1066 -0.9647 0 0.1154 -1 -0.7071 0.1154 -0.7071

5 24 -0.3996 0.1066 -0.9647 0 0.1066 -1.0442 -0.4139 0.0816 -0.9993 -0.3827 0.1154 -0.9239

5 24 -0.3996 0.1066 -0.9647 -0.4139 0.0816 -0.9993 0 0.1066 -1.0442 -0.7383 0.1066 -0.7383

5 24 -0.4139 0.0816 -0.9993 0 0.0816 -1.0816 -0.4235 0.0442 -1.0224 -0.3996 0.1066 -0.9647

5 24 -0.4139 0.0816 -0.9993 -0.4235 0.0442 -1.0224 0 0.0816 -1.0816 -0.7648 0.0816 -0.7648

5 24 -0.4235 0.0442 -1.0224 0 0.0442 -1.1066 -0.4269 0 -1.0305 -0.4139 0.0816 -0.9993

5 24 -0.4235 0.0442 -1.0224 -0.4269 0 -1.0305 0 0.0442 -1.1066 -0.7825 0.0442 -0.7825

5 24 -0.4269 0 -1.0305 0 0 -1.1154 -0.4269 -0.0478 -1.0305 -0.4235 0.0442 -1.0224

5 24 0 0.1154 -1 0.3827 0.1154 -0.9239 0 0.1066 -1.0442 0 0.1154 -0.9522

5 24 0 0.1154 -1 0 0.1066 -1.0442 0.3827 0.1154 -0.9239 -0.3827 0.1154 -0.9239

5 24 0 0.1066 -1.0442 0.3996 0.1066 -0.9647 0 0.0816 -1.0816 0 0.1154 -1

5 24 0 0.1066 -1.0442 0 0.0816 -1.0816 0.3996 0.1066 -0.9647 -0.3996 0.1066 -0.9647

5 24 0 0.0816 -1.0816 0.4139 0.0816 -0.9993 0 0.0442 -1.1066 0 0.1066 -1.0442

5 24 0 0.0816 -1.0816 0 0.0442 -1.1066 0.4139 0.0816 -0.9993 -0.4139 0.0816 -0.9993

5 24 0 0.0442 -1.1066 0.4235 0.0442 -1.0224 0 0 -1.1154 0 0.0816 -1.0816

5 24 0 0.0442 -1.1066 0 0 -1.1154 0.4235 0.0442 -1.0224 -0.4235 0.0442 -1.0224

5 24 0 0 -1.1154 0.4269 0 -1.0305 0 -0.0478 -1.1154 0 0.0442 -1.1066

5 24 0.3827 0.1154 -0.9239 0.7071 0.1154 -0.7071 0.3996 0.1066 -0.9647 0.3644 0.1154 -0.8797

5 24 0.3827 0.1154 -0.9239 0.3996 0.1066 -0.9647 0.7071 0.1154 -0.7071 0 0.1154 -1

5 24 0.3996 0.1066 -0.9647 0.7383 0.1066 -0.7383 0.4139 0.0816 -0.9993 0.3827 0.1154 -0.9239

5 24 0.3996 0.1066 -0.9647 0.4139 0.0816 -0.9993 0.7383 0.1066 -0.7383 0 0.1066 -1.0442

5 24 0.4139 0.0816 -0.9993 0.7648 0.0816 -0.7648 0.4235 0.0442 -1.0224 0.3996 0.1066 -0.9647

5 24 0.4139 0.0816 -0.9993 0.4235 0.0442 -1.0224 0.7648 0.0816 -0.7648 0 0.0816 -1.0816

5 24 0.4235 0.0442 -1.0224 0.7825 0.0442 -0.7825 0.4269 0 -1.0305 0.4139 0.0816 -0.9993

5 24 0.4235 0.0442 -1.0224 0.4269 0 -1.0305 0.7825 0.0442 -0.7825 0 0.0442 -1.1066

5 24 0.4269 0 -1.0305 0.7887 0 -0.7887 0.4269 -0.0478 -1.0305 0.4235 0.0442 -1.0224

5 24 0.7071 0.1154 -0.7071 0.9239 0.1154 -0.3827 0.7383 0.1066 -0.7383 0.6733 0.1154 -0.6733

5 24 0.7071 0.1154 -0.7071 0.7383 0.1066 -0.7383 0.9239 0.1154 -0.3827 0.3827 0.1154 -0.9239

5 24 0.7383 0.1066 -0.7383 0.9647 0.1066 -0.3996 0.7648 0.0816 -0.7648 0.7071 0.1154 -0.7071

5 24 0.7383 0.1066 -0.7383 0.7648 0.0816 -0.7648 0.9647 0.1066 -0.3996 0.3996 0.1066 -0.9647

5 24 0.7648 0.0816 -0.7648 0.9993 0.0816 -0.4139 0.7825 0.0442 -0.7825 0.7383 0.1066 -0.7383

5 24 0.7648 0.0816 -0.7648 0.7825 0.0442 -0.7825 0.9993 0.0816 -0.4139 0.4139 0.0816 -0.9993

5 24 0.7825 0.0442 -0.7825 1.0224 0.0442 -0.4235 0.7887 0 -0.7887 0.7648 0.0816 -0.7648

5 24 0.7825 0.0442 -0.7825 0.7887 0 -0.7887 1.0224 0.0442 -0.4235 0.4235 0.0442 -1.0224

5 24 0.7887 0 -0.7887 1.0305 0 -0.4269 0.7887 -0.0478 -0.7887 0.7825 0.0442 -0.7825

5 24 0.9239 0.1154 -0.3827 1 0.1154 0 0.9647 0.1066 -0.3996 0.8797 0.1154 -0.3644

5 24 0.9239 0.1154 -0.3827 0.9647 0.1066 -0.3996 1 0.1154 0 0.7071 0.1154 -0.7071

5 24 0.9647 0.1066 -0.3996 1.0442 0.1066 0 0.9993 0.0816 -0.4139 0.9239 0.1154 -0.3827

5 24 0.9647 0.1066 -0.3996 0.9993 0.0816 -0.4139 1.0442 0.1066 0 0.7383 0.1066 -0.7383

5 24 0.9993 0.0816 -0.4139 1.0816 0.0816 0 1.0224 0.0442 -0.4235 0.9647 0.1066 -0.3996

5 24 0.9993 0.0816 -0.4139 1.0224 0.0442 -0.4235 1.0816 0.0816 0 0.7648 0.0816 -0.7648

5 24 1.0224 0.0442 -0.4235 1.1066 0.0442 0 1.0305 0 -0.4269 0.9993 0.0816 -0.4139

5 24 1.0224 0.0442 -0.4235 1.0305 0 -0.4269 1.1066 0.0442 0 0.7825 0.0442 -0.7825

5 24 1.0305 0 -0.4269 1.1154 0 0 1.0305 -0.0478 -0.4269 1.0224 0.0442 -0.4235

0 // Build by Primitive Generator 2

0 NOFILE

0 FILE 4-4con1.dat
0 Cone  1 x 1.0

0 Name: 4-4con1.dat

0 Author: Steve Bliss [sbliss]

0 !LDRAW_ORG Primitive UPDATE 2012-01

0 !LICENSE Licensed under CC BY 4.0 : see CAreadme.txt



0 BFC CERTIFY CCW



0 !HISTORY 1999-08-19 [sbliss] Renamed 4-4con12.dat to 4-4con1.dat, Moved all conditional lines before quads

0 !HISTORY 2000-05-07 [PTadmin] Official Update 2000-01

0 !HISTORY 2002-12-11 [cwdee] Standardised title and made BFC compliant

0 !HISTORY 2003-08-01 [PTadmin] Official Update 2003-02

0 !HISTORY 2007-06-24 [PTadmin] Header formatted for Contributor Agreement

0 !HISTORY 2008-07-01 [PTadmin] Official Update 2008-01

0 !HISTORY 2012-02-16 [Philo] Changed to CCW, reordered

0 !HISTORY 2012-03-30 [PTadmin] Official Update 2012-01





5 24 1 1 0 2 0 0 0.9239 1 -0.3827 0.9239 1 0.3827

5 24 0.9239 1 0.3827 1.8478 0 0.7654 1 1 0 0.7071 1 0.7071

5 24 0.7071 1 0.7071 1.4142 0 1.4142 0.9239 1 0.3827 0.3827 1 0.9239

5 24 0.3827 1 0.9239 0.7654 0 1.8478 0.7071 1 0.7071 0 1 1

5 24 0 1 1 0 0 2 0.3827 1 0.9239 -0.3827 1 0.9239

5 24 -0.3827 1 0.9239 -0.7654 0 1.8478 0 1 1 -0.7071 1 0.7071

5 24 -0.7071 1 0.7071 -1.4142 0 1.4142 -0.3827 1 0.9239 -0.9239 1 0.3827

5 24 -0.9239 1 0.3827 -1.8478 0 0.7654 -0.7071 1 0.7071 -1 1 0

5 24 -1 1 0 -2 0 0 -0.9239 1 0.3827 -0.9239 1 -0.3827

5 24 -0.9239 1 -0.3827 -1.8478 0 -0.7654 -1 1 0 -0.7071 1 -0.7071

5 24 -0.7071 1 -0.7071 -1.4142 0 -1.4142 -0.9239 1 -0.3827 -0.3827 1 -0.9239

5 24 -0.3827 1 -0.9239 -0.7654 0 -1.8478 -0.7071 1 -0.7071 0 1 -1

5 24 0 1 -1 0 0 -2 -0.3827 1 -0.9239 0.3827 1 -0.9239

5 24 0.3827 1 -0.9239 0.7654 0 -1.8478 0 1 -1 0.7071 1 -0.7071

5 24 0.7071 1 -0.7071 1.4142 0 -1.4142 0.3827 1 -0.9239 0.9239 1 -0.3827

5 24 0.9239 1 -0.3827 1.8478 0 -0.7654 0.7071 1 -0.7071 1 1 0



4 16 2 0 0 1 1 0 0.9239 1 0.3827 1.8478 0 0.7654

4 16 1.8478 0 0.7654 0.9239 1 0.3827 0.7071 1 0.7071 1.4142 0 1.4142

4 16 1.4142 0 1.4142 0.7071 1 0.7071 0.3827 1 0.9239 0.7654 0 1.8478

4 16 0.7654 0 1.8478 0.3827 1 0.9239 0 1 1 0 0 2

4 16 0 0 2 0 1 1 -0.3827 1 0.9239 -0.7654 0 1.8478

4 16 -0.7654 0 1.8478 -0.3827 1 0.9239 -0.7071 1 0.7071 -1.4142 0 1.4142

4 16 -1.4142 0 1.4142 -0.7071 1 0.7071 -0.9239 1 0.3827 -1.8478 0 0.7654

4 16 -1.8478 0 0.7654 -0.9239 1 0.3827 -1 1 0 -2 0 0

4 16 -2 0 0 -1 1 0 -0.9239 1 -0.3827 -1.8478 0 -0.7654

4 16 -1.8478 0 -0.7654 -0.9239 1 -0.3827 -0.7071 1 -0.7071 -1.4142 0 -1.4142

4 16 -1.4142 0 -1.4142 -0.7071 1 -0.7071 -0.3827 1 -0.9239 -0.7654 0 -1.8478

4 16 -0.7654 0 -1.8478 -0.3827 1 -0.9239 0 1 -1 0 0 -2

4 16 0 0 -2 0 1 -1 0.3827 1 -0.9239 0.7654 0 -1.8478

4 16 0.7654 0 -1.8478 0.3827 1 -0.9239 0.7071 1 -0.7071 1.4142 0 -1.4142

4 16 1.4142 0 -1.4142 0.7071 1 -0.7071 0.9239 1 -0.3827 1.8478 0 -0.7654

4 16 1.8478 0 -0.7654 0.9239 1 -0.3827 1 1 0 2 0 0

0 NOFILE

0 FILE 35480.dat
0 Plate  1 x  2 with Round Ends and 2 Open Studs

0 Name: 35480.dat

0 Author: Magnus Forsberg [MagFors]

0 !LDRAW_ORG Part UPDATE 2018-01

0 !LICENSE Licensed under CC BY 4.0 : see CAreadme.txt



0 BFC CERTIFY CCW



0 !HISTORY 2018-01-30 [PTadmin] Official Update 2018-01





1 16 0 4 0 0 0 1 0 -1 0 -1 0 0 stud3.dat

1 16 10 8 0 0 0 2 0 -1 0 -2 0 0 2-4ring3.dat

1 16 10 8 0 0 0 2 0 -1 0 -2 0 0 2-4ring4.dat

0 BFC INVERTNEXT

1 16 10 4 0 0 0 6 0 4 0 -6 0 0 2-4cylo.dat

1 16 10 4 0 0 0 2 0 -1 0 -2 0 0 2-4ring2.dat

1 16 10 4 0 0 0 -4 0 -1 0 -4 0 0 2-4ndis.dat

1 16 10 4 0 0 0 4 0 1 0 -4 0 0 4-4edge.dat

0 BFC INVERTNEXT

1 16 10 4 0 0 0 4 0 -4 0 -4 0 0 4-4cyli.dat

1 16 10 0 0 0 0 10 0 8 0 -10 0 0 2-4cylo.dat

1 16 10 0 0 0 0 2 0 1 0 -2 0 0 2-4ring4.dat

1 16 10 0 0 0 0 2 0 1 0 -2 0 0 2-4ring3.dat

1 16 10 0 0 0 0 6 0 1 0 -6 0 0 4-4edge.dat

1 16 10 0 0 0 0 -6 0 1 0 -6 0 0 2-4ndis.dat

1 16 10 0 0 0 0 1 0 1 0 -1 0 0 stud2a.dat

3 16 6 4 -4 10 4 -4 10 4 -6

3 16 10 4 4 6 4 4 10 4 6

3 16 10 0 -6 4 0 -6 10 0 -8

3 16 4 0 6 10 0 6 10 0 8

2 24 10 4 -6 -10 4 -6

4 16 -4 0 -6 4 0 -6 4 0 0 -4 0 0

4 16 10 0 -8 4 0 -6 -4 0 -6 -10 0 -8

4 16 10 4 -6 -10 4 -6 -6 4 -4 6 4 -4

4 16 6 4 0 6 4 -4 -6 4 -4 -6 4 0

1 16 0 4 -8 -10 0 0 0 0 -4 0 -2 0 box3u10p.dat

1 16 0 6 -7 -10 0 0 0 0 2 0 1 0 box2-11.dat



1 16 -10 8 0 0 0 -2 0 -1 0 2 0 0 2-4ring3.dat

1 16 -10 8 0 0 0 -2 0 -1 0 2 0 0 2-4ring4.dat

0 BFC INVERTNEXT

1 16 -10 4 0 0 0 -6 0 4 0 6 0 0 2-4cylo.dat

1 16 -10 4 0 0 0 -2 0 -1 0 2 0 0 2-4ring2.dat

1 16 -10 4 0 0 0 4 0 -1 0 4 0 0 2-4ndis.dat

1 16 -10 4 0 0 0 -4 0 1 0 4 0 0 4-4edge.dat

0 BFC INVERTNEXT

1 16 -10 4 0 0 0 -4 0 -4 0 4 0 0 4-4cyli.dat

1 16 -10 0 0 0 0 -10 0 8 0 10 0 0 2-4cylo.dat

1 16 -10 0 0 0 0 -2 0 1 0 2 0 0 2-4ring4.dat

1 16 -10 0 0 0 0 -2 0 1 0 2 0 0 2-4ring3.dat

1 16 -10 0 0 0 0 -6 0 1 0 6 0 0 4-4edge.dat

1 16 -10 0 0 0 0 6 0 1 0 6 0 0 2-4ndis.dat

1 16 -10 0 0 0 0 -1 0 1 0 1 0 0 stud2a.dat

3 16 -6 4 4 -10 4 4 -10 4 6

3 16 -10 4 -4 -6 4 -4 -10 4 -6

3 16 -10 0 6 -4 0 6 -10 0 8

3 16 -4 0 -6 -10 0 -6 -10 0 -8

2 24 -10 4 6 10 4 6

4 16 4 0 6 -4 0 6 -4 0 0 4 0 0

4 16 -10 0 8 -4 0 6 4 0 6 10 0 8

4 16 -10 4 6 10 4 6 6 4 4 -6 4 4

4 16 -6 4 0 -6 4 4 6 4 4 6 4 0

1 16 0 4 8 10 0 0 0 0 -4 0 2 0 box3u10p.dat

1 16 0 6 7 10 0 0 0 0 2 0 -1 0 box2-11.dat

0 NOFILE

0 FILE box2-11.dat
0 Box with 2 Faces without 11 Edges

0 Name: box2-11.dat

0 Author: Steffen [Steffen]

0 !LDRAW_ORG Primitive UPDATE 2005-01

0 !LICENSE Licensed under CC BY 4.0 : see CAreadme.txt



0 BFC CERTIFY CCW



0 !HISTORY 2005-12-28 [PTadmin] Official Update 2005-01

0 !HISTORY 2007-06-24 [PTadmin] Header formatted for Contributor Agreement

0 !HISTORY 2008-07-01 [PTadmin] Official Update 2008-01





2 24 1 1 1 -1 1 1

4 16 1 1 1 1 1 -1 -1 1 -1 -1 1 1

4 16 1 1 1 -1 1 1 -1 -1 1 1 -1 1

0

0 NOFILE

0 FILE box3u10p.dat
0 Box with 3 Faces without 10 Parallel Edges

0 Name: box3u10p.dat

0 Author: Owen Burgoyne [C3POwen]

0 !LDRAW_ORG Primitive UPDATE 2014-01

0 !LICENSE Licensed under CC BY 4.0 : see CAreadme.txt



0 BFC CERTIFY CCW



0 !HISTORY 2014-06-21 [PTadmin] Official Update 2014-01





4 16 1 1 -1 -1 1 -1 -1 1 1 1 1 1

4 16 -1 1 1 -1 0 1 1 0 1 1 1 1

4 16 1 1 -1 1 0 -1 -1 0 -1 -1 1 -1

2 24 1 1 1 -1 1 1

2 24 -1 1 -1 1 1 -1

0 NOFILE

0 FILE stud2a.dat
0 Stud Open without Base Edges

0 Name: stud2a.dat

0 Author: James Jessiman

0 !LDRAW_ORG Primitive UPDATE 2009-02

0 !LICENSE Licensed under CC BY 4.0 : see CAreadme.txt



0 BFC CERTIFY CCW



0 !HISTORY 1999-07-05 [PTadmin] Official Update 1999-05

0 !HISTORY 2002-04-04 [sbliss] Modified for BFC compliance

0 !HISTORY 2002-04-25 [PTadmin] Official Update 2002-02

0 !HISTORY 2007-06-24 [PTadmin] Header formatted for Contributor Agreement

0 !HISTORY 2008-07-01 [PTadmin] Official Update 2008-01

0 !HISTORY 2009-06-21 [cwdee] Update ring references to 4-4ring

0 !HISTORY 2009-09-03 [PTadmin] Official Update 2009-02





1 16 0 -4 0 4 0 0 0 1 0 0 0 4 4-4edge.dat

1 16 0 -4 0 6 0 0 0 1 0 0 0 6 4-4edge.dat

0 BFC INVERTNEXT

1 16 0 -4 0 4 0 0 0 4 0 0 0 4 4-4cyli.dat

1 16 0 -4 0 6 0 0 0 4 0 0 0 6 4-4cyli.dat

1 16 0 -4 0 2 0 0 0 1 0 0 0 2 4-4ring2.dat

0

0 NOFILE

0 FILE 4-4ring2.dat
0 Ring  2 x 1.0

0 Name: 4-4ring2.dat

0 Author: James Jessiman

0 !LDRAW_ORG Primitive UPDATE 2009-01

0 !LICENSE Licensed under CC BY 4.0 : see CAreadme.txt



0 BFC CERTIFY CCW



0 !HISTORY 1998-12-15 [PTadmin] Official Update 1998-10

0 !HISTORY 2002-04-05 [hafhead] Added BFC statement

0 !HISTORY 2002-04-25 [PTadmin] Official Update 2002-02

0 !HISTORY 2007-06-24 [PTadmin] Header formatted for Contributor Agreement

0 !HISTORY 2008-07-01 [PTadmin] Official Update 2008-01

0 !HISTORY 2008-08-26 [cwdee] Switch polygon winding and rename

0 !HISTORY 2009-05-02 [PTadmin] Official Update 2009-01





4 16 -1.1481 0 2.7717 -0.7654 0 1.8478 0 0 2 0 0 3

4 16 -2.1213 0 2.1213 -1.4142 0 1.4142 -0.7654 0 1.8478 -1.1481 0 2.7717

4 16 -2.7717 0 1.1481 -1.8478 0 0.7654 -1.4142 0 1.4142 -2.1213 0 2.1213

4 16 -3 0 0 -2 0 0 -1.8478 0 0.7654 -2.7717 0 1.1481

4 16 -2.7717 0 -1.1481 -1.8478 0 -0.7654 -2 0 0 -3 0 0

4 16 -2.1213 0 -2.1213 -1.4142 0 -1.4142 -1.8478 0 -0.7654 -2.7717 0 -1.1481

4 16 -1.1481 0 -2.7717 -0.7654 0 -1.8478 -1.4142 0 -1.4142 -2.1213 0 -2.1213

4 16 0 0 -3 0 0 -2 -0.7654 0 -1.8478 -1.1481 0 -2.7717

4 16 1.1481 0 -2.7717 0.7654 0 -1.8478 0 0 -2 0 0 -3

4 16 2.1213 0 -2.1213 1.4142 0 -1.4142 0.7654 0 -1.8478 1.1481 0 -2.7717

4 16 2.7717 0 -1.1481 1.8478 0 -0.7654 1.4142 0 -1.4142 2.1213 0 -2.1213

4 16 3 0 0 2 0 0 1.8478 0 -0.7654 2.7717 0 -1.1481

4 16 2.7717 0 1.1481 1.8478 0 0.7654 2 0 0 3 0 0

4 16 2.1213 0 2.1213 1.4142 0 1.4142 1.8478 0 0.7654 2.7717 0 1.1481

4 16 1.1481 0 2.7717 0.7654 0 1.8478 1.4142 0 1.4142 2.1213 0 2.1213

4 16 0 0 3 0 0 2 0.7654 0 1.8478 1.1481 0 2.7717

0

0 NOFILE

0 FILE 2-4ndis.dat
0 Disc Negative 0.5

0 Name: 2-4ndis.dat

0 Author: James Jessiman

0 !LDRAW_ORG Primitive UPDATE 2012-01

0 !LICENSE Licensed under CC BY 4.0 : see CAreadme.txt



0 BFC CERTIFY CCW



0 !HISTORY 2002-03-23 [sbliss] Added BFC statement; compacted code

0 !HISTORY 2002-04-25 [PTadmin] Official Update 2002-02

0 !HISTORY 2007-06-24 [PTadmin] Header formatted for Contributor Agreement

0 !HISTORY 2008-07-01 [PTadmin] Official Update 2008-01

0 !HISTORY 2012-02-16 [Philo] Changed to CCW

0 !HISTORY 2012-03-30 [PTadmin] Official Update 2012-01





3 16 0.9239 0 0.3827 1 0 0 1 0 1

3 16 0.7071 0 0.7071 0.9239 0 0.3827 1 0 1

3 16 0.3827 0 0.9239 0.7071 0 0.7071 1 0 1

3 16 0 0 1 0.3827 0 0.9239 1 0 1

3 16 -0.3827 0 0.9239 0 0 1 -1 0 1

3 16 -0.7071 0 0.7071 -0.3827 0 0.9239 -1 0 1

3 16 -0.9239 0 0.3827 -0.7071 0 0.7071 -1 0 1

3 16 -1 0 0 -0.9239 0 0.3827 -1 0 1

0 NOFILE

0 FILE 2-4ring2.dat
0 Ring  2 x 0.5

0 Name: 2-4ring2.dat

0 Author: Chris Dee [cwdee]

0 !LDRAW_ORG Primitive UPDATE 2012-01

0 !LICENSE Licensed under CC BY 4.0 : see CAreadme.txt



0 BFC CERTIFY CCW



0 !HISTORY 2001-10-26 [PTadmin] Official Update 2001-01

0 !HISTORY 2007-06-24 [PTadmin] Header formatted for Contributor Agreement

0 !HISTORY 2008-07-01 [PTadmin] Official Update 2008-01

0 !HISTORY 2012-02-16 [Philo] Changed to CCW

0 !HISTORY 2012-03-30 [PTadmin] Official Update 2012-01





4 16 3 0 0 2.7717 0 1.1481 1.8478 0 0.7654 2 0 0

4 16 2.7717 0 1.1481 2.1213 0 2.1213 1.4142 0 1.4142 1.8478 0 0.7654

4 16 2.1213 0 2.1213 1.1481 0 2.7717 0.7654 0 1.8478 1.4142 0 1.4142

4 16 1.1481 0 2.7717 0 0 3 0 0 2 0.7654 0 1.8478

4 16 0 0 3 -1.1481 0 2.7717 -0.7654 0 1.8478 0 0 2

4 16 -1.1481 0 2.7717 -2.1213 0 2.1213 -1.4142 0 1.4142 -0.7654 0 1.8478

4 16 -2.1213 0 2.1213 -2.7717 0 1.1481 -1.8478 0 0.7654 -1.4142 0 1.4142

4 16 -2.7717 0 1.1481 -3 0 0 -2 0 0 -1.8478 0 0.7654

0 NOFILE

0 FILE 2-4cylo.dat
0 Cylinder Open 0.5

0 Name: 2-4cylo.dat

0 Author: Max Martin Richter [MMR1988]

0 !LDRAW_ORG Primitive UPDATE 2010-03

0 !LICENSE Licensed under CC BY 4.0 : see CAreadme.txt



0 BFC CERTIFY CCW



0 !HISTORY 2010-12-31 [PTadmin] Official Update 2010-03





1 16 0 0 0 1 0 0 0 1 0 0 0 1 2-4edge.dat

1 16 0 1 0 1 0 0 0 1 0 0 0 1 2-4edge.dat

1 16 0 0 0 1 0 0 0 1 0 0 0 1 2-4cyli.dat

0 NOFILE

0 FILE 2-4cyli.dat
0 Cylinder 0.5

0 Name: 2-4cyli.dat

0 Author: James Jessiman

0 !LDRAW_ORG Primitive UPDATE 2005-01

0 !LICENSE Licensed under CC BY 4.0 : see CAreadme.txt



0 BFC CERTIFY CCW



0 !HISTORY 2002-03-23 [sbliss] Added BFC statement; compacted code

0 !HISTORY 2002-04-25 [PTadmin] Official Update 2002-02

0 !HISTORY 2004-12-11 [nielsk] Recreated using Primitive Generator, Edge lines fixed, BFC changed to CCW

0 !HISTORY 2005-12-28 [PTadmin] Official Update 2005-01

0 !HISTORY 2007-06-24 [PTadmin] Header formatted for Contributor Agreement

0 !HISTORY 2008-07-01 [PTadmin] Official Update 2008-01





4 16 .9239 1 .3827 .9239 0 .3827 1 0 0 1 1 0

4 16 .7071 1 .7071 .7071 0 .7071 .9239 0 .3827 .9239 1 .3827

4 16 .3827 1 .9239 .3827 0 .9239 .7071 0 .7071 .7071 1 .7071

4 16 0 1 1 0 0 1 .3827 0 .9239 .3827 1 .9239

4 16 -.3827 1 .9239 -.3827 0 .9239 0 0 1 0 1 1

4 16 -.7071 1 .7071 -.7071 0 .7071 -.3827 0 .9239 -.3827 1 .9239

4 16 -.9239 1 .3827 -.9239 0 .3827 -.7071 0 .7071 -.7071 1 .7071

4 16 -1 1 0 -1 0 0 -.9239 0 .3827 -.9239 1 .3827

5 24 1 1 0 1 0 0 1 1 -.4142 .9239 1 .3827

5 24 .9239 1 .3827 .9239 0 .3827 1 1 0 .7071 1 .7071

5 24 .7071 1 .7071 .7071 0 .7071 .9239 1 .3827 .3827 1 .9239

5 24 .3827 1 .9239 .3827 0 .9239 .7071 1 .7071 0 1 1

5 24 0 1 1 0 0 1 .3827 1 .9239 -.3827 1 .9239

5 24 -.3827 1 .9239 -.3827 0 .9239 0 1 1 -.7071 1 .7071

5 24 -.7071 1 .7071 -.7071 0 .7071 -.3827 1 .9239 -.9239 1 .3827

5 24 -.9239 1 .3827 -.9239 0 .3827 -.7071 1 .7071 -1 1 0

5 24 -1 1 0 -1 0 0 -.9239 1 .3827 -1 1 -.4142

0

0 NOFILE

0 FILE 2-4edge.dat
0 Circle 0.5

0 Name: 2-4edge.dat

0 Author: James Jessiman

0 !LDRAW_ORG Primitive UPDATE 2017-01

0 !LICENSE Licensed under CC BY 4.0 : see CAreadme.txt



0 BFC CERTIFY CCW



0 !HISTORY 2007-06-24 [PTadmin] Header formatted for Contributor Agreement

0 !HISTORY 2008-07-01 [PTadmin] Official Update 2008-01

0 !HISTORY 2017-01-15 [Steffen] BFCed

0 !HISTORY 2017-12-30 [PTadmin] Official Update 2017-01





2 24 1 0 0 0.9239 0 0.3827

2 24 0.9239 0 0.3827 0.7071 0 0.7071

2 24 0.7071 0 0.7071 0.3827 0 0.9239

2 24 0.3827 0 0.9239 0 0 1

2 24 0 0 1 -0.3827 0 0.9239

2 24 -0.3827 0 0.9239 -0.7071 0 0.7071

2 24 -0.7071 0 0.7071 -0.9239 0 0.3827

2 24 -0.9239 0 0.3827 -1 0 0

0 NOFILE

0 FILE 2-4ring4.dat
0 Ring  4 x 0.5

0 Name: 2-4ring4.dat

0 Author: Paul Easter [pneaster]

0 !LDRAW_ORG Primitive UPDATE 2012-01

0 !LICENSE Licensed under CC BY 4.0 : see CAreadme.txt



0 BFC CERTIFY CCW



0 !HISTORY 2000-09-30 [PTadmin] Official Update 2000-02

0 !HISTORY 2003-06-11 [pneaster] Corrected Values

0 !HISTORY 2003-08-01 [PTadmin] Official Update 2003-02

0 !HISTORY 2007-06-24 [PTadmin] Header formatted for Contributor Agreement

0 !HISTORY 2008-07-01 [PTadmin] Official Update 2008-01

0 !HISTORY 2012-02-16 [Philo] Changed to CCW

0 !HISTORY 2012-03-30 [PTadmin] Official Update 2012-01





4 16 5 0 0 4.6195 0 1.9135 3.6956 0 1.5308 4 0 0

4 16 4.6195 0 1.9135 3.5355 0 3.5355 2.8284 0 2.8284 3.6956 0 1.5308

4 16 3.5355 0 3.5355 1.9135 0 4.6195 1.5308 0 3.6956 2.8284 0 2.8284

4 16 1.9135 0 4.6195 0 0 5 0 0 4 1.5308 0 3.6956

4 16 0 0 5 -1.9135 0 4.6195 -1.5308 0 3.6956 0 0 4

4 16 -1.9135 0 4.6195 -3.5355 0 3.5355 -2.8284 0 2.8284 -1.5308 0 3.6956

4 16 -3.5355 0 3.5355 -4.6195 0 1.9135 -3.6956 0 1.5308 -2.8284 0 2.8284

4 16 -4.6195 0 1.9135 -5 0 0 -4 0 0 -3.6956 0 1.5308

0 NOFILE

0 FILE 2-4ring3.dat
0 Ring  3 x 0.5

0 Name: 2-4ring3.dat

0 Author: James Jessiman

0 !LDRAW_ORG Primitive UPDATE 2012-01

0 !LICENSE Licensed under CC BY 4.0 : see CAreadme.txt



0 BFC CERTIFY CCW



0 !HISTORY 1998-12-15 [PTadmin] Official Update 1998-10

0 !HISTORY 2003-01-21 [cavehop] Update Added BFC and some header info

0 !HISTORY 2003-03-12 [PTadmin] Official Update 2003-01

0 !HISTORY 2003-08-01 [PTadmin] Official Update 2003-02

0 !HISTORY 2007-06-24 [PTadmin] Header formatted for Contributor Agreement

0 !HISTORY 2008-07-01 [PTadmin] Official Update 2008-01

0 !HISTORY 2012-02-16 [Philo] Changed to CCW

0 !HISTORY 2012-03-30 [PTadmin] Official Update 2012-01





4 16 4 0 0 3.6956 0 1.5308 2.7717 0 1.1481 3 0 0

4 16 3.6956 0 1.5308 2.8284 0 2.8284 2.1213 0 2.1213 2.7717 0 1.1481

4 16 2.8284 0 2.8284 1.5308 0 3.6956 1.1481 0 2.7717 2.1213 0 2.1213

4 16 1.5308 0 3.6956 0 0 4 0 0 3 1.1481 0 2.7717

4 16 0 0 4 -1.5308 0 3.6956 -1.1481 0 2.7717 0 0 3

4 16 -1.5308 0 3.6956 -2.8284 0 2.8284 -2.1213 0 2.1213 -1.1481 0 2.7717

4 16 -2.8284 0 2.8284 -3.6956 0 1.5308 -2.7717 0 1.1481 -2.1213 0 2.1213

4 16 -3.6956 0 1.5308 -4 0 0 -3 0 0 -2.7717 0 1.1481

0 NOFILE

0 FILE stud3.dat
0 Stud Tube Solid

0 Name: stud3.dat

0 Author: James Jessiman

0 !LDRAW_ORG Primitive UPDATE 2012-01

0 !LICENSE Licensed under CC BY 4.0 : see CAreadme.txt



0 BFC CERTIFY CCW



0 !HISTORY 2002-04-04 [sbliss] Modified for BFC compliance

0 !HISTORY 2002-04-25 [PTadmin] Official Update 2002-02

0 !HISTORY 2007-06-24 [PTadmin] Header formatted for Contributor Agreement

0 !HISTORY 2008-07-01 [PTadmin] Official Update 2008-01

0 !HISTORY 2012-02-16 [Philo] Changed to CCW

0 !HISTORY 2012-03-30 [PTadmin] Official Update 2012-01





1 16 0 -4 0 4 0 0 0 1 0 0 0 4 4-4edge.dat

1 16 0 0 0 4 0 0 0 1 0 0 0 4 4-4edge.dat

1 16 0 -4 0 4 0 0 0 1 0 0 0 4 4-4disc.dat

1 16 0 -4 0 4 0 0 0 4 0 0 0 4 4-4cyli.dat

0 NOFILE

0 FILE 1126.dat
0 Tile  1 x  2 with Rounded Ends

0 Name: 1126.dat

0 Author: Magnus Forsberg [MagFors]

0 !LDRAW_ORG Part UPDATE 2022-06

0 !LICENSE Licensed under CC BY 4.0 : see CAreadme.txt



0 BFC CERTIFY CCW



0 !HISTORY 2022-12-20 [PTadmin] Official Update 2022-06





1 16 0 0 0 1 0 0 0 1 0 0 0 1 s__1126s01.dat

4 16 -10 0 10 -10 0 -10 10 0 -10 10 0 10

1 16 -10 0 0 0 0 -10 0 1 0 -10 0 0 2-4chrd.dat

1 16 10 0 0 0 0 10 0 1 0 10 0 0 2-4chrd.dat

0 NOFILE

0 FILE 2-4chrd.dat
0 Chord 0.5

0 Name: 2-4chrd.dat

0 Author: Philippe Hurbain [Philo]

0 !LDRAW_ORG Primitive UPDATE 2014-01

0 !LICENSE Licensed under CC BY 4.0 : see CAreadme.txt



0 BFC CERTIFY CCW



0 !HISTORY 2014-06-21 [PTadmin] Official Update 2014-01





4 16 0.9239 0 0.3827 -0.9239 0 0.3827 -1 0 0 1 0 0

4 16 0.7071 0 0.7071 -0.7071 0 0.7071 -0.9239 0 0.3827 0.9239 0 0.3827

4 16 0.3827 0 0.9239 -0.3827 0 0.9239 -0.7071 0 0.7071 0.7071 0 0.7071

3 16 0 0 1 -0.3827 0 0.9239 0.3827 0 0.9239

0 NOFILE

0 FILE s__1126s01.dat
0 ~Tile  1 x  2 with Rounded Ends without Top Surface

0 Name: s\1126s01.dat

0 Author: Magnus Forsberg [MagFors]

0 !LDRAW_ORG Subpart UPDATE 2022-06

0 !LICENSE Licensed under CC BY 4.0 : see CAreadme.txt



0 BFC CERTIFY CCW



0 !HISTORY 2022-12-20 [PTadmin] Official Update 2022-06





1 16 -10 8 0 0 0 -3 0 -1 0 -3 0 0 2-4ring2.dat

0 BFC INVERTNEXT

1 16 -10 4 0 0 0 -6 0 4 0 -6 0 0 2-4cylo.dat

1 16 -10 4 0 0 0 -6 0 -1 0 -6 0 0 2-4chrd.dat

1 16 -10 7 0 0 0 -9 0 1 0 -9 0 0 2-4cylo.dat

1 16 -10 7 0 0 0 -1 0 -1 0 -1 0 0 2-4ring9.dat

1 16 -10 0 0 0 0 -10 0 7 0 -10 0 0 2-4cylo.dat



1 16 10 8 0 0 0 3 0 -1 0 3 0 0 2-4ring2.dat

0 BFC INVERTNEXT

1 16 10 4 0 0 0 6 0 4 0 6 0 0 2-4cylo.dat

1 16 10 4 0 0 0 6 0 -1 0 6 0 0 2-4chrd.dat

1 16 10 7 0 0 0 9 0 1 0 9 0 0 2-4cylo.dat

1 16 10 7 0 0 0 1 0 -1 0 1 0 0 2-4ring9.dat

1 16 10 0 0 0 0 10 0 7 0 10 0 0 2-4cylo.dat



0 BFC INVERTNEXT

1 16 0 8 0 -10 0 0 0 -4 0 0 0 -6 box3u8p.dat

1 16 0 3.5 9.5 10 0 0 0 3.5 0 0 0 .5 box2-9p.dat

1 16 0 7.5 7.5 10 0 0 0 .5 0 0 0 1.5 box2-11.dat

1 16 0 3.5 -9.5 -10 0 0 0 3.5 0 0 0 -.5 box2-9p.dat

1 16 0 7.5 -7.5 -10 0 0 0 .5 0 0 0 -1.5 box2-11.dat

0 NOFILE

0 FILE box2-9p.dat
0 Box with  2 Faces with  3 Parallel Edges

0 Name: box2-9p.dat

0 Author: Willy Tschager [Holly-Wood]

0 !LDRAW_ORG Primitive UPDATE 2024-01

0 !LICENSE Licensed under CC BY 4.0 : see CAreadme.txt



0 BFC CERTIFY CCW



0 !HISTORY 2013-12-23 [PTadmin] Official Update 2013-02

0 !HISTORY 2024-01-04 [Holly-Wood] Complete re-write, original by Duq

0 !HISTORY 2024-01-29 [OrionP] Official Update 2024-01



2 24 -1 1 1 1 1 1

2 24 -1 1 -1 1 1 -1

4 16 -1 1 1 1 1 1 1 1 -1 -1 1 -1



2 24 -1 -1 1 1 -1 1

4 16 1 -1 1 1 1 1 -1 1 1 -1 -1 1

0 NOFILE

0 FILE box3u8p.dat
0 Box with 3 Faces and 4 Parallel Edges

0 Name: box3u8p.dat

0 Author: James Jessiman

0 !LDRAW_ORG Primitive UPDATE 2012-01

0 !LICENSE Licensed under CC BY 4.0 : see CAreadme.txt



0 BFC CERTIFY CCW



0 !HISTORY 2002-12-13 [hafhead] Made BFC compliant

0 !HISTORY 2003-08-01 [PTadmin] Official Update 2003-02

0 !HISTORY 2007-06-24 [PTadmin] Header formatted for Contributor Agreement

0 !HISTORY 2008-07-01 [PTadmin] Official Update 2008-01

0 !HISTORY 2012-02-16 [Philo] Changed to CCW

0 !HISTORY 2012-03-30 [PTadmin] Official Update 2012-01





2 24 1 1 1 -1 1 1

2 24 -1 1 -1 1 1 -1

2 24 1 0 1 -1 0 1

2 24 -1 0 -1 1 0 -1

4 16 1 1 -1 -1 1 -1 -1 1 1 1 1 1

4 16 -1 1 1 -1 0 1 1 0 1 1 1 1

4 16 1 1 -1 1 0 -1 -1 0 -1 -1 1 -1

0 NOFILE

0 FILE 2-4ring9.dat
0 Ring  9 x 0.5

0 Name: 2-4ring9.dat

0 Author: Willy Tschager [Holly-Wood]

0 !LDRAW_ORG Primitive UPDATE 2024-01

0 !LICENSE Licensed under CC BY 4.0 : see CAreadme.txt



0 BFC CERTIFY CCW



0 !HISTORY 2009-09-03 [PTadmin] Official Update 2009-02

0 !HISTORY 2024-01-10 [Holly-Wood] Complete regeneration, original by guyvivan

0 !HISTORY 2024-01-29 [OrionP] Official Update 2024-01



4 16 10 0 0 9.239 0 3.827 8.3151 0 3.4443 9 0 0

4 16 9.239 0 3.827 7.071 0 7.071 6.3639 0 6.3639 8.3151 0 3.4443

4 16 7.071 0 7.071 3.827 0 9.239 3.4443 0 8.3151 6.3639 0 6.3639

4 16 3.827 0 9.239 0 0 10 0 0 9 3.4443 0 8.3151

4 16 0 0 10 -3.827 0 9.239 -3.4443 0 8.3151 0 0 9

4 16 -3.827 0 9.239 -7.071 0 7.071 -6.3639 0 6.3639 -3.4443 0 8.3151

4 16 -7.071 0 7.071 -9.239 0 3.827 -8.3151 0 3.4443 -6.3639 0 6.3639

4 16 -9.239 0 3.827 -10 0 0 -9 0 0 -8.3151 0 3.4443

0 // Build by LDPartEditor (PrimGen 2.X)

0 NOFILE

0 FILE 36841.dat
0 Bracket  1 x  1 -  1 x  1 Down

0 Name: 36841.dat

0 Author: Magnus Forsberg [MagFors]

0 !LDRAW_ORG Part UPDATE 2019-01

0 !LICENSE Licensed under CC BY 4.0 : see CAreadme.txt



0 BFC CERTIFY CCW



0 !HISTORY 2019-06-28 [PTadmin] Official Update 2019-01





1 16 0 6 -10 -1.5 0 0 0 0 2 0 4 0 box4-1.dat

0 BFC INVERTNEXT

1 16 0 8 -2 6 0 0 0 -4 0 0 0 8 box5-1.dat

1 16 0 8 0 10 0 0 0 1 0 0 0 10 recte3.dat

4 16 10 8 10 6 8 6 -6 8 6 -10 8 10

4 16 -10 8 10 -6 8 6 -6 8 -10 -10 8 -10

4 16 10 8 -10 6 8 -10 6 8 6 10 8 10

2 24 -10 8 -10 -6 8 -10

2 24 10 8 -10 6 8 -10

2 24 10 8 -10 10 18 -10

2 24 -10 8 -10 -10 18 -10

4 16 8 20 -10 6 8 -10 10 8 -10 10 18 -10

4 16 8 20 -10 -8 20 -10 -6 8 -10 6 8 -10

4 16 -10 18 -14 -10 0 -14 -10 8 -10 -10 18 -10

1 16 0 4 10 -10 0 0 0 0 -4 0 -1 0 rect3.dat

4 16 10 18 -10 10 8 -10 10 0 -14 10 18 -14

4 16 10 8 10 10 0 10 10 0 -14 10 8 -10

4 16 -10 8 10 -10 8 -10 -10 0 -14 -10 0 10

1 16 0 9 -2 -10 0 0 0 -9 0 0 0 -12 box2-7.dat



1 16 -8 18 -14 -2 0 0 0 0 2 0 4 0 1-4cylo.dat

1 16 8 18 -14 0 0 2 2 0 0 0 4 0 1-4cylo.dat

1 16 -8 18 -10 -2 0 0 0 0 2 0 -1 0 1-4chrd.dat

1 16 8 18 -10 0 0 2 2 0 0 0 -1 0 1-4chrd.dat

1 16 -8 18 -14 -2 0 0 0 0 2 0 1 0 1-4chrd.dat

1 16 8 18 -14 0 0 2 2 0 0 0 1 0 1-4chrd.dat

1 16 0 20 -12 8 0 0 0 -1 0 0 0 -2 rect2p.dat

4 16 10 18 -14 -10 18 -14 -8 20 -14 8 20 -14

4 16 -10 8 -10 -6 8 -10 -8 20 -10 -10 18 -10



1 16 0 0 0 0 0 -1 0 1 0 1 0 0 stud.dat

1 16 0 10 -14 0 0 1 1 0 0 0 1 0 stud2.dat

0 NOFILE

0 FILE stud2.dat
0 Stud Open

0 Name: stud2.dat

0 Author: James Jessiman

0 !LDRAW_ORG Primitive UPDATE 2009-02

0 !LICENSE Licensed under CC BY 4.0 : see CAreadme.txt



0 BFC CERTIFY CCW



0 !HISTORY 1999-07-05 [PTadmin] Official Update 1999-05

0 !HISTORY 2002-04-04 [sbliss] Modified for BFC compliance

0 !HISTORY 2002-04-25 [PTadmin] Official Update 2002-02

0 !HISTORY 2007-06-24 [PTadmin] Header formatted for Contributor Agreement

0 !HISTORY 2008-07-01 [PTadmin] Official Update 2008-01

0 !HISTORY 2009-06-21 [cwdee] Update ring references to 4-4ring

0 !HISTORY 2009-09-03 [PTadmin] Official Update 2009-02





1 16 0 0 0 4 0 0 0 1 0 0 0 4 4-4edge.dat

1 16 0 0 0 6 0 0 0 1 0 0 0 6 4-4edge.dat

1 16 0 -4 0 4 0 0 0 1 0 0 0 4 4-4edge.dat

1 16 0 -4 0 6 0 0 0 1 0 0 0 6 4-4edge.dat

0 BFC INVERTNEXT

1 16 0 -4 0 4 0 0 0 4 0 0 0 4 4-4cyli.dat

1 16 0 -4 0 6 0 0 0 4 0 0 0 6 4-4cyli.dat

1 16 0 -4 0 2 0 0 0 1 0 0 0 2 4-4ring2.dat

0

0 NOFILE

0 FILE stud.dat
0 Stud

0 Name: stud.dat

0 Author: James Jessiman

0 !LDRAW_ORG Primitive UPDATE 2012-01

0 !LICENSE Licensed under CC BY 4.0 : see CAreadme.txt



0 BFC CERTIFY CCW



0 !HISTORY 2002-04-04 [sbliss] Modified for BFC compliance

0 !HISTORY 2002-04-25 [PTadmin] Official Update 2002-02

0 !HISTORY 2007-06-24 [PTadmin] Header formatted for Contributor Agreement

0 !HISTORY 2008-07-01 [PTadmin] Official Update 2008-01

0 !HISTORY 2012-02-16 [Philo] Changed to CCW

0 !HISTORY 2012-03-30 [PTadmin] Official Update 2012-01





1 16 0 0 0 6 0 0 0 1 0 0 0 6 4-4edge.dat

1 16 0 -4 0 6 0 0 0 1 0 0 0 6 4-4edge.dat

1 16 0 0 0 6 0 0 0 -4 0 0 0 6 4-4cyli.dat

1 16 0 -4 0 6 0 0 0 1 0 0 0 6 4-4disc.dat

0 NOFILE

0 FILE rect2p.dat
0 Rectangle with 2 Parallel Edges

0 Name: rect2p.dat

0 Author: Donald Sutter [technog]

0 !LDRAW_ORG Primitive UPDATE 2010-01

0 !LICENSE Licensed under CC BY 4.0 : see CAreadme.txt



0 BFC CERTIFY CCW



0 !HISTORY 2003-08-01 [PTadmin] Official Update 2003-02

0 !HISTORY 2007-06-24 [PTadmin] Header formatted for Contributor Agreement

0 !HISTORY 2008-07-01 [PTadmin] Official Update 2008-01

0 !HISTORY 2010-01-17 [mikeheide] changed winding to CCW

0 !HISTORY 2010-04-05 [PTadmin] Official Update 2010-01





2 24 1 0 1 -1 0 1

2 24 -1 0 -1 1 0 -1

4 16 -1 0 1 -1 0 -1 1 0 -1 1 0 1

0

0 NOFILE

0 FILE 1-4chrd.dat
0 Chord 0.25

0 Name: 1-4chrd.dat

0 Author: Max Martin Richter [MMR1988]

0 !LDRAW_ORG Primitive UPDATE 2023-05

0 !LICENSE Licensed under CC BY 4.0 : see CAreadme.txt



0 BFC CERTIFY CCW



0 !HISTORY 2004-04-22 [PTadmin] Official Update 2004-02

0 !HISTORY 2007-10-09 [PTadmin] Header formatted for Contributor Agreement

0 !HISTORY 2008-07-01 [PTadmin] Official Update 2008-01

0 !HISTORY 2012-08-02 [MMR1988] Re-creation with PrimGen2 and Rectifier

0 !HISTORY 2012-08-09 [PTadmin] Official Update 2012-02

0 !HISTORY 2023-10-27 [OrionP] Change author to MMR1988 from hafhead

0 !HISTORY 2023-10-31 [OrionP] Official Update 2023-05



4 16 0.9239 0 0.3827 0.3827 0 0.9239 0 0 1 1 0 0

3 16 0.7071 0 0.7071 0.3827 0 0.9239 0.9239 0 0.3827
0 NOFILE

0 FILE 1-4cylo.dat
0 Cylinder Open 0.25

0 Name: 1-4cylo.dat

0 Author: Max Martin Richter [MMR1988]

0 !LDRAW_ORG Primitive UPDATE 2010-03

0 !LICENSE Licensed under CC BY 4.0 : see CAreadme.txt



0 BFC CERTIFY CCW



0 !HISTORY 2010-12-31 [PTadmin] Official Update 2010-03





1 16 0 0 0 1 0 0 0 1 0 0 0 1 1-4edge.dat

1 16 0 1 0 1 0 0 0 1 0 0 0 1 1-4edge.dat

1 16 0 0 0 1 0 0 0 1 0 0 0 1 1-4cyli.dat

0 NOFILE

0 FILE 1-4cyli.dat
0 Cylinder 0.25

0 Name: 1-4cyli.dat

0 Author: James Jessiman

0 !LDRAW_ORG Primitive UPDATE 2012-01

0 !LICENSE Licensed under CC BY 4.0 : see CAreadme.txt



0 BFC CERTIFY CCW



0 !HISTORY 2002-03-23 [sbliss] Added BFC statement.

0 !HISTORY 2002-04-25 [PTadmin] Official Update 2002-02

0 !HISTORY 2007-06-22 [PTadmin] Header formatted for Contributor Agreement

0 !HISTORY 2008-07-01 [PTadmin] Official Update 2008-01

0 !HISTORY 2012-02-16 [Philo] Changed to CCW

0 !HISTORY 2012-03-30 [PTadmin] Official Update 2012-01





4 16 1 1 0 0.9239 1 0.3827 0.9239 0 0.3827 1 0 0

5 24 1 0 0 1 1 0 0.9239 0 0.3827 1 0 -1

4 16 0.9239 1 0.3827 0.7071 1 0.7071 0.7071 0 0.7071 0.9239 0 0.3827

5 24 0.9239 0 0.3827 0.9239 1 0.3827 0.7071 0 0.7071 1 0 0

4 16 0.7071 1 0.7071 0.3827 1 0.9239 0.3827 0 0.9239 0.7071 0 0.7071

5 24 0.7071 0 0.7071 0.7071 1 0.7071 0.3827 0 0.9239 0.9239 0 0.3827

4 16 0.3827 1 0.9239 0 1 1 0 0 1 0.3827 0 0.9239

5 24 0.3827 0 0.9239 0.3827 1 0.9239 0 0 1 0.7071 0 0.7071

5 24 0 0 1 0 1 1 0.3827 0 0.9239 -1 0 1

0 NOFILE

0 FILE 1-4edge.dat
0 Circle 0.25

0 Name: 1-4edge.dat

0 Author: James Jessiman

0 !LDRAW_ORG Primitive UPDATE 2017-01

0 !LICENSE Licensed under CC BY 4.0 : see CAreadme.txt



0 BFC CERTIFY CCW



0 !HISTORY 2007-06-22 [PTadmin] Header formatted for Contributor Agreement

0 !HISTORY 2008-07-01 [PTadmin] Official Update 2008-01

0 !HISTORY 2017-01-15 [Steffen] BFCed

0 !HISTORY 2017-12-30 [PTadmin] Official Update 2017-01





2 24 1 0 0 0.9239 0 0.3827

2 24 0.9239 0 0.3827 0.7071 0 0.7071

2 24 0.7071 0 0.7071 0.3827 0 0.9239

2 24 0.3827 0 0.9239 0 0 1

0 NOFILE

0 FILE box2-7.dat
0 Box with  2 Faces without  7 Edges

0 Name: box2-7.dat

0 Author: Willy Tschager [Holly-Wood]

0 !LDRAW_ORG Primitive UPDATE 2024-01

0 !LICENSE Licensed under CC BY 4.0 : see CAreadme.txt



0 BFC CERTIFY CCW



0 !HISTORY 2009-05-02 [PTadmin] Official Update 2009-01

0 !HISTORY 2024-01-02 [Holly-Wood] Complete re-write, original by guyvivan

0 !HISTORY 2024-01-29 [OrionP] Official Update 2024-01



2 24 -1 1 -1 -1 1 1

2 24 1 1 1 1 1 -1

4 16 -1 1 1 1 1 1 1 1 -1 -1 1 -1



2 24 -1 1 1 -1 -1 1

2 24 1 1 1 1 -1 1

4 16 1 -1 1 1 1 1 -1 1 1 -1 -1 1



2 24 -1 1 1 1 1 1

0 NOFILE

0 FILE rect3.dat
0 Rectangle with 3 Edges

0 Name: rect3.dat

0 Author: Mark Kennedy [mkennedy]

0 !LDRAW_ORG Primitive UPDATE 2010-01

0 !LICENSE Licensed under CC BY 4.0 : see CAreadme.txt



0 BFC CERTIFY CCW



0 !HISTORY 2003-08-01 [PTadmin] Official Update 2003-02

0 !HISTORY 2007-06-24 [PTadmin] Header formatted for Contributor Agreement

0 !HISTORY 2008-07-01 [PTadmin] Official Update 2008-01

0 !HISTORY 2010-01-17 [mikeheide] Change winding to CCW

0 !HISTORY 2010-04-05 [PTadmin] Official Update 2010-01





2 24 1 0 1 -1 0 1

2 24 1 0 1 1 0 -1

2 24 -1 0 1 -1 0 -1

4 16 -1 0 1 -1 0 -1 1 0 -1 1 0 1

0 //

0 NOFILE

0 FILE recte3.dat
0 Rectangle Empty with 3 Edges

0 Name: recte3.dat

0 Author: Steffen [Steffen]

0 !LDRAW_ORG Primitive UPDATE 2011-01

0 !LICENSE Licensed under CC BY 4.0 : see CAreadme.txt



0 BFC CERTIFY CCW



0 !HISTORY 2011-07-25 [PTadmin] Official Update 2011-01





2 24 1 0 1 -1 0 1

2 24 -1 0 1 -1 0 -1

2 24 1 0 -1 1 0 1

0 NOFILE

0 FILE box5-1.dat
0 Box with 5 Faces without 1 Edge

0 Name: box5-1.dat

0 Author: J.C. Tchang [tchang]

0 !LDRAW_ORG Primitive UPDATE 2014-01

0 !LICENSE Licensed under CC BY 4.0 : see CAreadme.txt



0 BFC CERTIFY CCW



0 !HISTORY 2014-06-21 [PTadmin] Official Update 2014-01





2 24 1 1 1 -1 1 1

2 24 -1 1 1 -1 1 -1

2 24 -1 1 -1 1 1 -1

2 24 1 1 -1 1 1 1

2 24 1 0 1 -1 0 1

2 24 -1 0 1 -1 0 -1

2 24 1 0 -1 1 0 1

2 24 1 0 1 1 1 1

2 24 -1 0 1 -1 1 1

2 24 1 0 -1 1 1 -1

2 24 -1 0 -1 -1 1 -1

4 16 -1 1 1 1 1 1 1 1 -1 -1 1 -1

4 16 -1 1 1 -1 0 1 1 0 1 1 1 1

4 16 -1 1 -1 -1 0 -1 -1 0 1 -1 1 1

4 16 1 1 -1 1 0 -1 -1 0 -1 -1 1 -1

4 16 1 1 1 1 0 1 1 0 -1 1 1 -1

0 NOFILE

0 FILE box4-1.dat
0 Box with 4 Faces without 1 Edge

0 Name: box4-1.dat

0 Author: Tore Eriksson [Tore_Eriksson]

0 !LDRAW_ORG Primitive UPDATE 2012-01

0 !LICENSE Licensed under CC BY 4.0 : see CAreadme.txt



0 BFC CERTIFY CCW



0 !HISTORY 1998-07-15 [PTadmin] Official Update 1998-07

0 !HISTORY 2002-04-05 [hafhead] Made BFC compliant

0 !HISTORY 2002-04-25 [PTadmin] Official Update 2002-02

0 !HISTORY 2007-06-24 [PTadmin] Header formatted for Contributor Agreement

0 !HISTORY 2008-07-01 [PTadmin] Official Update 2008-01

0 !HISTORY 2012-02-16 [Philo] Changed to CCW

0 !HISTORY 2012-03-30 [PTadmin] Official Update 2012-01





2 24 1 1 1 -1 1 1

2 24 -1 1 1 -1 1 -1

2 24 -1 1 -1 1 1 -1

2 24 1 1 -1 1 1 1

2 24 1 0 1 -1 0 1

2 24 -1 0 1 -1 0 -1

2 24 1 0 -1 1 0 1

2 24 1 0 1 1 1 1

2 24 -1 0 1 -1 1 1

2 24 1 0 -1 1 1 -1

2 24 -1 0 -1 -1 1 -1

4 16 -1 1 1 1 1 1 1 1 -1 -1 1 -1

4 16 -1 1 1 -1 0 1 1 0 1 1 1 1

4 16 -1 1 -1 -1 0 -1 -1 0 1 -1 1 1

4 16 1 1 1 1 0 1 1 0 -1 1 1 -1

0 NOFILE

0 FILE 3023b.dat
0 Plate  1 x  2

0 Name: 3023b.dat

0 Author: James Jessiman

0 !LDRAW_ORG Part UPDATE 2023-03

0 !LICENSE Licensed under CC BY 4.0 : see CAreadme.txt



0 BFC CERTIFY CCW



0 !KEYWORDS BrickLink 3023, Rebrickable 3023



0 !HISTORY 2001-10-26 [PTadmin] Official Update 2001-01

0 !HISTORY 2002-05-07 {unknown} BFC Certification

0 !HISTORY 2002-06-11 [PTadmin] Official Update 2002-03

0 !HISTORY 2007-06-07 [PTadmin] Header formatted for Contributor Agreement

0 !HISTORY 2008-07-01 [PTadmin] Official Update 2008-01

0 !HISTORY 2020-03-07 [Sirio] Subparted

0 !HISTORY 2022-01-14 [PTadmin] Official Update 2022-01

0 !HISTORY 2023-05-26 [OrionP] Moved from 3023.dat

0 !HISTORY 2023-06-24 [OrionP] Official Update 2023-03





1 16 0 0 0 1 0 0 0 1 0 0 0 1 s__3023bs01.dat

4 16 -20 0 -10 -20 8 -10 20 8 -10 20 0 -10

0 NOFILE

0 FILE s__3023bs01.dat
0 ~Plate  1 x  2 without Front Face

0 Name: s\3023bs01.dat

0 Author: Massimo Maso [Sirio]

0 !LDRAW_ORG Subpart UPDATE 2023-03

0 !LICENSE Licensed under CC BY 4.0 : see CAreadme.txt



0 BFC CERTIFY CCW



0 !HISTORY 2022-01-14 [PTadmin] Official Update 2022-01

0 !HISTORY 2023-05-27 [OrionP] Moved from s\3023s01.dat

0 !HISTORY 2023-06-24 [OrionP] Official Update 2023-03





0 // Primitves

1 16 0 4 0 1 0 0 0 -1 0 0 0 1 stud3.dat

0 BFC INVERTNEXT

1 16 0 8 0 16 0 0 0 -4 0 0 0 6 box5.dat

1 16 0 8 0 20 0 0 0 -8 0 0 0 10 box4t.dat

1 16 0 0 0 1 0 0 0 1 0 0 0 1 stug-1x2.dat

0 // Faces

4 16 20 8 10 16 8 6 -16 8 6 -20 8 10

4 16 -20 8 10 -16 8 6 -16 8 -6 -20 8 -10

4 16 -20 8 -10 -16 8 -6 16 8 -6 20 8 -10

4 16 20 8 -10 16 8 -6 16 8 6 20 8 10

0 NOFILE

0 FILE stug-1x2.dat
0 Stud Group  1 x  2

0 Name: stug-1x2.dat

0 Author: Steffen [Steffen]

0 !LDRAW_ORG Primitive UPDATE 2011-01

0 !LICENSE Licensed under CC BY 4.0 : see CAreadme.txt



0 BFC CERTIFY CCW



0 !HISTORY 2011-07-25 [PTadmin] Official Update 2011-01





1 16 -10 0 0 1 0 0 0 1 0 0 0 1 stud.dat

1 16 10 0 0 1 0 0 0 1 0 0 0 1 stud.dat

0 NOFILE

0 FILE box4t.dat
0 Box with 4 Adjacent Faces and All Edges

0 Name: box4t.dat

0 Author: Tore Eriksson [Tore_Eriksson]

0 !LDRAW_ORG Primitive UPDATE 2003-02

0 !LICENSE Licensed under CC BY 4.0 : see CAreadme.txt



0 BFC CERTIFY CCW



0 !HISTORY 1997-09-29 [PTadmin] Official Update 1997-15

0 !HISTORY 2002-08-31 [izanette] Modified with WINDZ for BFC compliance

0 !HISTORY 2003-08-01 [PTadmin] Official Update 2003-02

0 !HISTORY 2007-06-24 [PTadmin] Header formatted for Contributor Agreement

0 !HISTORY 2008-07-01 [PTadmin] Official Update 2008-01





2 24 1 1 1 -1 1 1

2 24 -1 1 1 -1 1 -1

2 24 -1 1 -1 1 1 -1

2 24 1 1 -1 1 1 1

2 24 1 0 1 -1 0 1

2 24 -1 0 1 -1 0 -1

2 24 -1 0 -1 1 0 -1

2 24 1 0 -1 1 0 1

2 24 1 0 1 1 1 1

2 24 -1 0 1 -1 1 1

2 24 1 0 -1 1 1 -1

2 24 -1 0 -1 -1 1 -1

4 16 1 1 1 1 1 -1 -1 1 -1 -1 1 1

4 16 1 1 1 -1 1 1 -1 0 1 1 0 1

4 16 -1 1 1 -1 1 -1 -1 0 -1 -1 0 1

0 // 4 16 -1 1 -1 -1 0 -1 1 0 -1 1 1 -1

4 16 1 1 -1 1 1 1 1 0 1 1 0 -1

0

0 NOFILE

0 FILE box5.dat
0 Box with 5 Faces and All Edges

0 Name: box5.dat

0 Author: James Jessiman

0 !LDRAW_ORG Primitive UPDATE 2012-01

0 !LICENSE Licensed under CC BY 4.0 : see CAreadme.txt



0 BFC CERTIFY CCW



0 !HISTORY 2002-04-03 [sbliss] Modified for BFC compliance

0 !HISTORY 2002-04-25 [PTadmin] Official Update 2002-02

0 !HISTORY 2007-06-24 [PTadmin] Header formatted for Contributor Agreement

0 !HISTORY 2008-07-01 [PTadmin] Official Update 2008-01

0 !HISTORY 2012-02-16 [Philo] Changed to CCW

0 !HISTORY 2012-03-30 [PTadmin] Official Update 2012-01





2 24 1 1 1 -1 1 1

2 24 -1 1 1 -1 1 -1

2 24 -1 1 -1 1 1 -1

2 24 1 1 -1 1 1 1

2 24 1 0 1 -1 0 1

2 24 -1 0 1 -1 0 -1

2 24 -1 0 -1 1 0 -1

2 24 1 0 -1 1 0 1

2 24 1 0 1 1 1 1

2 24 -1 0 1 -1 1 1

2 24 1 0 -1 1 1 -1

2 24 -1 0 -1 -1 1 -1

4 16 -1 1 1 1 1 1 1 1 -1 -1 1 -1

4 16 -1 1 1 -1 0 1 1 0 1 1 1 1

4 16 -1 1 -1 -1 0 -1 -1 0 1 -1 1 1

4 16 1 1 -1 1 0 -1 -1 0 -1 -1 1 -1

4 16 1 1 1 1 0 1 1 0 -1 1 1 -1

0 NOFILE
